<mxfile host="app.diagrams.net" agent="Mozilla/5.0 (Windows NT 10.0; Win64; x64) AppleWebKit/537.36 (KHTML, like Gecko) Chrome/127.0.0.0 Safari/537.36 Edg/127.0.0.0" version="24.7.7">
  <diagram id="WI9T0HZ2pTsCkuznbFz-" name="Page-1">
    <mxGraphModel dx="1848" dy="1055" grid="1" gridSize="10" guides="1" tooltips="1" connect="1" arrows="1" fold="1" page="1" pageScale="1" pageWidth="1169" pageHeight="827" math="0" shadow="0">
      <root>
        <mxCell id="0" />
        <mxCell id="1" parent="0" />
        <mxCell id="CYtip8i-Iczx8UtMDEUg-13" value="" style="verticalLabelPosition=top;verticalAlign=bottom;html=1;shape=mxgraph.basic.patternFillRect;fillStyle=grid;step=5;fillStrokeWidth=0.2;fillStrokeColor=#dddddd;fillColor=#E1D5E7;labelPosition=left;align=right;spacingLeft=0;spacingTop=0;" vertex="1" parent="1">
          <mxGeometry x="77" y="20" width="863" height="460" as="geometry" />
        </mxCell>
        <mxCell id="CYtip8i-Iczx8UtMDEUg-14" value="" style="verticalLabelPosition=bottom;verticalAlign=top;html=1;shape=mxgraph.basic.patternFillRect;fillStyle=grid;step=5;fillStrokeWidth=0.2;fillStrokeColor=#dddddd;fillColor=#E6E6E6;" vertex="1" parent="1">
          <mxGeometry x="265" y="90" width="155" height="350" as="geometry" />
        </mxCell>
        <mxCell id="CYtip8i-Iczx8UtMDEUg-17" value="" style="verticalLabelPosition=bottom;verticalAlign=top;html=1;shape=mxgraph.basic.patternFillRect;fillStyle=grid;step=5;fillStrokeWidth=0.2;fillStrokeColor=#dddddd;fillColor=#E6E6E6;" vertex="1" parent="1">
          <mxGeometry x="444" y="90" width="170" height="350" as="geometry" />
        </mxCell>
        <mxCell id="CYtip8i-Iczx8UtMDEUg-15" value="" style="verticalLabelPosition=bottom;verticalAlign=top;html=1;shape=mxgraph.basic.patternFillRect;fillStyle=grid;step=5;fillStrokeWidth=0.2;fillStrokeColor=#dddddd;fillColor=#E6E6E6;" vertex="1" parent="1">
          <mxGeometry x="633" y="90" width="170" height="350" as="geometry" />
        </mxCell>
        <mxCell id="CYtip8i-Iczx8UtMDEUg-1" value="Places Data" style="image;aspect=fixed;html=1;points=[];align=center;fontSize=12;image=img/lib/azure2/databases/Azure_Cosmos_DB.svg;labelBackgroundColor=none;" vertex="1" parent="1">
          <mxGeometry x="308" y="232" width="64" height="64" as="geometry" />
        </mxCell>
        <mxCell id="CYtip8i-Iczx8UtMDEUg-52" value="" style="edgeStyle=none;rounded=0;orthogonalLoop=1;jettySize=auto;html=1;strokeWidth=2;fillColor=#e51400;strokeColor=#B20000;" edge="1" parent="1" source="CYtip8i-Iczx8UtMDEUg-3" target="CYtip8i-Iczx8UtMDEUg-38">
          <mxGeometry relative="1" as="geometry" />
        </mxCell>
        <mxCell id="CYtip8i-Iczx8UtMDEUg-3" value="API Keys" style="image;aspect=fixed;html=1;points=[];align=center;fontSize=12;image=img/lib/azure2/security/Key_Vaults.svg;horizontal=1;labelPosition=center;verticalLabelPosition=top;verticalAlign=bottom;textShadow=1;labelBackgroundColor=none;" vertex="1" parent="1">
          <mxGeometry x="501.5" y="143" width="55" height="55" as="geometry" />
        </mxCell>
        <mxCell id="CYtip8i-Iczx8UtMDEUg-6" style="edgeStyle=orthogonalEdgeStyle;rounded=0;orthogonalLoop=1;jettySize=auto;html=1;entryX=-0.002;entryY=0.507;entryDx=0;entryDy=0;entryPerimeter=0;strokeWidth=2;strokeColor=#B20000;startArrow=classicThin;startFill=1;fillColor=#e51400;" edge="1" parent="1" source="CYtip8i-Iczx8UtMDEUg-4" target="CYtip8i-Iczx8UtMDEUg-9">
          <mxGeometry relative="1" as="geometry">
            <mxPoint x="920" y="160" as="targetPoint" />
          </mxGeometry>
        </mxCell>
        <mxCell id="CYtip8i-Iczx8UtMDEUg-4" value="Google API" style="image;aspect=fixed;html=1;points=[];align=center;fontSize=12;image=img/lib/azure2/compute/Function_Apps.svg;labelBackgroundColor=none;" vertex="1" parent="1">
          <mxGeometry x="682" y="238" width="61.2" height="54" as="geometry" />
        </mxCell>
        <mxCell id="CYtip8i-Iczx8UtMDEUg-5" value="Google API" style="dashed=0;outlineConnect=0;html=1;align=center;labelPosition=center;verticalLabelPosition=bottom;verticalAlign=top;shape=mxgraph.weblogos.google" vertex="1" parent="1">
          <mxGeometry x="1009" y="109.6" width="65.2" height="69.4" as="geometry" />
        </mxCell>
        <mxCell id="CYtip8i-Iczx8UtMDEUg-9" value="NAT Gateway" style="image;aspect=fixed;html=1;points=[];align=center;fontSize=12;image=img/lib/azure2/networking/NAT.svg;labelBackgroundColor=none;labelPosition=center;verticalLabelPosition=bottom;verticalAlign=top;" vertex="1" parent="1">
          <mxGeometry x="841" y="230" width="68" height="68" as="geometry" />
        </mxCell>
        <mxCell id="CYtip8i-Iczx8UtMDEUg-25" value="ResDiary" style="shape=image;verticalLabelPosition=bottom;labelBackgroundColor=default;verticalAlign=top;aspect=fixed;imageAspect=0;image=data:image/svg+xml,PHN2ZyB4bWxuczp4bGluaz0iaHR0cDovL3d3dy53My5vcmcvMTk5OS94bGluayIgeG1sbnM9Imh0dHA6Ly93d3cudzMub3JnLzIwMDAvc3ZnIiB4bWw6c3BhY2U9InByZXNlcnZlIiBzdHlsZT0iZW5hYmxlLWJhY2tncm91bmQ6bmV3IDAgMCAyNTAgNDMuOTsiIHZpZXdCb3g9IjAgMCAyNTAgNDMuOSIgeT0iMHB4IiB4PSIwcHgiIGlkPSJMYXllcl8xIiB2ZXJzaW9uPSIxLjEiPiYjeGE7PHN0eWxlIHR5cGU9InRleHQvY3NzIj4mI3hhOwkuc3Qwe2ZpbGw6IzAwQjdGMDt9JiN4YTsJLnN0MXtmaWxsOiM0RTRFNEU7fSYjeGE7CS5zdDJ7ZmlsbDojNjY2NjY2O30mI3hhOwkuc3Qze2ZpbGw6I0U1MTczRjt9JiN4YTsJLnN0NHtmaWxsOiMyRTJFMkU7fSYjeGE7PC9zdHlsZT4mI3hhOzxwYXRoIGQ9Ik0wLDIyYzAtMS4zLDAtMi42LDAtMy45YzAtMi41LDAuNS01LDEuNS03LjNDMi44LDcuNiw1LjIsNSw4LjIsMy41YzEuNS0wLjcsMy4xLTEuMiw0LjgtMS4zJiMxMDsmIzk7YzMtMC4zLDYuMSwwLjIsOC44LDEuNGMxLjcsMC43LDMuMiwxLjUsNC45LDIuM2MyLjksMS40LDUuOCwyLjgsOC43LDQuMWMwLjEsMC4xLDAuMywwLjEsMC40LDBjNC0xLjksOC4xLTMuOCwxMi4xLTUuOCYjMTA7JiM5O2MxLjctMC44LDMuNS0xLjQsNS40LTEuOGMzLTAuNiw2LjEtMC4zLDguOSwwLjhjMi42LDEuMSw0LjgsMyw2LjMsNS40YzEuMiwxLjksMiw0LjEsMi40LDYuNGMwLjIsMS4yLDAuMywyLjUsMC4zLDMuNyYjMTA7JiM5O2MwLDIuMywwLDQuNSwwLDYuOGMwLDIuMy0wLjMsNC43LTEuMSw2LjljLTAuOSwyLjctMi43LDUuMS01LDYuOGMtMS43LDEuMi0zLjcsMi01LjcsMi4zYy0zLjEsMC41LTYuMSwwLTktMS4yJiMxMDsmIzk7Yy0xLjMtMC42LTIuNi0xLjItMy45LTEuOWwtMTAuNy01LjVjLTAuMS0wLjEtMC4zLTAuMS0wLjQsMGMtNC4zLDIuMi04LjUsNC40LTEyLjcsNi42Yy0yLDEtNC4xLDEuNy02LjMsMmMtMy4zLDAuNC02LjQsMC05LjItMS43JiMxMDsmIzk7Yy0yLjMtMS4zLTQuMS0zLjMtNS4yLTUuN2MtMC45LTEuOC0xLjUtMy43LTEuNy01LjZjLTAuMS0xLTAuMi0yLjEtMC4yLTMuMUMwLDI0LjIsMCwyMy4xLDAsMjJMMCwyMnogTTQxLDEzYzAuNywwLjUsMS40LDEuMiwyLDEuOSYjMTA7JiM5O2MxLjgsMi4zLDIuNiw1LjMsMi4xLDguMmMtMC4zLDIuNi0xLjcsNS0zLjgsNi43Yy0wLjIsMC4xLTAuMiwwLjEsMCwwLjNjMi44LDEuNSw1LjcsMi45LDguNSw0LjRjMSwwLjYsMi4xLDEsMy4yLDEuNCYjMTA7JiM5O2MxLjcsMC42LDMuNSwwLjgsNS4zLDAuNmMyLjctMC4zLDUtMiw2LjMtNC40YzEtMS44LDEuNS0zLjgsMS41LTUuOWMwLTIuMiwwLTQuNSwwLTYuN2MwLTAuOCwwLTEuNSwwLTIuM2MtMC4xLTEuNy0wLjUtMy4zLTEuMi00LjgmIzEwOyYjOTtjLTAuNi0xLjQtMS41LTIuNS0yLjctMy41Yy0yLTEuNi00LjMtMi4xLTYuOC0xLjhjLTEuNywwLjItMy40LDAuNy00LjksMS40Yy0yLjQsMS4xLTQuOCwyLjMtNy4yLDMuNEM0Mi41LDEyLjMsNDEuOCwxMi43LDQxLDEzeiYjMTA7JiM5OyBNMzAsMzBjLTAuMS0wLjEtMC4xLTAuMS0wLjItMC4yYy0wLjgtMC42LTEuNS0xLjMtMi0yLjFjLTEuNi0yLjMtMi4zLTUuMS0xLjgtNy45YzAuNC0yLjYsMS44LTUsMy45LTYuN2MwLjItMC4xLDAuMi0wLjEsMC0wLjImIzEwOyYjOTtjLTEuOC0wLjgtMy43LTEuNy01LjUtMi42Yy0xLjUtMC43LTMtMS41LTQuNS0yLjFjLTItMC45LTQuMy0xLjItNi41LTFjLTEuNCwwLjItMi44LDAuNy00LDEuNWMtMS44LDEuMy0zLDMuMS0zLjYsNS4yJiMxMDsmIzk7QzUuMywxNS40LDUsMTcsNS4xLDE4LjZWMjVjMCwwLjgsMCwxLjYsMC4xLDIuNGMwLjIsMS42LDAuNiwzLjMsMS40LDQuN2MwLjcsMS4zLDEuNywyLjQsMi45LDMuMWMxLjksMS4yLDQsMS41LDYuMiwxLjImIzEwOyYjOTtjMS43LTAuMiwzLjMtMC44LDQuOC0xLjZjMS44LTAuOSwzLjYtMS44LDUuMy0yLjhDMjcuMiwzMS40LDI4LjYsMzAuNywzMCwzMHogTTM1LjYsMTYuMmMtMC4zLDAtMC41LDAtMC44LDAuMSYjMTA7JiM5O2MtMS4zLDAuMy0yLjQsMS4xLTMuMSwyLjNjLTEuMiwyLjEtMSw0LjcsMC41LDYuNmMwLjgsMSwyLDEuNiwzLjIsMS42YzEuNSwwLDIuOS0wLjcsMy43LTJjMS41LTIuMSwxLjQtNS0wLjMtNyYjMTA7JiM5O0MzOC4xLDE2LjgsMzYuOSwxNi4zLDM1LjYsMTYuMnoiIGNsYXNzPSJzdDAiLz4mI3hhOzxwYXRoIGQ9Ik05MS4xLDI5LjVjMS4zLDAsMS45LTAuOCwxLjktMnYtOC45aDNsNy41LDkuMmMwLjksMS4yLDEuNywxLjcsMi44LDEuN2MxLjgsMCwyLjctMS41LDIuNS0xLjhsLTgtOS41JiMxMDsmIzk7YzAuNiwwLDEuMi0wLjEsMS43LTAuM2M0LjItMC45LDYuNC0zLjcsNi40LTcuOGMwLTUuNC0zLjYtOC4yLTEwLjItOC4yaC03LjhjLTEuNCwwLTIuMywxLTIuMywyLjV2MjIuOGMwLDEuNCwwLjYsMi4yLDEuOCwyLjJIOTEuMSYjMTA7JiM5O3ogTTk4LjgsMTUuMkg5M1Y1LjVoNS42YzQsMCw2LDEuNiw2LDQuOEMxMDQuNywxMy4zLDEwMi44LDE1LjIsOTguOCwxNS4yeiBNMTIyLjgsMjkuOWMyLjgsMCw0LjktMC43LDYuNC0xLjYmIzEwOyYjOTtjMS41LTAuOSwyLjItMi4xLDIuMi0zYzAtMS44LTIuMS0yLjItMi4yLTIuMWMtMS4xLDEuOC0yLjgsMy40LTYuNCwzLjRjLTMuNiwwLTYuMy0yLjItNi45LTUuNWMwLTAuMy0wLjEtMC41LTAuMS0wLjhoMTUmIzEwOyYjOTtjMSwwLDEuMy0wLjMsMS4zLTEuMnYtMC4zYzAtNi4xLTMuOS0xMC4yLTkuOC0xMC4yYy02LDAtMTAuNCw0LjYtMTAuNCwxMC44QzExMi4xLDI1LjYsMTE2LjQsMjkuOSwxMjIuOCwyOS45eiBNMTI4LjIsMTcuNEgxMTYmIzEwOyYjOTtjMC41LTMuNCwzLjEtNS44LDYuNC01LjhDMTI1LjgsMTEuNiwxMjgsMTMuOSwxMjguMiwxNy40eiBNMTQzLjIsMjkuOGM1LjIsMCw4LjUtMi41LDguNS02LjRjMC00LjQtNC40LTUuMy03LjUtNiYjMTA7JiM5O2MtMy4zLTAuNy01LjEtMS4xLTUuMS0zYzAtMS43LDEuNS0yLjgsNC40LTIuOGMyLjYsMCw0LjcsMS4yLDYsMi45YzAuMSwwLjEsMS43LTAuNiwxLjctMS45YzAtMC41LTAuMi0xLTAuNS0xLjQmIzEwOyYjOTtjLTEtMS40LTMuNC0yLjctNy4zLTIuN2MtNC45LDAtOC4xLDIuNi04LjEsNi40YzAsNC4zLDQuMSw1LjIsNy4xLDUuOWMzLjMsMC43LDUuMiwxLjEsNS4yLDMuMmMwLDEuNy0xLjYsMi43LTQuNSwyLjcmIzEwOyYjOTtjLTMuMiwwLTUuNS0xLjMtNi45LTNjLTAuMS0wLjEtMS42LDAuNi0xLjYsMS45YzAsMC44LDAuNSwxLjgsMS42LDIuNUMxMzcuNywyOS4xLDE0MCwyOS44LDE0My4yLDI5Ljh6IE0xNjQuOSwyOS4zJiMxMDsmIzk7YzkuNCwwLDE1LjEtNS4yLDE1LjEtMTMuN2MwLTguNS01LjUtMTMuNi0xNC44LTEzLjZoLTYuN2MtMS4zLDAtMi4zLDEtMi4zLDIuNXYyMi41YzAsMS4zLDEuMSwyLjQsMi40LDIuNEgxNjQuOXogTTE2NSwyNS41aC00LjYmIzEwOyYjOTtWNS43aDQuNmM2LjYsMCwxMC41LDMuNywxMC41LDkuOUMxNzUuNiwyMS45LDE3MS43LDI1LjUsMTY1LDI1LjV6IE0xODYuNyw0LjljMS42LDAsMi41LTAuOSwyLjUtMi40YzAtMS41LTAuOS0yLjUtMi41LTIuNSYjMTA7JiM5O2MtMS42LDAtMi41LDAuOS0yLjUsMi41QzE4NC4yLDMuOSwxODUuMiw0LjksMTg2LjcsNC45eiBNMTg2LjksMjkuNWMxLjEsMCwxLjktMC41LDEuOS0yVjEwLjhjMC0xLjYtMC44LTItMS45LTJoLTAuNCYjMTA7JiM5O2MtMS4xLDAtMS45LDAuNS0xLjksMnYxNi43YzAsMS41LDAuOCwyLDEuOSwySDE4Ni45eiBNMTk5LjksMjkuOGMzLjEsMCw1LjgtMS4zLDcuMy0zLjVjMCwwLjUsMC4xLDEsMC4yLDEuNCYjMTA7JiM5O2MwLjMsMS40LDEuMywxLjksMi40LDEuOWMwLjgsMCwxLjUtMC4zLDEuNS0wLjVWMTYuNmMwLTUuMi0zLjEtOC4xLTguOS04LjFjLTMuNSwwLTUuOSwxLjEtNy4zLDIuM2MtMC45LDAuOC0xLjQsMS44LTEuNCwyLjUmIzEwOyYjOTtjMCwyLDIuNiwyLjEsMi42LDJjMC45LTEuOSwyLjctMy41LDUuOC0zLjVjMy4zLDAsNSwxLjcsNSw0Ljh2MC40aC0wLjZjLTkuMiwwLjItMTMuNywyLjItMTMuNyw2LjkmIzEwOyYjOTtDMTkyLjksMjcuNCwxOTUuNSwyOS44LDE5OS45LDI5Ljh6IE0yMDAuOSwyNi44Yy0yLjQsMC0zLjgtMS4xLTMuOC0zYzAtMi43LDMtMy44LDktNC4xbDEuMSwwdjEuNiYjMTA7JiM5O0MyMDcuMiwyNC41LDIwNC41LDI2LjgsMjAwLjksMjYuOHogTTIxNy4yLDI5LjVjMS4xLDAsMS45LTAuNSwxLjktMnYtNy4xYzAtNC43LDEuMy03LjksNC42LTcuOWMxLjEsMCwxLjksMC40LDIuNiwwLjkmIzEwOyYjOTtjMC4xLDAuMSwxLjMtMC41LDEuMy0yLjJjMC0xLjctMS4yLTIuNy0zLjMtMi43Yy0yLjYsMC00LjMsMS40LTUuMiwzLjhjMC0wLjYtMC4xLTEuMS0wLjItMS41Yy0wLjQtMS42LTEuNS0yLTIuNS0yJiMxMDsmIzk7Yy0wLjgsMC0xLjUsMC4zLTEuNSwwLjV2MTguM2MwLDEuNSwwLjgsMiwxLjksMkgyMTcuMnogTTIzNy44LDM3LjZjMSwwLDEuOS0wLjUsMi42LTIuM0wyNTAsOS45YzAuMS0wLjItMS4xLTEuMS0yLjItMS4xJiMxMDsmIzk7Yy0xLjEsMC0yLDAuNi0yLjYsMi41bC00LjksMTRsLTUuNS0xNGMtMC43LTEuOC0xLjUtMi40LTIuNy0yLjRjLTEuNCwwLTIuMywxLTIuMiwxLjJsNy4zLDE3YzAuMywwLjgsMC44LDEuMSwxLjgsMS4ybC0zLjQsOC4yJiMxMDsmIzk7QzIzNS41LDM2LjYsMjM2LjYsMzcuNiwyMzcuOCwzNy42eiIgY2xhc3M9InN0MSIvPiYjeGE7PHBhdGggZD0iTTExNy40LDQxLjRjLTAuOCwwLTEuNC0wLjQtMS40LTEuMmMwLTEsMC44LTEuNywzLjMtMnYtMC4yYzAtMC42LTAuMy0wLjktMC45LTAuOWMtMC43LDAtMS4zLDAuMy0xLjgsMC43JiMxMDsmIzk7bC0wLjQtMC41YzAuNi0wLjUsMS4zLTAuOSwyLjMtMC45YzEuMiwwLDEuNiwwLjYsMS42LDEuNnYyLjJjMCwwLjYsMCwxLDAuMSwxLjJoLTAuOGMtMC4xLTAuMi0wLjEtMC40LTAuMS0wLjcmIzEwOyYjOTtDMTE4LjgsNDEuMiwxMTguMiw0MS40LDExNy40LDQxLjR6IE0xMTcuNyw0MC44YzAuNywwLDEuMi0wLjMsMS43LTAuN3YtMS40Yy0xLjksMC4zLTIuNSwwLjgtMi41LDEuNCYjMTA7JiM5O0MxMTYuOCw0MC42LDExNy4yLDQwLjgsMTE3LjcsNDAuOHogTTEyMy40LDQxLjVjLTEuMSwwLTIuMi0wLjktMi4yLTIuNmMwLTEuOCwxLjItMi42LDIuMi0yLjZjMS4xLDAsMS42LDAuNywxLjksMS40bC0wLjcsMC4zJiMxMDsmIzk7Yy0wLjItMC42LTAuNi0xLTEuMy0xYy0wLjcsMC0xLjQsMC41LTEuNCwxLjljMCwxLjIsMC42LDEuOSwxLjQsMS45YzAuNiwwLDEtMC4zLDEuMy0xbDAuNywwLjNDMTI1LDQwLjksMTI0LjUsNDEuNSwxMjMuNCw0MS41eiYjMTA7JiM5OyBNMTI4LjMsNDEuNWMtMS4xLDAtMi4yLTAuOS0yLjItMi42YzAtMS44LDEuMi0yLjYsMi4yLTIuNmMxLjEsMCwxLjYsMC43LDEuOSwxLjRsLTAuNywwLjNjLTAuMi0wLjYtMC42LTEtMS4zLTEmIzEwOyYjOTtjLTAuNywwLTEuNCwwLjUtMS40LDEuOWMwLDEuMiwwLjYsMS45LDEuNCwxLjljMC42LDAsMS0wLjMsMS4zLTFsMC43LDAuM0MxMjkuOSw0MC45LDEyOS40LDQxLjUsMTI4LjMsNDEuNXogTTEzMy4yLDQxLjUmIzEwOyYjOTtjLTEuMiwwLTIuMi0wLjgtMi4yLTIuNmMwLTEuOCwxLjItMi42LDIuMi0yLjZjMS4yLDAsMiwwLjgsMiwyLjZ2MC4yaC0zLjVjMCwxLjEsMC43LDEuNywxLjUsMS43YzAuNywwLDEuMS0wLjMsMS41LTAuOGwwLjUsMC40JiMxMDsmIzk7QzEzNC44LDQxLjEsMTM0LjIsNDEuNSwxMzMuMiw0MS41eiBNMTMxLjgsMzguNWgyLjdjLTAuMS0wLjktMC41LTEuNS0xLjMtMS41QzEzMi42LDM3LDEzMS45LDM3LjUsMTMxLjgsMzguNXogTTEzOCw0MS41JiMxMDsmIzk7Yy0wLjksMC0xLjYtMC40LTItMC44bDAuNS0wLjVjMC40LDAuNCwwLjksMC43LDEuNSwwLjdjMC44LDAsMS4yLTAuMywxLjItMC44YzAtMC41LTAuNC0wLjctMS4zLTAuOWMtMS0wLjMtMS44LTAuNS0xLjgtMS41JiMxMDsmIzk7YzAtMC43LDAuNy0xLjMsMS43LTEuM2MwLjksMCwxLjQsMC4zLDEuOSwwLjdsLTAuNCwwLjVjLTAuNC0wLjMtMC45LTAuNi0xLjQtMC42Yy0wLjcsMC0xLDAuMy0xLDAuN2MwLDAuNSwwLjQsMC42LDEuMiwwLjgmIzEwOyYjOTtjMS4xLDAuMywxLjksMC41LDEuOSwxLjZDMTM5LjksNDEsMTM5LjEsNDEuNSwxMzgsNDEuNXogTTE0Mi42LDQxLjVjLTAuOSwwLTEuNi0wLjQtMi0wLjhsMC41LTAuNWMwLjQsMC40LDAuOSwwLjcsMS41LDAuNyYjMTA7JiM5O2MwLjgsMCwxLjItMC4zLDEuMi0wLjhjMC0wLjUtMC40LTAuNy0xLjMtMC45Yy0xLTAuMy0xLjgtMC41LTEuOC0xLjVjMC0wLjcsMC42LTEuMywxLjctMS4zYzAuOSwwLDEuNCwwLjMsMS45LDAuN2wtMC40LDAuNSYjMTA7JiM5O2MtMC40LTAuMy0wLjktMC42LTEuNC0wLjZjLTAuNywwLTEsMC4zLTEsMC43YzAsMC41LDAuNCwwLjYsMS4yLDAuOGMxLjEsMC4zLDEuOSwwLjUsMS45LDEuNkMxNDQuNiw0MSwxNDMuOCw0MS41LDE0Mi42LDQxLjV6IiBjbGFzcz0ic3QyIi8+JiN4YTs8cGF0aCBkPSJNMTE0LjMsMzlsLTQuMi0zLjdjLTAuOS0wLjgtMi0xLjItMy4zLTEuMmMtMi43LDAtNC45LDIuMi00LjksNC45YzAsMi43LDIuMiw0LjksNC45LDQuOSYjMTA7JiM5O2MxLjMsMCwyLjQtMC41LDMuMy0xLjJMMTE0LjMsMzl6IE0xMDMuNCwzOWMwLTEuOSwxLjUtMy40LDMuNC0zLjRjMS45LDAsMy40LDEuNSwzLjQsMy40YzAsMS45LTEuNSwzLjQtMy40LDMuNCYjMTA7JiM5O0MxMDUsNDIuNCwxMDMuNCw0MC45LDEwMy40LDM5eiIgY2xhc3M9InN0MyIvPiYjeGE7PHBhdGggZD0iTTE1MC40LDQxLjVjLTAuNSwwLTAuOS0wLjEtMS4yLTAuM2MtMC4zLTAuMi0wLjYtMC41LTAuOC0wLjhjLTAuMi0wLjQtMC4zLTAuOC0wLjMtMS40YzAtMC42LDAuMS0xLjEsMC4zLTEuNCYjMTA7JiM5O2MwLjItMC40LDAuNS0wLjcsMC44LTAuOGMwLjQtMC4yLDAuOC0wLjMsMS4yLTAuM2MwLjMsMCwwLjYsMCwwLjgsMC4xYzAuMiwwLjEsMC40LDAuMSwwLjYsMC4ybC0wLjMsMC44Yy0wLjItMC4xLTAuNC0wLjEtMC41LTAuMiYjMTA7JiM5O2MtMC4yLDAtMC40LTAuMS0wLjUtMC4xYy0wLjMsMC0wLjUsMC4xLTAuNywwLjJjLTAuMiwwLjEtMC4zLDAuMy0wLjQsMC42Yy0wLjEsMC4yLTAuMSwwLjYtMC4xLDAuOWMwLDAuNCwwLDAuNywwLjEsMC45JiMxMDsmIzk7YzAuMSwwLjIsMC4yLDAuNCwwLjQsMC42YzAuMiwwLjEsMC40LDAuMiwwLjcsMC4yYzAuMywwLDAuNSwwLDAuNy0wLjFjMC4yLTAuMSwwLjQtMC4xLDAuNi0wLjN2MC45Yy0wLjIsMC4xLTAuNCwwLjItMC42LDAuMiYjMTA7JiM5O0MxNTEsNDEuNCwxNTAuNyw0MS41LDE1MC40LDQxLjV6IE0xNTYuOSwzOC45YzAsMC40LTAuMSwwLjgtMC4yLDEuMWMtMC4xLDAuMy0wLjMsMC42LTAuNSwwLjhjLTAuMiwwLjItMC40LDAuNC0wLjcsMC41JiMxMDsmIzk7Yy0wLjMsMC4xLTAuNiwwLjItMSwwLjJjLTAuMywwLTAuNi0wLjEtMC45LTAuMmMtMC4zLTAuMS0wLjUtMC4zLTAuNy0wLjVjLTAuMi0wLjItMC40LTAuNS0wLjUtMC44cy0wLjItMC43LTAuMi0xLjEmIzEwOyYjOTtjMC0wLjUsMC4xLTEsMC4zLTEuNGMwLjItMC40LDAuNS0wLjcsMC44LTAuOWMwLjMtMC4yLDAuOC0wLjMsMS4yLTAuM2MwLjQsMCwwLjgsMC4xLDEuMiwwLjNjMC4zLDAuMiwwLjYsMC41LDAuOCwwLjkmIzEwOyYjOTtDMTU2LjgsMzgsMTU2LjksMzguNCwxNTYuOSwzOC45eiBNMTUzLjQsMzguOWMwLDAuNCwwLDAuNywwLjEsMC45YzAuMSwwLjMsMC4yLDAuNCwwLjQsMC42YzAuMiwwLjEsMC40LDAuMiwwLjcsMC4yJiMxMDsmIzk7YzAuMywwLDAuNS0wLjEsMC43LTAuMmMwLjItMC4xLDAuMy0wLjMsMC40LTAuNmMwLjEtMC4zLDAuMS0wLjYsMC4xLTAuOWMwLTAuNCwwLTAuNy0wLjEtMC45Yy0wLjEtMC4yLTAuMi0wLjQtMC40LTAuNiYjMTA7JiM5O2MtMC4yLTAuMS0wLjQtMC4yLTAuNy0wLjJjLTAuNCwwLTAuNywwLjEtMC45LDAuNEMxNTMuNSwzOCwxNTMuNCwzOC40LDE1My40LDM4Ljl6IE0xNjMuMiwzNi40YzAuNSwwLDEsMC4xLDEuMiwwLjQmIzEwOyYjOTtjMC4zLDAuMywwLjQsMC43LDAuNCwxLjR2My4yaC0xdi0zYzAtMC40LTAuMS0wLjYtMC4yLTAuOGMtMC4xLTAuMi0wLjQtMC4zLTAuNy0wLjNjLTAuNCwwLTAuNywwLjEtMC45LDAuNCYjMTA7JiM5O2MtMC4yLDAuMy0wLjMsMC42LTAuMywxLjF2Mi42aC0xdi0zYzAtMC4yLDAtMC41LTAuMS0wLjZjLTAuMS0wLjItMC4yLTAuMy0wLjMtMC40Yy0wLjEtMC4xLTAuMy0wLjEtMC41LTAuMSYjMTA7JiM5O2MtMC4zLDAtMC41LDAuMS0wLjcsMC4yYy0wLjIsMC4xLTAuMywwLjMtMC40LDAuNmMtMC4xLDAuMi0wLjEsMC42LTAuMSwwLjl2Mi40aC0xdi00LjloMC44bDAuMSwwLjdoMC4xYzAuMS0wLjIsMC4yLTAuMywwLjQtMC40JiMxMDsmIzk7YzAuMS0wLjEsMC4zLTAuMiwwLjUtMC4yYzAuMi0wLjEsMC40LTAuMSwwLjYtMC4xYzAuNCwwLDAuNywwLjEsMC45LDAuMmMwLjIsMC4xLDAuNCwwLjMsMC42LDAuNmgwLjFjMC4yLTAuMywwLjQtMC41LDAuNi0wLjYmIzEwOyYjOTtDMTYyLjYsMzYuNSwxNjIuOSwzNi40LDE2My4yLDM2LjR6IE0xNjguNCwzNi40YzAuNiwwLDEsMC4yLDEuNCwwLjZjMC40LDAuNCwwLjUsMSwwLjUsMS45YzAsMC41LTAuMSwxLTAuMiwxLjQmIzEwOyYjOTtjLTAuMiwwLjQtMC40LDAuNy0wLjcsMC45Yy0wLjMsMC4yLTAuNiwwLjMtMSwwLjNjLTAuMiwwLTAuNSwwLTAuNi0wLjFjLTAuMi0wLjEtMC4zLTAuMS0wLjUtMC4yYy0wLjEtMC4xLTAuMi0wLjItMC4zLTAuM2gtMC4xJiMxMDsmIzk7YzAsMC4xLDAsMC4yLDAsMC40YzAsMC4xLDAsMC4zLDAsMC40djJoLTF2LTdoMC44bDAuMSwwLjdoMGMwLjEtMC4xLDAuMi0wLjMsMC4zLTAuNGMwLjEtMC4xLDAuMy0wLjIsMC41LTAuMyYjMTA7JiM5O0MxNjcuOSwzNi41LDE2OC4yLDM2LjQsMTY4LjQsMzYuNHogTTE2OC4xLDM3LjNjLTAuMywwLTAuNSwwLjEtMC43LDAuMmMtMC4yLDAuMS0wLjMsMC4zLTAuNCwwLjVjLTAuMSwwLjItMC4xLDAuNS0wLjEsMC44djAuMSYjMTA7JiM5O2MwLDAuNCwwLDAuNywwLjEsMC45YzAuMSwwLjIsMC4yLDAuNCwwLjQsMC42YzAuMiwwLjEsMC40LDAuMiwwLjcsMC4yYzAuMywwLDAuNS0wLjEsMC42LTAuMmMwLjItMC4xLDAuMy0wLjMsMC40LTAuNiYjMTA7JiM5O2MwLjEtMC4zLDAuMS0wLjYsMC4xLTAuOWMwLTAuNS0wLjEtMC45LTAuMy0xLjJDMTY4LjgsMzcuNCwxNjguNSwzNy4zLDE2OC4xLDM3LjN6IE0xNzMsMzYuNGMwLjYsMCwxLjEsMC4xLDEuNCwwLjQmIzEwOyYjOTtjMC4zLDAuMywwLjUsMC43LDAuNSwxLjN2My4zaC0wLjdsLTAuMi0wLjdoMGMtMC4xLDAuMi0wLjMsMC4zLTAuNCwwLjRjLTAuMSwwLjEtMC4zLDAuMi0wLjUsMC4zYy0wLjIsMC4xLTAuNCwwLjEtMC43LDAuMSYjMTA7JiM5O2MtMC4zLDAtMC41LTAuMS0wLjgtMC4yYy0wLjItMC4xLTAuNC0wLjMtMC41LTAuNWMtMC4xLTAuMi0wLjItMC41LTAuMi0wLjhjMC0wLjUsMC4yLTAuOSwwLjYtMS4xYzAuNC0wLjMsMC45LTAuNCwxLjctMC40bDAuOCwwJiMxMDsmIzk7di0wLjNjMC0wLjMtMC4xLTAuNi0wLjItMC43Yy0wLjItMC4xLTAuNC0wLjItMC43LTAuMmMtMC4yLDAtMC41LDAtMC43LDAuMXMtMC41LDAuMi0wLjcsMC4zbC0wLjMtMC43YzAuMi0wLjEsMC41LTAuMiwwLjgtMC4zJiMxMDsmIzk7QzE3Mi40LDM2LjUsMTcyLjcsMzYuNCwxNzMsMzYuNHogTTE3My45LDM5LjFsLTAuNiwwYy0wLjUsMC0wLjksMC4xLTEuMSwwLjNzLTAuMywwLjQtMC4zLDAuNmMwLDAuMiwwLjEsMC40LDAuMiwwLjUmIzEwOyYjOTtjMC4xLDAuMSwwLjMsMC4yLDAuNiwwLjJjMC40LDAsMC43LTAuMSwwLjktMC4zYzAuMi0wLjIsMC40LTAuNSwwLjQtMC45VjM5LjF6IE0xNzguNSwzNi40YzAuNSwwLDEsMC4xLDEuMywwLjQmIzEwOyYjOTtjMC4zLDAuMywwLjUsMC43LDAuNSwxLjR2My4yaC0xdi0zYzAtMC40LTAuMS0wLjctMC4yLTAuOGMtMC4yLTAuMi0wLjQtMC4zLTAuNy0wLjNjLTAuNSwwLTAuOCwwLjEtMSwwLjRjLTAuMiwwLjMtMC4zLDAuNy0wLjMsMS4zJiMxMDsmIzk7djIuNGgtMXYtNC45aDAuOGwwLjEsMC43aDAuMWMwLjEtMC4yLDAuMi0wLjMsMC40LTAuNGMwLjItMC4xLDAuMy0wLjIsMC41LTAuM0MxNzguMSwzNi41LDE3OC4zLDM2LjQsMTc4LjUsMzYuNHogTTE4MC42LDM2LjVoMS4xJiMxMDsmIzk7bDEsMi44YzAsMC4xLDAuMSwwLjMsMC4xLDAuNGMwLDAuMSwwLjEsMC4yLDAuMSwwLjRjMCwwLjEsMC4xLDAuMiwwLjEsMC40aDBjMC0wLjIsMC4xLTAuMywwLjEtMC41YzAuMS0wLjIsMC4xLTAuNCwwLjItMC42bDEtMi44JiMxMDsmIzk7aDEuMWwtMi4xLDUuNWMtMC4xLDAuMy0wLjMsMC42LTAuNCwwLjhjLTAuMiwwLjItMC40LDAuNC0wLjYsMC41Yy0wLjIsMC4xLTAuNSwwLjItMC44LDAuMmMtMC4xLDAtMC4zLDAtMC40LDBjLTAuMSwwLTAuMiwwLTAuMywwJiMxMDsmIzk7di0wLjhjMC4xLDAsMC4xLDAsMC4yLDBjMC4xLDAsMC4yLDAsMC4zLDBjMC4yLDAsMC4zLDAsMC41LTAuMWMwLjEtMC4xLDAuMi0wLjIsMC4zLTAuM2MwLjEtMC4xLDAuMi0wLjMsMC4yLTAuNWwwLjItMC41JiMxMDsmIzk7TDE4MC42LDM2LjV6IiBjbGFzcz0ic3Q0Ii8+JiN4YTs8cGF0aCBkPSJNOTEuNCwzNi40YzAuNiwwLDEuMSwwLjEsMS40LDAuNGMwLjMsMC4zLDAuNSwwLjcsMC41LDEuM3YzLjNoLTAuN2wtMC4yLTAuN2gwYy0wLjEsMC4yLTAuMywwLjMtMC40LDAuNCYjMTA7JiM5O2MtMC4xLDAuMS0wLjMsMC4yLTAuNSwwLjNjLTAuMiwwLjEtMC40LDAuMS0wLjcsMC4xYy0wLjMsMC0wLjUtMC4xLTAuOC0wLjJjLTAuMi0wLjEtMC40LTAuMy0wLjUtMC41Yy0wLjEtMC4yLTAuMi0wLjUtMC4yLTAuOCYjMTA7JiM5O2MwLTAuNSwwLjItMC45LDAuNi0xLjFjMC40LTAuMywwLjktMC40LDEuNy0wLjRsMC44LDB2LTAuM2MwLTAuMy0wLjEtMC42LTAuMi0wLjdjLTAuMi0wLjEtMC40LTAuMi0wLjctMC4yYy0wLjIsMC0wLjUsMC0wLjcsMC4xJiMxMDsmIzk7cy0wLjUsMC4yLTAuNywwLjNsLTAuMy0wLjdjMC4yLTAuMSwwLjUtMC4yLDAuOC0wLjNDOTAuOCwzNi41LDkxLjEsMzYuNCw5MS40LDM2LjR6IE05Mi4zLDM5LjFsLTAuNiwwYy0wLjUsMC0wLjksMC4xLTEuMSwwLjMmIzEwOyYjOTtjLTAuMiwwLjItMC4zLDAuNC0wLjMsMC42YzAsMC4yLDAuMSwwLjQsMC4yLDAuNWMwLjEsMC4xLDAuMywwLjIsMC42LDAuMmMwLjQsMCwwLjctMC4xLDAuOS0wLjNjMC4yLTAuMiwwLjQtMC41LDAuNC0wLjlWMzkuMXomIzEwOyYjOTsgTTk2LjksMzYuNGMwLjUsMCwxLDAuMSwxLjMsMC40YzAuMywwLjMsMC41LDAuNywwLjUsMS40djMuMmgtMXYtM2MwLTAuNC0wLjEtMC43LTAuMi0wLjhjLTAuMi0wLjItMC40LTAuMy0wLjctMC4zJiMxMDsmIzk7Yy0wLjUsMC0wLjgsMC4xLTEsMC40Yy0wLjIsMC4zLTAuMywwLjctMC4zLDEuM3YyLjRoLTF2LTQuOWgwLjhsMC4xLDAuN2gwLjFjMC4xLTAuMiwwLjItMC4zLDAuNC0wLjRjMC4yLTAuMSwwLjMtMC4yLDAuNS0wLjMmIzEwOyYjOTtDOTYuNSwzNi41LDk2LjcsMzYuNCw5Ni45LDM2LjR6IiBjbGFzcz0ic3Q0Ii8+JiN4YTs8L3N2Zz4=;clipPath=inset(0% 70.67% 0% 0%);" vertex="1" parent="1">
          <mxGeometry x="999" y="241" width="76.86" height="46.29" as="geometry" />
        </mxCell>
        <mxCell id="CYtip8i-Iczx8UtMDEUg-27" value="Data subnet" style="text;strokeColor=none;align=left;fillColor=none;html=1;verticalAlign=middle;whiteSpace=wrap;rounded=0;fontStyle=1;fontSize=14;" vertex="1" parent="1">
          <mxGeometry x="275" y="90" width="115" height="30" as="geometry" />
        </mxCell>
        <mxCell id="CYtip8i-Iczx8UtMDEUg-29" value="ResDiary" style="image;aspect=fixed;html=1;points=[];align=center;fontSize=12;image=img/lib/azure2/compute/Function_Apps.svg;labelBackgroundColor=none;" vertex="1" parent="1">
          <mxGeometry x="682" y="335" width="61.2" height="54" as="geometry" />
        </mxCell>
        <mxCell id="CYtip8i-Iczx8UtMDEUg-48" value="" style="edgeStyle=none;rounded=0;orthogonalLoop=1;jettySize=auto;html=1;entryX=0.551;entryY=0.704;entryDx=0;entryDy=0;entryPerimeter=0;fillColor=#008a00;strokeColor=#005700;dashed=1;dashPattern=1 1;strokeWidth=2;opacity=30;" edge="1" parent="1" source="CYtip8i-Iczx8UtMDEUg-32" target="CYtip8i-Iczx8UtMDEUg-13">
          <mxGeometry relative="1" as="geometry" />
        </mxCell>
        <mxCell id="CYtip8i-Iczx8UtMDEUg-32" value="WhereData" style="image;aspect=fixed;html=1;points=[];align=center;fontSize=12;image=img/lib/azure2/compute/Function_Apps.svg;labelBackgroundColor=none;labelPosition=center;verticalLabelPosition=bottom;verticalAlign=top;" vertex="1" parent="1">
          <mxGeometry x="682" y="143" width="55.08" height="48.6" as="geometry" />
        </mxCell>
        <mxCell id="CYtip8i-Iczx8UtMDEUg-33" value="Functions subnet" style="text;strokeColor=none;align=left;fillColor=none;html=1;verticalAlign=middle;whiteSpace=wrap;rounded=0;fontStyle=1;fontSize=14;" vertex="1" parent="1">
          <mxGeometry x="644.54" y="88.60000000000002" width="130" height="30" as="geometry" />
        </mxCell>
        <mxCell id="CYtip8i-Iczx8UtMDEUg-34" value="Ingress subnet" style="text;strokeColor=none;align=left;fillColor=none;html=1;verticalAlign=middle;whiteSpace=wrap;rounded=0;fontStyle=1;fontSize=14;" vertex="1" parent="1">
          <mxGeometry x="452.5" y="90" width="110" height="30" as="geometry" />
        </mxCell>
        <mxCell id="CYtip8i-Iczx8UtMDEUg-46" value="" style="edgeStyle=none;rounded=0;orthogonalLoop=1;jettySize=auto;html=1;entryX=0.668;entryY=0.778;entryDx=0;entryDy=0;entryPerimeter=0;fillColor=#60a917;strokeColor=#2D7600;strokeWidth=2;dashed=1;dashPattern=1 1;" edge="1" parent="1" source="CYtip8i-Iczx8UtMDEUg-35" target="CYtip8i-Iczx8UtMDEUg-14">
          <mxGeometry relative="1" as="geometry" />
        </mxCell>
        <mxCell id="CYtip8i-Iczx8UtMDEUg-35" value="Logging API" style="image;aspect=fixed;html=1;points=[];align=center;fontSize=12;image=img/lib/azure2/containers/App_Services.svg;labelBackgroundColor=none;strokeWidth=1;" vertex="1" parent="1">
          <mxGeometry x="501.5" y="335" width="54" height="54" as="geometry" />
        </mxCell>
        <mxCell id="CYtip8i-Iczx8UtMDEUg-26" value="Oculos Virtual Network" style="text;strokeColor=none;align=center;fillColor=none;html=1;verticalAlign=middle;whiteSpace=wrap;rounded=0;fontStyle=1;fontSize=16;" vertex="1" parent="1">
          <mxGeometry x="100" y="30.454545454545453" width="190" height="31.36363636363636" as="geometry" />
        </mxCell>
        <mxCell id="CYtip8i-Iczx8UtMDEUg-36" value="Logs Data" style="image;aspect=fixed;html=1;points=[];align=center;fontSize=12;image=img/lib/azure2/databases/Azure_Cosmos_DB.svg;labelBackgroundColor=none;" vertex="1" parent="1">
          <mxGeometry x="308" y="330" width="64" height="64" as="geometry" />
        </mxCell>
        <mxCell id="CYtip8i-Iczx8UtMDEUg-37" value="Archive" style="shape=image;verticalLabelPosition=bottom;labelBackgroundColor=none;verticalAlign=top;aspect=fixed;imageAspect=0;image=data:image/svg+xml,PHN2ZyB4bWxuczpjYz0iaHR0cDovL2NyZWF0aXZlY29tbW9ucy5vcmcvbnMjIiB4bWxuczpkYz0iaHR0cDovL3B1cmwub3JnL2RjL2VsZW1lbnRzLzEuMS8iIHhtbG5zOmlua3NjYXBlPSJodHRwOi8vd3d3Lmlua3NjYXBlLm9yZy9uYW1lc3BhY2VzL2lua3NjYXBlIiB4bWxuczpyZGY9Imh0dHA6Ly93d3cudzMub3JnLzE5OTkvMDIvMjItcmRmLXN5bnRheC1ucyMiIHhtbG5zOnNvZGlwb2RpPSJodHRwOi8vc29kaXBvZGkuc291cmNlZm9yZ2UubmV0L0RURC9zb2RpcG9kaS0wLmR0ZCIgeG1sbnM6c3ZnPSJodHRwOi8vd3d3LnczLm9yZy8yMDAwL3N2ZyIgeG1sbnM9Imh0dHA6Ly93d3cudzMub3JnLzIwMDAvc3ZnIiB4bWxuczp4bGluaz0iaHR0cDovL3d3dy53My5vcmcvMTk5OS94bGluayIgdmVyc2lvbj0iMS4xIiBpZD0ic3ZnMTA5Mjk0IiBpbmtzY2FwZTp2ZXJzaW9uPSIwLjkyLjMgKDI0MDU1NDYsIDIwMTgtMDMtMTEpIiBzb2RpcG9kaTpkb2NuYW1lPSJhenVyZV9ibG9iX3N0b3JhZ2Uuc3ZnIiB4PSIwcHgiIHk9IjBweCIgdmlld0JveD0iMCAwIDc2LjQyIDY2LjMiIHN0eWxlPSJlbmFibGUtYmFja2dyb3VuZDpuZXcgMCAwIDc2LjQyIDY2LjM7IiB4bWw6c3BhY2U9InByZXNlcnZlIj4mI3hhOzxzb2RpcG9kaTpuYW1lZHZpZXcgYm9yZGVyY29sb3I9IiM2NjY2NjYiIGJvcmRlcm9wYWNpdHk9IjEiIGZpdC1tYXJnaW4tYm90dG9tPSIwIiBmaXQtbWFyZ2luLWxlZnQ9IjAiIGZpdC1tYXJnaW4tcmlnaHQ9IjAiIGZpdC1tYXJnaW4tdG9wPSIwIiBncmlkdG9sZXJhbmNlPSIxMCIgZ3VpZGV0b2xlcmFuY2U9IjEwIiBpZD0ibmFtZWR2aWV3MTA5Mjk2IiBpbmtzY2FwZTpjdXJyZW50LWxheWVyPSJzdmcxMDkyOTQiIGlua3NjYXBlOmN4PSI1MC45NDUxOTMiIGlua3NjYXBlOmN5PSI0NC4xOTk1NTEiIGlua3NjYXBlOnBhZ2VvcGFjaXR5PSIwIiBpbmtzY2FwZTpwYWdlc2hhZG93PSIyIiBpbmtzY2FwZTp3aW5kb3ctaGVpZ2h0PSIxMDE3IiBpbmtzY2FwZTp3aW5kb3ctbWF4aW1pemVkPSIxIiBpbmtzY2FwZTp3aW5kb3ctd2lkdGg9IjE5MjAiIGlua3NjYXBlOndpbmRvdy14PSItOCIgaW5rc2NhcGU6d2luZG93LXk9Ii04IiBpbmtzY2FwZTp6b29tPSI4Ljc0NjA0MTEiIG9iamVjdHRvbGVyYW5jZT0iMTAiIHBhZ2Vjb2xvcj0iI2ZmZmZmZiIgc2hvd2dyaWQ9ImZhbHNlIj4mI3hhOwk8L3NvZGlwb2RpOm5hbWVkdmlldz4mI3hhOzxnIGlkPSJnMTA5MjkyIiB0cmFuc2Zvcm09InRyYW5zbGF0ZSgtNC4wMjYzMiwtNC4wMjM4NzY1KSI+JiN4YTsJPHRpdGxlIGlkPSJ0aXRsZTEwOTI2NCI+UGFnZS0xPC90aXRsZT4mI3hhOwk8ZyBpZD0iZ3JvdXAyNjQtMSIgdHJhbnNmb3JtPSJ0cmFuc2xhdGUoNC4wMjYzMiwtNC4wMjYzMikiPiYjeGE7CQk8dGl0bGUgaWQ9InRpdGxlMTA5MjY2Ij5BenVyZSBCbG9iIFN0b3JhZ2UgKERlcHJlY2F0ZWQpPC90aXRsZT4mI3hhOwkJPGcgaWQ9Imdyb3VwMjY1LTIiPiYjeGE7CQkJPHRpdGxlIGlkPSJ0aXRsZTEwOTI2OCI+U2hlZXQuMjY1PC90aXRsZT4mI3hhOwkJCTxnIGlkPSJzaGFwZTI2Ni0zIj4mI3hhOwkJCQk8dGl0bGUgaWQ9InRpdGxlMTA5MjcwIj5TaGVldC4yNjY8L3RpdGxlPiYjeGE7CQkJCTxwYXRoIGlkPSJwYXRoMTA5MjcyIiBpbmtzY2FwZTpjb25uZWN0b3ItY3VydmF0dXJlPSIwIiBzdHlsZT0iZmlsbDojMDA3OEQ3OyIgZD0iTTU3LjM2LDguMDVIMTkuMDVMMCw0MS4ybDE5LjA1LDMzLjE1aDM4LjMxICAgICAgTDc2LjQyLDQxLjJMNTcuMzYsOC4wNXogTTU3LjU2LDU2LjA5YzAsMi43OC0yLjM4LDUuMTYtNS4xNiw1LjE2SDI0LjIyYy0yLjc4LDAtNS4xNy0yLjM4LTUuMTctNS4xNlYyNi41MSAgICAgIGMwLTIuNzgsMi4zOS01LjE2LDUuMTctNS4xNmgyMC44NGMxLjk4LDAsMy45NywwLDMuOTcsMGgwLjU5bDcuOTQsNy45NHY0LjE3TDU3LjU2LDU2LjA5eiIvPiYjeGE7CQkJPC9nPiYjeGE7CQkJPGcgaWQ9InNoYXBlMjY3LTUiIHRyYW5zZm9ybT0idHJhbnNsYXRlKDMyLjE1NTEsLTIxLjQzNjgpIj4mI3hhOwkJCQk8dGl0bGUgaWQ9InRpdGxlMTA5Mjc1Ij5TaGVldC4yNjc8L3RpdGxlPiYjeGE7CQkJCTxwYXRoIGlkPSJwYXRoMTA5Mjc3IiBpbmtzY2FwZTpjb25uZWN0b3ItY3VydmF0dXJlPSIwIiBzdHlsZT0iZmlsbDojMDA3OEQ3OyIgZD0iTTMuMTgsNjhjMC0wLjQtMC4yLTAuNi0wLjItMC44ICAgICAgYzAtMC4yLTAuMi0wLjM5LTAuNC0wLjU5cy0wLjItMC4yLTAuNC0wLjJzLTAuMzksMC0wLjU5LDBjLTAuNCwwLTAuNiwwLTAuOCwwLjJDMC42LDY2LjgxLDAuNCw2NywwLjIsNjcuNFMwLDY4LjE5LDAsNjguNTkgICAgICBjMCwwLjQsMCwwLjk5LDAsMS43OWMwLDAuNzksMCwxLjM5LDAsMS45OGMwLDAuNiwwLjIsMSwwLjQsMS4xOWMwLjIsMC40LDAuMzksMC42LDAuNTksMC42YzAuMiwwLjIsMC40LDAuMiwwLjgsMC4yICAgICAgYzAuMTksMCwwLjM5LDAsMC41OS0wLjJjMC4yLDAsMC40LTAuMiwwLjQtMC40YzAuMi0wLjIsMC4yLTAuMzksMC40LTAuNTljMC0wLjIsMC4xOS0wLjQsMC4xOS0wLjhjMC0wLjIsMC0wLjU5LDAuMi0wLjk5ICAgICAgYzAtMC40LDAtMC43OSwwLTEuMTljMC0wLjYsMC0wLjk5LDAtMS4zOUMzLjE4LDY4LjU5LDMuMTgsNjguMzksMy4xOCw2OHoiLz4mI3hhOwkJCTwvZz4mI3hhOwkJCTxnIGlkPSJzaGFwZTI2OC03IiB0cmFuc2Zvcm09InRyYW5zbGF0ZSg0MS4wODcxLC0zNi45MTg5KSI+JiN4YTsJCQkJPHRpdGxlIGlkPSJ0aXRsZTEwOTI4MCI+U2hlZXQuMjY4PC90aXRsZT4mI3hhOwkJCQk8cGF0aCBpZD0icGF0aDEwOTI4MiIgaW5rc2NhcGU6Y29ubmVjdG9yLWN1cnZhdHVyZT0iMCIgc3R5bGU9ImZpbGw6IzAwNzhENzsiIGQ9Ik0zLjE4LDY4YzAtMC40LTAuMi0wLjYtMC4yLTAuOCAgICAgIGMwLTAuMi0wLjItMC4zOS0wLjQtMC41OXMtMC4yLTAuMi0wLjQtMC4ycy0wLjM5LDAtMC41OSwwYy0wLjQsMC0wLjYsMC0wLjgsMC4yQzAuNiw2Ni44MSwwLjQsNjcsMC4yLDY3LjRTMCw2OC4xOSwwLDY4LjU5ICAgICAgYzAsMC40LDAsMC45OSwwLDEuNzljMCwwLjc5LDAsMS4zOSwwLDEuOThjMCwwLjYsMC4yLDEsMC40LDEuMTljMC4yLDAuNCwwLjM5LDAuNiwwLjU5LDAuNmMwLjIsMC4yLDAuNCwwLjIsMC44LDAuMiAgICAgIGMwLjE5LDAsMC4zOSwwLDAuNTktMC4yYzAuMiwwLDAuNC0wLjIsMC40LTAuNGMwLjItMC4yLDAuMi0wLjM5LDAuNC0wLjU5YzAtMC4yLDAuMTktMC40LDAuMTktMC44YzAtMC4yLDAtMC41OSwwLjItMC45OSAgICAgIGMwLTAuNCwwLTAuNzksMC0xLjE5YzAtMC42LDAtMC45OSwwLTEuMzlDMy4zNyw2OC43OSwzLjM3LDY4LjM5LDMuMTgsNjh6Ii8+JiN4YTsJCQk8L2c+JiN4YTsJCQk8ZyBpZD0ic2hhcGUyNjktOSIgdHJhbnNmb3JtPSJ0cmFuc2xhdGUoMjEuODMzNywtMTUuODc5MSkiPiYjeGE7CQkJCTx0aXRsZSBpZD0idGl0bGUxMDkyODUiPlNoZWV0LjI2OTwvdGl0bGU+JiN4YTsJCQkJPHBhdGggaWQ9InBhdGgxMDkyODciIGlua3NjYXBlOmNvbm5lY3Rvci1jdXJ2YXR1cmU9IjAiIHN0eWxlPSJmaWxsOiMwMDc4RDc7IiBkPSJNMjYuNCw0MC4wMWMtMC43OSwwLTEuOTksMC0zLjE4LDBIMi4zOCAgICAgIEMwLjk5LDQwLjAxLDAsNDEsMCw0Mi4zOXYyOS41OGMwLDEuMzksMC45OSwyLjM4LDIuMzgsMi4zOGgyOC4xOWMxLjE5LDAsMi4zOC0wLjk5LDIuMzgtMi4zOFY0Ni41NkgyNi42di02LjU1SDI2LjR6ICAgICAgIE04LjczLDQ1Ljk2di0wLjE5di0wLjJjMCwwLDAsMCwwLjItMC4ybDIuMzgtMS41OWMwLDAsMCwwLDAuMiwwaDAuMmgwLjJjMC4yLDAsMC4yLDAsMC40LDBjMC4xOSwwLDAuMzksMCwwLjU5LDBzMC4yLDAsMC40LDAgICAgICBoMC4yYzAsMCwwLDAsMCwwLjJ2OS4zM2gxLjc4aDAuMmMwLDAsMCwwLDAuMiwwLjJjMC4yLDAuMTksMCwwLjE5LDAsMC4xOWMwLDAuMiwwLDAuMiwwLDAuNHMwLDAuNCwwLDAuNGMwLDAuMiwwLDAuMiwwLDAuMiAgICAgIHMwLDAuMi0wLjIsMC4yYzAsMCwwLDAtMC4yLDBIOS4xM2MwLDAsMCwwLTAuMiwwYzAsMCwwLDAtMC4yLTAuMnYtMC4yYzAtMC4yLDAtMC4yLDAtMC40czAtMC40LDAtMC40YzAtMC4xOSwwLTAuMTksMC0wLjE5ICAgICAgczAtMC4yLDAuMi0wLjJjMCwwLDAsMCwwLjIsMGgyLjE4di03LjM1bC0xLjc4LDFjLTAuMiwwLTAuMiwwLjE5LTAuNCwwLjE5aC0wLjJjMCwwLDAtMC4xOS0wLjItMC4xOWMwLTAuMiwwLTAuMiwwLTAuNiAgICAgIEM4LjczLDQ2LjE2LDguNzMsNDUuOTYsOC43Myw0NS45NnogTTE1LjY4LDY3LjJjLTAuMiwwLjgtMC40LDEuMzktMC43OSwxLjc5Yy0wLjQsMC41OS0wLjgsMC45OS0xLjE5LDEuMTkgICAgICBjLTAuNiwwLjItMS4yLDAuNC0xLjk5LDAuNHMtMS4zOS0wLjItMS45OC0wLjRjLTAuNi0wLjItMS0wLjYtMS4xOS0xLjE5Yy0wLjItMC42LTAuNi0xLjE5LTAuNi0xLjc5ICAgICAgYy0wLjItMC43OS0wLjItMS41OS0wLjItMi4zOGMwLTAuOTksMC0xLjc5LDAuMi0yLjM4YzAuMi0wLjgsMC40LTEuMzksMC43OS0xLjc5YzAuNC0wLjM5LDAuOC0wLjk5LDEuMTktMS4xOSAgICAgIGMwLjYtMC4yLDEuMi0wLjQsMS45OS0wLjRzMS4zOSwwLjIsMS45OCwwLjRjMC42LDAuMiwxLDAuNiwxLjIsMS4xOWMwLjE5LDAuNiwwLjU5LDEuMTksMC41OSwxLjc5YzAuMiwwLjc5LDAuMiwxLjU5LDAuMiwyLjM4ICAgICAgQzE1Ljg4LDY1LjgxLDE1Ljg4LDY2LjYxLDE1LjY4LDY3LjJ6IE0yNC42MSw2OS45OGMwLDAuMiwwLDAuMiwwLDAuMnMwLDAuMi0wLjIsMC4yYzAsMCwwLDAtMC4xOSwwaC02LjE2YzAsMCwwLDAtMC4yLDAgICAgICBjMCwwLDAsMC0wLjE5LTAuMnYtMC4yYzAtMC4yLDAtMC4yLDAtMC40YzAtMC4xOSwwLTAuMzksMC0wLjM5YzAtMC4yLDAtMC4yLDAtMC4yczAtMC4yLDAuMTktMC4yYzAsMCwwLDAsMC4yLDBoMi4xOXYtNy4zNCAgICAgIGwtMS43OSwwLjk5Yy0wLjIsMC0wLjIsMC4yLTAuNCwwLjJoLTAuMmMwLDAsMC0wLjItMC4xOS0wLjJjMC0wLjIsMC0wLjIsMC0wLjZjMC0wLjIsMC0wLjIsMC0wLjM5di0wLjJ2LTAuMmMwLDAsMCwwLDAuMTktMC4yICAgICAgbDIuMzktMS41OWMwLDAsMCwwLDAuMTksMGgwLjJoMC4yYzAuMiwwLDAuMiwwLDAuNCwwYzAuMiwwLDAuNCwwLDAuNTksMGMwLjIsMCwwLjIsMCwwLjQsMGgwLjJjMCwwLDAsMCwwLDAuMnY5LjMzaDEuNzloMC4xOSAgICAgIGMwLDAsMCwwLDAuMiwwLjJ2MC4yYzAsMC4yLDAsMC4yLDAsMC4zOUMyNC42MSw2OS43OCwyNC42MSw2OS45OCwyNC42MSw2OS45OHogTTI0LjgxLDUxLjcyYy0wLjIsMC43OS0wLjQsMS4zOS0wLjc5LDEuNzkgICAgICBjLTAuNCwwLjU5LTAuOCwwLjk5LTEuMTksMS4xOWMtMC42LDAuMi0xLjE5LDAuMzktMS45OSwwLjM5Yy0wLjc5LDAtMS4zOS0wLjE5LTEuOTgtMC4zOWMtMC42LTAuMi0xLTAuNi0xLjE5LTEuMTkgICAgICBjLTAuMi0wLjQtMC42LTEuMTktMC42LTEuNzljMC0wLjYtMC4yLTEuNTktMC4yLTIuMzhjMC0wLjk5LDAtMS43OSwwLjItMi4zOGMwLjItMC44LDAuNC0xLjM5LDAuNzktMS43OSAgICAgIGMwLjQtMC42LDAuOC0wLjk5LDEuMTktMS4xOWMwLjYtMC4yLDEuMi0wLjQsMS45OS0wLjRjMC43OSwwLDEuMzksMC4yLDEuOTgsMC40YzAuNiwwLjIsMSwwLjU5LDEuMiwxLjE5ICAgICAgYzAuMTksMC42LDAuNTksMS4xOSwwLjU5LDEuNzljMC4yLDAuNzksMC4yLDEuNTgsMC4yLDIuMzhDMjUuMDEsNTAuMzMsMjQuODEsNTEuMTIsMjQuODEsNTEuNzJ6Ii8+JiN4YTsJCQk8L2c+JiN4YTsJCTwvZz4mI3hhOwk8L2c+JiN4YTs8L2c+JiN4YTs8L3N2Zz4=;" vertex="1" parent="1">
          <mxGeometry x="307" y="140" width="66.79" height="58" as="geometry" />
        </mxCell>
        <mxCell id="CYtip8i-Iczx8UtMDEUg-45" value="" style="edgeStyle=none;rounded=0;orthogonalLoop=1;jettySize=auto;html=1;entryX=0.653;entryY=0.497;entryDx=0;entryDy=0;entryPerimeter=0;startArrow=classicThin;startFill=1;fillColor=#e51400;strokeColor=#B20000;strokeWidth=2;" edge="1" parent="1" source="CYtip8i-Iczx8UtMDEUg-38" target="CYtip8i-Iczx8UtMDEUg-14">
          <mxGeometry relative="1" as="geometry" />
        </mxCell>
        <mxCell id="CYtip8i-Iczx8UtMDEUg-47" value="" style="edgeStyle=none;rounded=0;orthogonalLoop=1;jettySize=auto;html=1;fillColor=#008a00;strokeColor=#005700;strokeWidth=2;dashed=1;dashPattern=1 1;opacity=30;" edge="1" parent="1" source="CYtip8i-Iczx8UtMDEUg-38" target="CYtip8i-Iczx8UtMDEUg-35">
          <mxGeometry relative="1" as="geometry" />
        </mxCell>
        <mxCell id="CYtip8i-Iczx8UtMDEUg-38" value="Ingress API" style="image;aspect=fixed;html=1;points=[];align=center;fontSize=12;image=img/lib/azure2/containers/App_Services.svg;labelBackgroundColor=none;labelPosition=center;verticalLabelPosition=bottom;verticalAlign=top;" vertex="1" parent="1">
          <mxGeometry x="500" y="237" width="54" height="54" as="geometry" />
        </mxCell>
        <mxCell id="CYtip8i-Iczx8UtMDEUg-39" style="edgeStyle=none;rounded=0;orthogonalLoop=1;jettySize=auto;html=1;entryX=0.892;entryY=0.495;entryDx=0;entryDy=0;entryPerimeter=0;strokeWidth=2;strokeColor=#B20000;startArrow=classicThin;startFill=1;fillColor=#e51400;" edge="1" parent="1" source="CYtip8i-Iczx8UtMDEUg-32" target="CYtip8i-Iczx8UtMDEUg-13">
          <mxGeometry relative="1" as="geometry" />
        </mxCell>
        <mxCell id="CYtip8i-Iczx8UtMDEUg-40" style="edgeStyle=none;rounded=0;orthogonalLoop=1;jettySize=auto;html=1;entryX=0.895;entryY=0.556;entryDx=0;entryDy=0;entryPerimeter=0;strokeWidth=2;strokeColor=#B20000;startArrow=classicThin;startFill=1;fillColor=#e51400;" edge="1" parent="1" source="CYtip8i-Iczx8UtMDEUg-29" target="CYtip8i-Iczx8UtMDEUg-13">
          <mxGeometry relative="1" as="geometry" />
        </mxCell>
        <mxCell id="CYtip8i-Iczx8UtMDEUg-41" style="edgeStyle=elbowEdgeStyle;rounded=0;orthogonalLoop=1;jettySize=auto;html=1;entryX=0.291;entryY=0.221;entryDx=0;entryDy=0;entryPerimeter=0;strokeWidth=2;fillColor=#e51400;strokeColor=#B20000;exitX=0.649;exitY=0.499;exitDx=0;exitDy=0;exitPerimeter=0;" edge="1" parent="1" source="CYtip8i-Iczx8UtMDEUg-17" target="CYtip8i-Iczx8UtMDEUg-15">
          <mxGeometry relative="1" as="geometry">
            <Array as="points">
              <mxPoint x="650" y="220" />
            </Array>
          </mxGeometry>
        </mxCell>
        <mxCell id="CYtip8i-Iczx8UtMDEUg-42" style="edgeStyle=elbowEdgeStyle;rounded=0;orthogonalLoop=1;jettySize=auto;html=1;entryX=0.3;entryY=0.778;entryDx=0;entryDy=0;entryPerimeter=0;strokeWidth=2;fillColor=#e51400;strokeColor=#B20000;" edge="1" parent="1" source="CYtip8i-Iczx8UtMDEUg-38" target="CYtip8i-Iczx8UtMDEUg-15">
          <mxGeometry relative="1" as="geometry">
            <Array as="points">
              <mxPoint x="650" y="320" />
            </Array>
          </mxGeometry>
        </mxCell>
        <mxCell id="CYtip8i-Iczx8UtMDEUg-43" style="edgeStyle=elbowEdgeStyle;rounded=0;orthogonalLoop=1;jettySize=auto;html=1;entryX=0.287;entryY=0.5;entryDx=0;entryDy=0;entryPerimeter=0;strokeWidth=2;fillColor=#e51400;strokeColor=#B20000;exitX=0.645;exitY=0.498;exitDx=0;exitDy=0;exitPerimeter=0;startArrow=classicThin;startFill=1;" edge="1" parent="1" source="CYtip8i-Iczx8UtMDEUg-17" target="CYtip8i-Iczx8UtMDEUg-15">
          <mxGeometry relative="1" as="geometry" />
        </mxCell>
        <mxCell id="CYtip8i-Iczx8UtMDEUg-49" value="" style="edgeStyle=none;rounded=0;orthogonalLoop=1;jettySize=auto;html=1;entryX=0.667;entryY=0.773;entryDx=0;entryDy=0;entryPerimeter=0;fillColor=#008a00;strokeColor=#005700;dashed=1;dashPattern=1 1;strokeWidth=2;opacity=30;exitX=0.313;exitY=0.549;exitDx=0;exitDy=0;exitPerimeter=0;" edge="1" parent="1" source="CYtip8i-Iczx8UtMDEUg-15" target="CYtip8i-Iczx8UtMDEUg-17">
          <mxGeometry relative="1" as="geometry">
            <mxPoint x="698" y="202" as="sourcePoint" />
            <mxPoint x="563" y="354" as="targetPoint" />
          </mxGeometry>
        </mxCell>
        <mxCell id="CYtip8i-Iczx8UtMDEUg-50" value="" style="edgeStyle=none;rounded=0;orthogonalLoop=1;jettySize=auto;html=1;entryX=0.681;entryY=0.81;entryDx=0;entryDy=0;entryPerimeter=0;fillColor=#008a00;strokeColor=#005700;dashed=1;dashPattern=1 1;strokeWidth=2;opacity=30;exitX=0.299;exitY=0.821;exitDx=0;exitDy=0;exitPerimeter=0;" edge="1" parent="1" source="CYtip8i-Iczx8UtMDEUg-15" target="CYtip8i-Iczx8UtMDEUg-17">
          <mxGeometry relative="1" as="geometry">
            <mxPoint x="708" y="212" as="sourcePoint" />
            <mxPoint x="573" y="364" as="targetPoint" />
          </mxGeometry>
        </mxCell>
        <mxCell id="CYtip8i-Iczx8UtMDEUg-53" value="Prediction Engine" style="sketch=0;outlineConnect=0;fontColor=#232F3E;gradientColor=none;fillColor=#8C4FFF;strokeColor=none;dashed=0;verticalLabelPosition=bottom;verticalAlign=top;align=center;html=1;fontSize=12;fontStyle=0;aspect=fixed;pointerEvents=1;shape=mxgraph.aws4.emr_engine;" vertex="1" parent="1">
          <mxGeometry x="130" y="233" width="78" height="59" as="geometry" />
        </mxCell>
        <mxCell id="CYtip8i-Iczx8UtMDEUg-54" style="edgeStyle=elbowEdgeStyle;rounded=0;orthogonalLoop=1;jettySize=auto;html=1;entryX=0.267;entryY=0.327;entryDx=0;entryDy=0;entryPerimeter=0;strokeWidth=2;fillColor=#6a00ff;strokeColor=#9933FF;" edge="1" parent="1" source="CYtip8i-Iczx8UtMDEUg-53" target="CYtip8i-Iczx8UtMDEUg-13">
          <mxGeometry relative="1" as="geometry">
            <Array as="points">
              <mxPoint x="240" y="220" />
            </Array>
          </mxGeometry>
        </mxCell>
        <mxCell id="CYtip8i-Iczx8UtMDEUg-55" style="edgeStyle=none;rounded=0;orthogonalLoop=1;jettySize=auto;html=1;entryX=0.277;entryY=0.528;entryDx=0;entryDy=0;entryPerimeter=0;strokeWidth=2;fillColor=#6a00ff;strokeColor=#9933FF;" edge="1" parent="1" source="CYtip8i-Iczx8UtMDEUg-53" target="CYtip8i-Iczx8UtMDEUg-13">
          <mxGeometry relative="1" as="geometry" />
        </mxCell>
        <mxCell id="CYtip8i-Iczx8UtMDEUg-57" value="WhereData" style="shape=image;verticalLabelPosition=bottom;labelBackgroundColor=default;verticalAlign=top;aspect=fixed;imageAspect=0;image=data:image/png,iVBORw0KGgoAAAANSUhEUgAABLAAAAF3CAYAAAC19LJkAAAAAXNSR0IArs4c6QAAIABJREFUeF7s3QdYFNf+PvAzM7tLl95RLKiIxoYxtij2KHaDsSQqdhM1FmzxxhajRhN7iTFGo2gMxBa7EcUevTG2iEbFKIKo9LLALjsz//9Zd7zEXzQwu8ACL8+T3BvdnTnnc84szMs532EIviAAAQhAAAIQgAAEIAABCEAAAhCAAAQgYMYCjBm3DU2DAAQgAAEIQAACEIAABCAAAQhAAAIQgABBgIVJAAEIQAACEIAABCAAAQhAAAIQgAAEIGDWAgiwzHp40DgIQAACEIAABCAAAQhAAAIQgAAEIAABBFiYAxCAAAQgAAEIQAACEIAABCAAAQhAAAJmLYAAy6yHB42DAAQgAAEIQAACEIAABCAAAQhAAAIQQICFOQABCEAAAhCAAAQgAAEIQAACEIAABCBg1gIIsMx6eNA4CEAAAhCAAAQgAAEIQAACEIAABCAAAQRYmAMQgAAEIAABCEAAAhCAAAQgAAEIQAACZi2AAMushweNgwAEIAABCEAAAhCAAAQgAAEIQAACEECAhTkAAQhAAAIQgAAEIAABCEAAAhCAAAQgYNYCCLDMenjQOAhAAAIQgAAEIAABCEAAAhCAAAQgAAEEWJgDEIAABCAAAQhAAAIQgAAEIAABCEAAAmYtgADLrIcHjYMABCAAAQhAAAIQgAAEIAABCEAAAhBAgIU5AAEIQAACEIAABCAAAQhAAAIQgAAEIGDWAgiwzHp40DgIQAACEIAABCAAAQhAAAIQgAAEIAABBFiYAxCAAAQgAAEIQAACEIAABCAAAQhAAAJmLYAAy6yHB42DAAQgAAEIQAACEIAABCAAAQhAAAIQQICFOQABCEAAAhCAAAQgAAEIQAACEIAABCBg1gIIsMx6eNA4CEAAAhCAAAQgAAEIQAACEIAABCAAAQRYmAMQgAAEIAABCEAAAhCAAAQgAAEIQAACZi2AAMushweNgwAEIAABCEAAAhCAAAQgAAEIQAACEECAhTkAAQhAAAIQgAAEIAABCEAAAhCAAAQgYNYCCLDMenjQOAhAAAIQgAAEIAABCEAAAhCAAAQgAAEEWJgDEIAABCAAAQhAAAIQgAAEIAABCEAAAmYtgADLrIcHjYMABCAAAQhAAAIQgAAEIAABCEAAAhBAgIU5AAEIQAACEIAABCAAAQhAAAIQgAAEIGDWAgiwzHp40DgIQAACEIAABCAAAQhAAAIQgAAEIAABBFiYAxCAAAQgAAEIQAACEIAABCAAAQhAAAJmLYAAy6yHB42DAAQgAAEIQAACEIAABCAAAQhAAAIQQICFOQABCEAAAhCAAAQgAAEIQAACEIAABCBg1gIIsMx6eNA4CEAAAhCAAAQgAAEIQAACEIAABCAAAQRYmAMQgAAEIAABCEAAAhCAAAQgAAEIQAACZi2AAMushweNgwAEIAABCEAAAhCAAAQgAAEIQAACEECAhTkAAQhAAAIQgAAEIAABCEAAAhCAAAQgYNYCCLDMenjQOAhAAAIQgAAEIAABCEAAAhCAAAQgAAEEWJgDEIAABCAAAQhAAAIQgAAEIAABCEAAAmYtgADLrIcHjYMABCAAAQhAAAIQgAAEIAABCEAAAhBAgIU5AAEIQAACEIAABCAAAQhAAAIQgAAEIGDWAgiwzHp40DgIQAACEIAABCAAAQhAAAIQgAAEIAABBFiYAxCAAAQgAAEIQAACEIAABCAAAQhAAAJmLYAAy6yHB42DAAQgAAEIQAACEIAABCAAAQhAAAIQQICFOVBmBERRfNV8fd08Fl/VQYZhXvl3ZQYFDYUABCAAAQhAAAIQgAAEIAABCFQAAQRYFWCQy2oXRVFkCSHSHBUZhhFM1RdDGEaPXSzHN1U7cRwIQAACEIAABCAAAQhAAAIQgAAE/nfzDgsIlKgADZAKroAqEFbRVVH6UOncuXPWN2/etEhJSRG1Wq3SwsLCU6PRWGVmZhKdTkcEQWBYlhXd3d39lUqlFyHEimEYzhBOaXmez1Sr1TdSUlLSlUolDcOIQqEgDg4OoqWlZS7DMI/VarXg6elJqlevnt+hQ4fsAghSOwSpnS+3uUTBcDIIQAACEIAABCAAAQhAAAIQgEAFFsAKrAo8+CXddSkAKrD6idBVVXfv3rWIjY2tHBcXZxEfH+/1xx9/VE9JSRGcnJwaZGZmVlWr1bwgCHZ5eXl10tPTVTk5OYwgPF+MxTAMycvLs+V5XiGK/9sRSP+c/reVlZWa4zittP2QZVlibW1NQ6xcS0vL6yzL5ltaWjKVKlV6lpKScon+Xc2aNdP9/f3veHl58R07doy3t7dPLdhmQoj+RNiCWNIzCOeDAAQgAAEIQAACEIAABCAAgYoqgACroo58CfRbCo0KrmCip01MTLRKTEz0jYmJ8dm/f3+nu3fv2ubm5gZkZWXZcBznrFarXbRaLcnPz7fgeZ6TgqrX1cB6VZhUMNR6ucsF2kU4jhMUCkUex3HExsYml2XZx0qlUnR2dv5TpVIlBAYGPmrTps2Fhg0bpvj5+d37hxVk+msJoVYJTCycAgIQgAAEIAABCEAAAhCAAAQqnAACrAo35MXfYVEU9aGTYaWSfiteYmJi5Zs3b1Y7depUp19++aX5vXv3/LKysuwYhrHR6XT6WlQ0PDJ8MTR40u8xLLCqqrhb/lL4JNJVXvT8LMsKdKWWIAgad3f3VH9//1uBgYFX2rZte65Bgwa3PTw8HhZom36rIiHkxdbD4m43jg8BCEAAAhCAAAQgAAEIQAACECjvAgiwyvsIl2D/DCuk2GPHjln+9ttvtoQQ74yMjBZxcXEdr1+/HnD37t1qPM+z9HUKhULgOFquSqT/0gdF5vpFtyPScItud8zPz6fbF2lIJdJ6Wv7+/n/5+/tfr1GjxmlbW9sLycnJD0NDQzPr16+vMYRYJis8b64+aBcEIAABCEAAAhCAAAQgAAEIQKC4BRBgFbdwOT3+P2znU+3fv98vIiLC/+nTp82zs7MDnz17ViU+Pr46z/P6dIoWXKdhEP2iRdvNObR61bAZgix9f2j7eZ7Xd0ipVAoeHh4JHh4e8VZWVr+6uLhc7dWr14327dvfdXd3z2MYhn95S2U5nRroFgQgAAEIQAACEIAABCAAAQhAwOQCCLBMTlr+D1ggvGLi4uLs9+7d2zgyMrLv48eP31Sr1b6ZmZlO0rbA52Wh6E5AsVzONUMgR7cb0v7RgE6kQZ2dnV2mra3to0qVKt3q27fv4aCgoPNeXl5xfn5+WmmGoF5W+b9W0EMIQAACEIAABCAAAQhAAAIQMI1AuQwVTEODoxQUkJ7CR7fR0dVTN27cqHXy5MnO4eHhg27dulVVo9E4GepY0TBHv02wogoaQiyBhlrUgeO4HHd39+Tg4OCo4cOHr2vcuPFtQkiOwYcGfNhmWFEnC/oNAQhAAAIQgAAEIAABCEAAAoUSqLAhQ6F08CK6TU5fYD0mJkYRFRVln5GR8VZsbGwvGl7Fx8d7G+pZSVvqMJ9emjOG+lkC3WrI8zxxcHDIaNiw4c3GjRvvsre3P9agQYO4Hj16qA1v06/gwrSDAAQgAAEIQAACEIAABCAAAQhA4O8CCBwwI/6PQMHVUzExMcojR47UOXHiRNvMzMwOd+7ceTslJcWOvokWYTcUNIdiIQTo0wzpqiz6dEOVSsX7+fndd3FxifLx8Tnev3//8127dn1meHKjvmh8IQ6Jl0AAAhCAAAQgAAEIQAACEIAABCqEAAKsCjHMheuktNrKEKJwUVFRAV999VW/mJiYrunp6bXVarUlXY3FsvQhfIRujyvcgfGqvwkYaoJJfyY4OjklOTs5XezRu/dPI4cNO1WjRo0Ewxi8qKsFQghAAAIQgAAEIAABCEAAAhCAQEUWQIBVkUe/QN8LhFfMwYMHG+7Zs2fovn37umdkZHgyDKOgDxFEYFU8k8UQaPEMw2h8fHwehYaGhvfp02dbQEDAI+pOCBGwIqt47HFUCEAAAhCAAAQgAAEIQAACECgbAgiwysY4FWsraXh14cIFy4iIiDo5OTmhhw4dei8hIcFVqVQKdLWVoSh7sbahoh+cPrmQhlQ6nY5uzST16tW7165du40cx+0dPXp0fNWqVTUIsSr6LEH/IQABCEAAAhCAAAQgAAEIVFwBBFgVdOylFVf37t1T/vDDDwFRUVHd//rrr5EJCQne9LF4NFCpyE8SLK1pQYu+U3jD0wvFOnXq3KpcufKOtm3b/ty6devbgYGBOto2hFmlNUI4LwQgAAEIQAACEIAABCAAAQiUhgACrNJQL8VzFgilmCtXrvgvXrx4wLlz57qlpaXVzs/Pt6DhFYKrUhwgw6lpkEXrYNEvS0tLjaur683OnTtHzJgx49sqVaqkI8Qq/TFCCyAAAQhAAAIQgAAEIAABCECg5AQQYJWcdamfSRRFjoYiT58+tVqxYsWYbdu2TUhKSvIghNAaVwiuSn2E/rkBhtVWAiFEV7t27cvjxo1bO2rUqH2EkJzni7EY+nf4ggAEIAABCEAAAhCAAAQgAAEIlFsBBFjldmj/3jGpztWxY8eaX7x4cdqZM2daazSaMr3iihaVN6xUop2lNaT+cTTLy4oyGmTxPE/s7OzyWrduvcvZ2XnR559//sDT0zMXWworyIWMbkIAAhCAAAQgAAEIQAACEKigAgiwyvHAF3iyoGL27NlvREdH93z48GEorXPFcZxobquuaAgjhVA0nJL+oUNkqA1FaFF5GlbRf9H/r1QqGYVCoeM4LlupVGb+w3AqtFqti06nU+bn5zM8z4uCIEjHo/P/b7W+6Hmkf/Qnet4Os7lODE8spIX1iZ+f3/3KlStve/fdd3eMHj36L/q0QkOQp/fBFwQgAAEIQAACEIAABCAAAQhAoLwImM2NeXkBNZd+SOHVsWPHrA4dOjTk8OHDQ+Pi4urzPK8ytNEsxt4QFgk0kBEE4W9tsrS0JN7e3n8plcpsGxsb1tXVNVWn012gW+ZUKhWxtrYmtra2gkKhyMzJyYnPyMh4RPtGQypDwCWqVCpLJyenNziOc8zJyVFmZWWRvLw8RqfT8RYWFl5arbZxUlISq9FoxKysLK+kpCRnrVb7t2GkBe1pWCaK4vP0TDSLfEjfCIVCkVelSpVfu3XrtmPAgAE7AgMDcw2Bn1k00lyuB7QDAhCAAAQgAAEIQAACEIAABMq2gFmEGGWb0PxaLwUt8fHxNaZOnbp43759HQVBsKahlvR3pdVqwyor/SoonU6nD4Tol5WVlVCtWrVbzs7O+Q0aNLhRuXLlaHd3dxoyXbh27Vqau7s7fSyiplOnTjk3b94kdevWfdGF3NxcMTAw8FV1oGiQw8bExLw4F30jPQYhhEtLS7PJzc3lnj59KjRp0qRGWlpaQEpKipiQkNDi+vXrTVJSUpT379+vnZOTQ+uE6b84jqOhmRS4UdPS4qSrxQRqynGculevXr+sW7duqr29/UPaINTGKrVhwYkhAAEIQAACEIAABCAAAQhAwMQCCLBMDFrah6OF2o8fP257+fLlLt98882iBw8e+CqVSrpNjgZAJd48qTaTYesb3SIoKJVKjUKhUDs4OMTWqFHj6fvvvx9Rs2bNp9WrV79I6zkZwhd9Y1/avveq+UqP+8rOFdhK+ar+69/78jHo+xITE63i4+Ob3Lp1y+3AgQP9b9y4YZ+WluaXk5NTSavV2tHXFHhyY6kUwpdCQbpFskaNGrF9+/ZdVK1atV2jRo1SMwyjK/FBxwkhAAEIQAACEIAABCAAAQhAAAImFkCAZWLQ0jqcFNJ888031fbv3z/+jz/+6JKQkFCDZVlGEIS/rT4q7jYa6lXpa0sZtvvpHB0dnzk4ODxSqVQX69ev/6BNmzYxTZs2vVy3bt1Uw6owKYDS16WS2liSxcn/odbV39pCM66YmBjF/fv3G/7+++81jh8/3lCtVvulp6cHZGRkeKrVamue5znaH7rt0FBjrLi5XxyfWgmCIDo4OKQ2atRo56BBg74eMmTIbYZh+BJrBE4EAQhAAAIQgAAEIAABCEAAAhAoBgEEWMWAWtKHlMKr5cuX91uzZs2oZ8+eNddqtbTWVYmuCGJZVqBt4Xme4TiO9/DwSKlVu/avTo6O/7Wzs/utVatWDzp06PDQx8cnv2DBcSk4Ksmwqihj9HL7DIEbDbPoFkSXo0eP+sbExFQVRTEwMTHxzTt37jTKzMykWzY5Q7F8GiyVSIgoFXlXqVR5Tk5Of4wcOXLZp59+uouWBkOB96KMOl4LAQhAAAIQgAAEIAABCEAAAuYkgADLnEZDRltomBIXF2e/bt260PXr18/UaDROhlpXJTa20oornU5Hi4rTelQxXbt2/dHV1XVvZmbmw/bt2+cFBgbSAIWuyCpXq4EM4RYNp8TDhw8rk5OT7dVqdb1bt251O3jwYP/79+97GmpU6TtfUts4pS2blpaW6X379t0yYcKExY0aNUotb/4yLhm8BQIQgAAEIAABCEAAAhCAAATKoECJhRxl0Mbsm0xX+KxYsaLyoUOHJv76669jtFqtwlDrqkTGVQpJaE0rS0vLlCZNmlydNm3asgYNGvzm4uJC6y/RFVn6lUflvaB4wTpbUr+zsrKcNm3aNCA8PLx3bGxs7by8PBee5xU0yCqJ7YXSEx5ZltW+9dZbO4ODg78KCwvTV68319VuZn/RoYEQgAAEIAABCEAAAhCAAAQgUCoCJRJ0lErPyvFJpVU/s2fPbnXy5MnPLl++3FSn0+m3DBZ3t6UtajSkcXBwSHFxcfnT39//REhIyAFa14oWYTe8Rt+WihiUvFx4Pj4+3mH//v1v7Nmzp3dcXFzLpKSk6tnZ2fb06YglFGSJPM+TevXq/d6wYcM58+fPP1+lSpX0ijg2xX194PgQgAAEIAABCEAAAhCAAAQgUDwCxR54FE+zK+5RDSualJMnT+60d+/ezxMSEgIMIUix1lgybBMUaC0ne3v7tDfeeOOIh4fHT+3bt/+jW7du8Z6ennlS8XUEI/+bnwVXZiUnJ9ts2bLF99KlS00eP37c79q1a+1yc3MtaMF3g2+xXY+GMRFdXV0fBwYGbp4xY8aK5s2bp1XUkLHifoKg5xCAAAQgAAEIQAACEIAABMqmQLHdMJdNDvNutSiKigsXLijDw8PDIiMjJ2dmZtrRbYTFXVeJ4zghPz9fX8Kpc+fOp4ODg2er1erffX1980JCQujT9mgA8+LJgeatWHqtk8Ks6Oho9tKlS1bu7u6tf/zxx/lRUVENBUHQ1w8TBKFYx5MW12cYJq9r167bQ0NDZwQHB6cjxCq9OYEzQwACEIAABCAAAQhAAAIQgEDhBBBgFc6pVF8lBR/Hjh2z2rlz59g9e/YsVKvVihLaMshzHJfj5+d3eeLEieuHDx8eYe5PDSzVwSrkySXDCxcuWJ45c2bI5s2bh8XHx/trtVqbgqu2Cnm4Ir2Mbv+kgVnPnj1P1atXb+jcuXMfIcQqEiFeDAEIQAACEIAABCAAAQhAAAIlLIAAq4TBi3o6Kcz47rvvam7btm3opUuXPs7Pz7cszi1nUp0rCwuL3KpVq16pXbt25ODBgyN79OjxBNsEizqCr369YTsoXbnGnj171nfNmjVdr1271iMxMbGlWq22ZFmWPrWwWK5RGmLxPM/Ur1//ZIsWLf6zZs2a3wkhdJmdYLoe4kgQgAAEIAABCEAAAhCAAAQgAAHTCBTLzbFpmoajSOHVN998U3fr1q2fX758uQPP8zS8osGGyYGePxyP0G1sYrVq1R74+fmt6NmzZ1T79u1j/fz8tPQvsVXQ5OykQEjFbd68ucqBAwfee/ToUZ8HDx5US01NdeY4jr7G5CemY8myrM7Lyyumb9++K5YsWfIDQiyTM+OAEIAABCAAAQhAAAIQgAAEIGACAQRYJkAsjkPQUIMGDJs3b/aIiIj48cSJE80JIQpBEIplzOi5aHBFA42OHTvu7d69+8LatWvfDAoKosmJYC7B1Su21xU23XnZzqxqd0l9u3fvnvLo0aO2t2/f/nTNmjUfKxQKgaWV3ospxKJj6+jomD137twxo0eP3vk8p8RKrOK4rnFMCEAAAhCAAAQgAAEIQAACEJAnUCxhiLym4F2SgBRkrFixosrx48fDjxw50pzjuGLdTsZxXL6Li0vshAkTNoaFha0nhJTqiqt/CKroXBXvEaLUJiUpC86WKxkZDrk5vDKPaP5xElkSQnQqlejv4ZFex8EhPyUpST/vA1xd8+mKI0MtsYIhmP7/l1ZoV2BFluLrr7/uu2zZsv/Ex8fXEATBojgCTEN4SWxsbPInTJgwumfPnhGBgYF5CLHwmQQBCEAAAhCAAAQgAAEIQAAC5iKAAMtcRqJAO2htpHnz5jU+fvz40l9//bV1cdVCkmpdOTo6JtesWXPfhx9+uHHgwIG/GcKbEquF9HJReENtKJJKiG2GWm1149kz96e5+d4cK/DZGl3t7HxNTYZleMIzLE9EUScIgTpBdJDqc/3TkIqMKFpyit85hqSxDGF5kXB2CuVtS4XyLiMKnLutVUJdV9cnNoSIHra29Ml89Gl9eoPSKlpvOC+3adOmN8LDw4ffvHkzJC0tzaU45gPdPkpX4NnY2KS2b99+9ogRI8K7dOmSVVohnhlelmgSBCAAAQhAAAIQgAAEIAABCJSiAAKsUsR/+dRSUPLZZ5813Ldv35cxMTGteJ5XmrqQNw0raDij0+kYWuuqZcuWnzZr1uyXMWPGJBnCq8JuyZOlV6A/LN2eKB0kkRArjVpd6Uris7fTNJrKcersBhkarQ9LiCMvEjeBEQUiipUEkdgS8ryJ+l11z5O4f53LtM+M/o30tQzDEpJFGCaTIYTlOPYZQ5hkVuT56vaOF2wVipSGXu6HK9vbpzoQkiG5SOEaPXVJhDvSSrQLFy44rF+/vv2dO3cm/Pbbby0NdbH+tc9FGSBDf0Rra+sn7du3Xzhu3LhNQUFBtLA7X5Tj4LUQgAAEIAABCEAAAhCAAAQgAAFTC5j0BtjUjatIx5NqXq1du9Zj//79kSdOnGhGCOEKE8wU1YkGFTqdjnTr1u3YwIEDJ7i7u98PCgqiK46KNbh6Hjjpgyb9dkB6vkxRdL6dlFQ5MTu7/Z/pGa0fZGa11gmikv5jwdG1RgxXMFSj7xefv//FV1EmccEO0vPTQEvfGJEwIs22BFHUEpEXRUGwVChyLDhFUqC7y24Pa+sLbb28zhBC0g0r1+jb2JIKdyS3zZs3ex85cmT2oUOH+mu1WusCgVpRp8HrXi8qFIrsGTNmjJ09e/YO1MQyJS2OBQEIQAACEIAABCAAAQhAAAJyBIpy7y/n+HhPIQSkkGrz5s0uv/zyy46IiIh2xVXziuM43sLCIrVbt24RoaGhczp06JAihWeFaGqRXyIdWwpaLt+/b3dPEFy0Ol1Ank5ofT8rOzhTq/XR6HTWHMtySpbVrw4zPHaPrtDSf70cWhW5If/+hudBFiEMa9g6yIsiSwMvDc+LSoZoHS0tY6tWsjuiYrl7Fgr2QmU7uwTn1NSMgIAAnbR9sThDQMM8YW/cuFFpyZIlHx85cmRoRkZGZcNTKU12LUtbSxUKhYbWxAoJCfkJNbH+fQLhFRCAAAQgAAEIQAACEIAABCBQfAImu+ktviaW/yPTcOfMmTPOixYt+uLo0aOh9Klzpl5ZY6hxJNSoUeOPN998c93MmTO3BwQE5BR3oW5DP7hfnzzxjknNrPMkV90jJ1/XOEurrZWn4ytxHEv3/zEsy9I+S6uzzGrQqRENtmgBdZ0gCgqW0dqplPG2StV1G6XyRF17p7OVq3nHBhCSU0JBFg32uAULFrwdHh6+OC4urhHP8yZdrScVdre2tk4LDg6eO2XKlK2BgYGZxRnQmdWgozEQgAAEIAABCEAAAhCAAAQgYFYCCLBKeThowEPrG4WFhU27cuXKOJ7n6bYwU4+Lfudcq1atTtSrV2/qzJkz//T09MwtjjCiYNvp8c/GxTU5m5w8IDknr7FOEKvnC4IX3Xpn2Jb2okB6KQ9DUU6vt9RvNySMwBI2W8mRBy5WVudbuLtGNPTxuSrVzKKvKw5j/fkNYd+XX35Zb/v27R/du3fvA61Wa2HK4JOGnrRGmaOj49M+ffrMnzx58mY/Pz9aE6vECvwXZWDwWghAAAIQgAAEIAABCEAAAhAovwKmDkrKr1Qx9IyGDQ8ePFDNnDlzxv79+6fqdDpLQRBebJszxSk5jhNYls3r2bPnT0FBQTNGjRr1tDgKkEvb2wxF2dm7KSm1jj1+MvFaUsq7DEMqKfXlrPTJz/+pYWWKfpbWMaTtdrwg8hpep/G2tf6jpY/3kgY+Pkc8Cck1hHVCMQZZXGRkpFNERMTCAwcODKHno3PIlCEobbu7u3v63LlzBw0bNuwIamKV1mzDeSEAAQhAAAIQgAAEIAABCFRcAQRYpTT20kqZTz75ZNCWLVu+Tk5OtjIUNzdZi+hKGWtr6+xmzZqtWr169VI/Pz91cRQdN4Ql3OF7TxxT+OzmyXk5Ax9mZrdU5+u8VBxLi7WbNFAxGZBpDySyhAj5RGRYkeRUsbWN8raz+86ZIxe6+PmlE0J0xRhisenp6ZUWLlw4ZsOGDRNyc3M9DF0zyfUtbSesW7furd69e3efM2fOX8XVF9MOCY4GAQhAAAIQgAAEIAABCEAAAuVFwCQ3uOUFo6T6IW3/mjp1artdu3ZtjI+Pr2LKQtzSqiBPT8/4Vq1abVy7du1qBweHTFOuvCq4wufP5GTbI/GJ72RqtQNT8vKC8gTBnmMYwjGMKAgi+/dnBpaUcqmdR7/FkBdFomS5VGdLizP2KtW+hq5Ox4O8vRMNK9RMvrVQmlMTJ07sGxkZuSApKcnP1HNKEATyxhtvnOrWrVvY/Pnzr5hyPpXaaOHEEIAABCAAAQhAAAIQgAAEIFAmBBBglcIw0dVXGzaybcaCAAAgAElEQVRsaPXFF1+sTUhIqEO3fZlqyxetWySKolCtWrXLTZo0+XTZsmVn3d3dabF2fbBiiq8CxdaZc4mJjaIeJYxIytV040XBg6620tdOMn0dL1M0veSOQUvTiyIRBSIqWCbNUqG43MjFeVvH2n77XAjJpg0x5ZjQ49FxOXz4sOrYsWPdf/75Z1rcvRrduWnCuUVX0+XXr1//6OjRoycPHz6crsTiSw4VZ4IABCAAAQhAAAIQgAAEIACBiiqAAKuER56GV1euXHEePHjwqtu3b4dwHEdrFplkHFiWJYIg8J6enn8OGjRoVKNGjX4NCQmhoYPJim6LosjRrCQ2M7P6L3GPJl19lvweIcRByXEsfVJfCXOWidMxhNCnGBINz+e6WlleHeBfa+wbjo43DVtGTVofi4ZV0dHR3OPHj3vMmDFjU3x8vL1KpaLhlkkK5tPQjWVZbdu2bRdOmzZtSVBQkNaU86tMDCgaCQEIQAACEIAABCAAAQhAAAIlLoDAoQTJaXj1888/23z77bcLTpw4MSY/P19pytUxdMmPu7v7nTlz5owdMWLEaVMGC9KqqxsZGfbXEp+9czMtdUpSTl4jawVHlxIRQaQloPD1GgH6aElBJ4qsBcsl1HK031G5ku3XXr6+8YGE8MUwVuTSpUtt+/fvv+7x48fVWZYVdDqdykR11kRbW1vN2LFjP/n8889XGbYSmiwkxSyCAAQgAAEIQAACEIAABCAAAQi8LIAAq4TmBA2A6OqVjz766IPdu3evSklJqSQVcje2CdK2wbp1616fNm3axAEDBpwxZX0iQ3il3HA95u2neTkD0jTarhpBcGefr7jCHCriAAr0WYyE5DtZqs752tit7luvTpQTIVn0MKbaVigFjqtWrWr2/ffff5aUlFTryZMnXoanIhaxxX9/uaHGmujp6Zk2fPjwAbNnzz5uyrYb1Ti8GQIQgAAEIAABCEAAAhCAAATKpQDChxIYVmmV1e7du9uPGzduU3Jyso/hyXxGn51lafksUWzUqNGlQYMGTRo/fvwlU4VXUghyLzXVNiohqW9MaspMngg19KEV6lwZNXY0BNIJAlGyTIKDymJ3cI2qa95ydY01BEEmWc1Ex+/y5cuKY8eOtfj++++X3r9/v4lhm6nR170UYnl7e1///PPPRw8cOPA3U64iMwoXb4YABCAAAQhAAAIQgAAEIACBcidg9I1suRMphg7RIOH+/fuV+/Tp88ONGzdaKBQKmjkZbU/DCJ7n+Tp16sRMmjRpZGhoKA0RTFJUm64Oo4HE7Sfp1X5OfDAjNi3zfQXLWJpiBU8xEJfZQ9Jy9zpR1NmrLK519fWe3trb+5Qpt+QZ5hkXERHRfvLkyeGJiYmOCoXCJA8NoOEprbkWGBi4/fvvvw+rVatWKkKsMjsV0XAIQAACEIAABCAAAQhAAAJmLWB0iGLWvTODxtEAYe/evfarV69eeu7cuaF05RXP80bXi6LbBgVBELy8vO4sXbr0w379+knBh9FPG6RtPpecbBubnFzvz7SszSmavFoqGlaURp0r+vREsUCXCvy3PgVkGP5FGMgQwhLmxavp5KaF5WkB8xdfjH75GPWX5r7hf/V/USpPTzQ8s5GuyBKaubnN4SyU335Qo0YKIcQkBd6llXSHDh3qHRoaujY1NdWVzkNTXB40xLK2ts5r2bLlnMGDB68MCQnRIcQyhSyOAQEIQAACEIAABCAAAQhAAAIFBRBgFeN8MAQHivfff/+9o0ePLs3KynITBMHo4IBu3xIEQaxevfqNOXPmTBg4cOBZE24bZKMTE50uP3k2JkGdMzJXp6usYFmTPMGusNSG7Wn63EpkCA2wBI5ltXT1lyXHxXMs85ghhFMx3G3CkkeMKCroS/WwrEJkRF6/BU9kOPpYRkYgz3fksYQlOiIoeEF4UxCIJWFERY6Or0f/ihdFJS+IHEvTLcawQ5ImWiZYKVfYfutfJ4pqV2vrg762lRYNDaj5B3le4N0koSQN7RYtWtRrzZo1i5OSkmqYahsrDay8vLxiR4wYMXjWrFkm28JaJDe8GAIQgAAEIAABCEAAAhCAAATKtQACrGIcXhpgbdiwwW/FihXbYmNjm5qw4DkNr37v1avXhMWLF1+gXTA25JBWMV19ku77y+OHY+OysoeLRHSkBy6JEIdlGIGuluJFkdEJgqhgmTyOMFpPG+vfVSz3gOPYMzwv5LvZ2j1wt1Y9UTAMW83a+ml1R8fMorhG0xzryROf/BydUsPquLup2fWJqFOIHNMgXxBrpuTmBebo8p21vGjJMYTjWJbQtgl0fVbJhFk0t9NUUlmcDPJ2X9a5SpUoU4zv82xMZCMjIxU///xz32PHji3MyMioYqpAled5EhgY+EtERMRQX1/fJ6ZqczFenjg0BCAAAQhAAAIQgAAEIAABCJQhAQRYxTRYUg2p0NDQDeHh4cMNq12M9uY4jnd1df2zb9++o5YvX36RYRidsV2Qnob4ODfXe821G3uScvLesOBYZVGCIbltYBmGp1sTNbxAkzJNJaUqLsDZ8aSLteX5Shx3mfB8fK5Ol9vFzy+/wDmkVWyyVieJosgZ+kZXNgnzCGFCYmIUNytV4nwsLLwzc3OrpuZp2z/Mymz8ICO7FU9EKxXHEZYQgTCMSepHvdaLYURREIU8Ha8JqVljwju+Pt89zygZo4u7S4Xdly9fPnP37t0zRbryjOeph1FfLMsKOp2O9O/ff0d4ePgwQgjdSmj0yjGjGoU3QwACEIAABCAAAQhAAAIQgEC5ETA6UCk3EibsiBQSHDly5KN58+Ytp8GDFBIZcxp6HGtr66zevXsv+O6771YRQvKNDQkMK6+U++7fr33xSdJ3qRpNoIrjSqLeFQ036HnUCo6Nq2xje/ZNV7cjgZU9z9oRkiYVo5fcTBHevM6+wPi8CF2SCLFJSEr3+y05Mfh2SnrXXF1+AGFYG0JExfOKWcV3+dDNizRcyxdEdVNP1zA3e/vt3Tw980zhYBhzu+7du6/+5ZdfBoh0C6YJVpfREIvjuOwpU6Z8NH/+/J2m2v5ozDWD90IAAhCAAAQgAAEIQAACEIBA+RAovjvw8uEjqxc0DPn6668bLFiwIPLp06fVWJalhcSNtRatrKzUrVu3Xr5///6lhJBsE4RX7GFClLE3bvSNy8oel63VvamgKURxFGtnaDkrhgjPC6rrrDjuAceSa962dmeDfCv/bJ2U9NjPz4/Wufrbl7F9LOoAFhgnfUl3Qz0u9kp6euWLjx+3fZqV0yQ7X9coT+DrC6JoQ3dY6r+MH99/bCpDiMAyTLynrdWaNm5uO5r7+DymLzTGRepjXFycQ79+/ZZdu3ZtMM/ztCNGzdHnu01FwdfX91RISMiYhQsX3jWmnUUdO7weAhCAAAQgAAEIQAACEIAABMqvgFE3rOWXRX7PaHgVHR3tFhYW9sX169f7syyrFATBWGd96tOjR48V69evn+3q6ppj7EocKcTYfvvOiEvPkuboRNFT/xC/YvgyhBiilucZO6Ui3svGZp+T0mJXC1/vP3R2dpkBhLzYHmiugYfBi00mxPrUnQfeCXnZndM0ef2eqPPeZAgt2aUfYmPH+Z/1n6/gy3Kzsjo6pWngeFtCkkwVYq1YsaJaeHj49uvXr79F9yj+7YmNMuYCPYRCoch7++23lw4fPnxxSEiIxti5KqMZeAsEIAABCEAAAhCAAAQgAAEIlDOB4rnhLmdIhe2OYRsa88EHH/Q/evToyszMTEdTFMmmW8latmz5S3Bw8OCwsLAUaXtdYdv18uuk8OpoXNyI3bEPVltwnLJYVl3Rx/sxDK/heVbBMhmNXV1/rFfJdp2dj8/tAEJ4Q7sEcw2t/slXGmMaVp1/+tQpJUfT6/yTJxOSc3PrWHAKWumd7v0zeRDIEsJrBZF42docG1Wn1hAPW1s6D0xRE4sLCwtrGRERsZE+mdAU9bDoejQPD4+EKVOm9Jk4ceJ/6XwrS2Ms97rC+yAAAQhAAAIQgAAEIAABCECg+AQQYJnQlhYHX7x4ceVdu3aFX79+vbmxda/oliyWZXU+Pj7X33333RGLFi26Jm1rk9tsGibEEKL89dafH1x68myZgtXXdDK6iPc/tEckROQJYZ55WllHtfT0XBVU2fMKbb+xfZDbd1O+r+CW0NjsbNeoh4+GxqSmDs4XxWqMSCxpdmfK89Fj0ach5gu84GZlvauBm/P0PtWqPTI2xDL0Q9W/f/+wQ4cOTdNqtXbGrhikYZUgCKRLly5Hpk+f/l7Lli3VxrbT1JY4HgQgAAEIQAACEIAABCAAAQiULQEEWCYaLynQGDVq1OJt27ZNoSuvjKl7ZagnROtepfXu3XvmggULtvn4+NAi3rKf7Ebbc/jePdWjXG2PmIz02TpeCDB10EInFE+IqGSYVFulcl8TN7fIZjWqnvYkJK88BFcvT5eCY3w9ObnW0bj4YY9zct7V6vgqLMMoZA/WK+YlDbEEImrcraw2+9tYTQ8JCMg1wYo8Nj4+3mHUqFHzjh07No7jONGYuUubTucp/WfixIlTFy9evJKuIjRm7proMsVhIAABCEAAAhCAAAQgAAEIQKCMCiDAMsHASTf7Bw8ebD506ND9GRkZjsbWQ6K11LVaLTtkyJCVU6dO/U9AQIBRda8Mq8HEyNjYzqfjEzeKDPEiomlXCdEn5/GiINgoVVcr21qtbOzoeKBVlSqZNLyQQg0TcJvdIQoWfr+Xmmob/fhZ48Rc9ZAEdU5/BcNYEFofy4RF3unSNpYhmY3dXKaF+vtvfJ4Xyd9OKLU/KirKbf78+T+cP38+iGVZWpBd9ueDVNDdzc3t7sqVK/v17dv3D2PaaHaDjgZBAAIQgAAEIAABCEAAAhCAQIkKyL5BLdFWmvnJpG1Ybdq0+fHMmTM9VSoV3UIl25auVOF5nvTq1Sty+PDhg7t06aI1ZvWKFEQkE+K58uJ/j6XkaQL0RceNCCj+z5CIhFfzOraRi/OO5q7OM9/08kqki7GMabeZD/s/Ns9gzUQnJVnrsnO77o6L2ywIgpWSBkImLPJOQywtz2v7Vq/28TtVq3xjbEAo1amaPn16g8jIyCOPHj1yN0UIK4qirnnz5l9GR0fPpU+frGjzoSzOYbQZAhCAAAQgAAEIQAACEICAOQrIDlnMsTOl0SZDYKGYNGnSiA0bNiwRBMHaBIXbRV9f3weTJk1678MPP/zNmHBCenrej3fv1rqelLolWaN5U2XaMIXuktNwLPMwyMt7bu8aVXcTw1MFK2pYUXBF1rnHj2sef/R44bO8vHYMIfamWo1F40e6si1fFLKbuLlPauRY6cdAT0+6nVD2rkW6Si8mJkYxe/bsUcePH/8sNzfX3phVWHTe0pWEbm5ucX369BnTq1evqLZt2+pK4zrFOSEAAQhAAAIQgAAEIAABCECgbAsgwDJy/OhN/4YNG2qsWLHi29jY2FYMw9DaV7KPyrKsaG1tnda+fftP582b921AQABdtSL7aXO0fbv/+qvyb4lJK9K0mmAFyyqMDSX0nWMYWieJcAyT5WhhcbSpp9sXwVWqXEWto/8NveT8xzO12/HHsSMeZmePyucFH7rhz1Sr3+ggKFj2UW0Hh3Ef1q972NhVb3S+REZGei5btuyrq1ev9hYEQWnMfJFqYbVo0WLbO++8M37atGko6C770wFvhAAEIAABCEAAAhCAAAQgUHEFEGAZMfbS6qu+ffsOO3HixBc5OTmVjLnZp+GVKIpCvXr19o4ePXr8qFGjnhobXh27ft3qD4HM/Csza7woinbGbguTwitBFAlDRHU9R6dPHVU2e/v7V403NjwxYijM+q00FHqQnl5p98OHjbI0+Z8nqHOa0VVwphoLWqzK3kJ1pp2b96j21b3vPs8XjVuJtXLlylZLlizZ+vTp0yocx9G00hhj0dHRMXnixIkhM2fOPG1s+4xpCN4LAQhAAAIQgAAEIAABCEAAAmVTAAGWEeNGg4kJEyY4//rrr3uvXbvWzFAoXdYRpacOWlpZJW0PD+/SvXv3q8aGV/Spfz/Fxo775WHCl0qOVZokMKEHFURBpWBTW3t7TnSsXv3HoOdPmJO9SkwWWBl7kxRsbo25X/mBOn1bolrdUsGyNBjSJ1nGfNGwKp/nBXdr69/mvdWkIyEk29gAKzo6mr1169a4jz76aLlSqRSMaSdtiyAIpHPnzkcPHDjQk24xNaZ9xljhvRCAAAQgAAEIQAACEIAABCBQNgUQYMkcN3pDT0ObSZMmTVm7du1SehhjVl/RYzEMw0+aNGne4sWLP5fZrBdv028Fi41t9NuTpB1ZOl1NkxRtp9sGBYG3Viov1nN2+HiIv//v9IQIIwo3WlKB9ztZWU47//xz9hN13nCWECtTBIsswwgaXiBverjM9nNxWRnk6kq36hm3bEoUmT59+uw4ePBgP9pGY+c3z/PsihUrxo4bN44WnReNbV/h1PEqCEAAAhCAAAQgAAEIQAACECgPAgiwZIyidCN/9uzZaiNGjDgeGxtblaWF0WU+1U966uDbb799fNeuXe86OTnRFTSyVzTRdkTHx9c4GBe/Q63JD+Q4/UofY8da5AkR7ZXK87Wc7KcN8/f/FeFV0SePFGLFJCW57X74aFpitnosYRgLugLP2LpYNADV8YK6oZvL+NF16/xgzFP/pHauWrWq0cqVK7c+evSojjFBm7QKq3bt2jfWrVvXq3Xr1g8QYBV9/uAdEIAABCAAAQhAAAIQgAAEKqqAsaFGRXWjYRU7ZsyYFd9+++14hUJBt0gZYyl4eXnFDRw48P1Fixado+GB3Jt72q4L8fGeRxISP0vKyRvEsozxWwcZRtTxguhhY3W2ppPD2EF+frfktq/CTpiXOi7VxfrpftzEB1mZU4kpVmI9XyEnWCsVl+o4VBo7rG7dG0YGobSgu2Lr1q0fnz17dm5ubq6VMfOcPpGQYRhNSEjIp1u3bl1uTNswjyAAAQhAAAIQgAAEIAABCECgYgkYE7pULKkCvaXhw9mzZ9/o0aPH4aysLA+aNsnFkGpftW/ffv2kSZOmderUKVfujT0NviIJYeOuXO/3ICtrNSHE0ZjaRVKfeEEU3KytL9Wwc3xvcEB1Wqwd27/kDvjf5xF3/SmxPJ5wfea9zIwwjmXpE/+MrYlFtw0K1SvZre/g5TGjvru77PlEmyqKIrdjx47qn3766bfx8fFvm2Aln1C9evVflyxZMqxHjx736KoxE1DiEBCAAAQgAAEIQAACEIAABCBQzgVkBy/l3OWV3TPcwCuDg4PnRkVFTSGEKARBkB060LCqcuXKt/v27Tv8iy++uCQ3vDKEDezW2/f9bqcl78rQagMYQmS3Sw/AMCIjivk2CuWlek7OH79fx+/K8z82rrZSRZ07/9RvGhDFZ2bab7l7d3Zidu5IjmEsBROEWBzDpNVzcx84qk7No8as6DPMK2bChAlDtmzZslKr1doaM9/pkzZtbGzUHTp0mDFt2rRvAgMDdZhPuCIgAAEIQAACEIAABCAAAQhA4N8EEGD9m9BLf09XyKxatarGypUrN8XHx7c0ZsUM3VIliqI2KCho8datW790d3fPkXszbwjWVEuuXN3wMCNrEMMwnDE1i2h4xfOC6GChOl/HyX7aYNS8KuJMKfzL6Rz6S612/eHW3ekJ6uwxhBBLhhD516bhqX8OlhbXu1Wv2reFm9t9Y4JHOrfu3bvnMnTo0K3nz59/R6mkC8WMqqkmNG3a9ERwcPDAmTNnphgT2hZeGa+EAAQgAAEIQAACEIAABCAAgbIsIP8muSz3Wmbb6U375cuXFYsWLRoaFRW1NCcnp5LcG3mpcHv16tWvfP75571DQkIeGRlekV/i47vsuvvXT0qOtTAmWKPlxPNFkXhYW53xtXUYGxrgdxvbBmVOmkK+jY7XjYwM+6P3H4yLy8ycLhLGWjQmxCJE1Ami6G1jHf5p08BRhBCt3PkldWHt2rUNFy1adODJkydexjy0gM4le3v7jEmTJr07a9asKGNXiBWSGC+DAAQgAAEIQAACEIAABCAAgTIsgACrCINHt3stX77c/tChQztOnz7dgRDCyg2w6OorrVbLrly58uPx48evMSYgom24k5VVe8PVG/vyBKEWDaCMWX0lEiI4qCyuu6lsen4cGGC2Na9EUVQkJiY6CIJA+1ukL5ZlGZ7nBR8fnzRjg50infg1L6bz62BcXKXfnyave5yV3Y/jWKO2gLL0qYSCkNvAxXnq6HoBG4zppyEQFSdNmvT56tWrZ3AcZ9RTNwVBIO+9917E9u3b+yPAMtUMwnEgAAEIQAACEIAABCAAAQiUXwEEWIUcW+km+7PPPmu3evXqn9PS0qzlhkTS6qvAwMAbFy9ebEsIkR2i6Ld3EaLa/dvVmfezMqerOE4piCLdPij3ixZoT/JzcJgXbG2xyc/PL9/ctnhJoeHZs2cbv/vuu4douCKKhc+waOF8nudZFxeXZ7dv327EMEyeXCxTvs/QL/aH2/eaXk1NWZaTn99EpFtBjdiuJxIiWim4M10q1whtX8XtgTFjSds3b968mj/88MOB2NhYP2MeXkDdbG1tc7Zt2/ZOcHDwWfrfxgRsphwHHAsCEIAABCAAAQhAAAIQgAAEzE8AAVYhx8QQLnADBgz4OjIycpgxK1DoaisLC4vcCRMmjF+4cOF3xqxAoeHNphu3Wt3MSF+v5fk6ckM1ysAyjKDlhbxajo4Levl6r6vu6JhlTOBRSNoiv0wKsKKjo9/q2LEjDT+KvBKOrgByc3NLevLkiS/DMLlFbkQxvcHQN2b7nTudzyU+28IyjAsxoqi7fvxEMatqJbsZXSyU3wUEBNBAsvBpX4F+0rkWGRlpsXnz5lmnT5+ekp+fT7eqyvoMocXctVot07Nnzx/37NkTSgjJk9uuYhoKHBYCEIAABCAAAQhAAAIQgAAEzEhA1s2nGbW/RJoi3aT/+eefVVu1anUlPT3djqV34EVY9fNSQ4X69euf7927d/9Zs2Ylyg2JaKAQHRNjfTFXsyQuO3sEw7AKuat1aHiQLwjEy9rq5+5VfEY28vBINtdAoWCA1alTpzO0YH1RgxSe52mA9TQxMbGaOQVYdJ7QviQmJlrtS0kbcSMlZQlLGJUx9bBoxXUbpeKP5m4u7/WuWfO2MeNKtzn+5z//aR4eHr7xyZMntYx5IiGd97a2to937NjRrXPnzjfkXgcl8iGAk0AAAhCAAAQgAAEIQAACEIBAqQogwCoEvxSOzJo1a96iRYs+ValUgtwbd3qTbmlpmdeyZcuwadOmbQwKCuLlBArSqq3df/7Z4Myz5KNaXnCTvfqKYUSdIBBXK8trvVydgwKrV8+U06ZCUJrkJeU9wDKEWFx0dDTzh6PL5mspKYMsFBytbCb3ehXzeUFs6e25dIh/rRk0+JQbFknh2oABA5ZeuHBhFA1y6XZMOQPLcRx9CqeuTZs2i44ePTrPnOecnP7hPRCAAAQgAAEIQAACEIAABCBgOgG5N8Sma0EZOBK9aaerr7p27XrkwYMHNRUKBSN39RXDMLyPj8/N4cOHh37yySfXGYbRySGgIcRlQrhz1258fTM1PVTFsbKLatM6SUqWSWtXxWdkD1/fPbQ95hwmVIQAyxBiMdEJCd4n4xO/S87La8cQIru2mX6MGe7psICaQfVdXO4YM8Z07m3evLnZ5MmTI3NycjyLuvpNmu90jtGtnFWrVj29cOHC0JCQkIdygzU51xDeAwEIQAACEIAABCAAAQhAAAJlRwABViHGit6wz549u99XX321ged5G0EQZAUJz3cdiro333xzw6ZNmz6pXbt2tpygSAoMjsfHt9l7/8E+IhI72auv6I41QtTuVtbrq1kq5n1Qv36uuYcIFSnAunz5suKC0qrL3fT0lSIRqwgy62HR+mZ5Op6t4+zwdUiD+pN9jKg5ZfBXdu/efc3BgwdHqlQqGkTJ+iyhT+N0dnZOfOedd0Zu2rTpqLnPvUJ8XOAlEIAABCAAAQhAAAIQgAAEIFAMArJuOouhHWZ7SHqzHhMTYzNy5MgF//3vfz9kGEZhzIoTKyurZ4sWLQoZO3bsObk36/T8yYTYrr90eVu8OrunkuVoUW65YylaK7jLb3q6DwupXv2m3DaV5ABWlACLmurrnCUlWZ/+K27hY3XOaBXHKowJsXhReNK7mt97Hap4npc71i8C1OPH2/Tr1+9Qdna2pdz5RwNclmXzW7duvXLu3LlzmjdvrpHbrpKcgzgXBCAAAQhAAAIQgAAEIAABCJSsgNzQo2RbWYpno0Wrv/nmm4Avvvhic0JCQkNjVl/Rp661atXqxOnTp4MJIfRGXfbT4I48fPjOntiH21Qcay/K3FrGEsLn84K6lZfnWG//mhFBhMiqx1XSw1ORAiwpxLr49GnT7X/e2yuIojvNteQERgwhAi+KgruV5YY5b7051Zgn/0lPS+zfv/+hn376qZORT+UUGjZseLNTp05dFixY8FjudVHS8xDngwAEIAABCEAAAhCAAAQgAIGSE0CA9Rpr6SY9JCRkQHR09OqsrCwHuVulDKtK+FWrVg0bPXr0dnpaOTfqtE2XEhKc9j96vCJNo+lP6yLJfEKdyIsiU0mpPDL+jYBBPpUqpclpT8lN1f+dqQIGWPrrdM/Dh6GHYx9usFBwdC+qrMLpdB4qWfbPRu4uoR/UrPlfuaudpELwCxcu7Lp06dKI7OxsazmhmmFURTs7O/WsWbMGTZky5WfpAQWlMbdwTghAAAIQgAAEKo6A3F0VpSREfx6Ufvkt/Ryo/2+5P8+VUj9wWghAAAKyBRBgvT7A4o4dO2a5YsWKxSdPnvyQPnlQTvF2GgzxPE/q1q175+zZsy3t7OxSjQiw2G9iYlrcTs38Ll/ga8gNMp4Xbuee9q9RM7iZl8sVue2RPfOMeGNFC7HeTnQAACAASURBVLAoFe1zenq6/bI/7/2YlJvbkWNZ+odyrl/6CMLsynZ209s1qv9tICE6ucElbdOyZct8tm/fvuvGjRuBhBC5oZr++hg8ePCW7777bnhZmotGTGO8FQIQgAAEIACBUhSgP8csXbq0+qYtW1rb2toKvE4n5+eqYu2BnY0NcXJyEpRKJalXr94ztVpt7+Xlle1Xt+4dS4bR1KlTR21nZydWqlQp7VUNkftzXrF2DAeHAAQgIFPA7D6oZfajWN5Gv7ENHjzY9fr160diYmIayl1hQr9x6HQ6Mnbs2DVr1qyZRAgR5Hwz0dfjIkR54PK18XHZ2fMJQ6xkhhhEJwikibvb4hEB/v+h+UhZ+s1NRQ2w6CTfevt2s+vJqT/mCaI3kbkKSyREcLG0jKph7zlgsL93qpy5KIVqhw8fVi1fvnzKuXPn/qPT6Szl/CaTYRhCrw9/f/+46Ojot1xdXZ8ixHr+kSatAjXxBxy93mVtXzZxO155OBP22+z7ahhnWeHv68ajsJ/pJrTGCoCSukBwHghAwGgBw2cfO3ny5Pc2b968XCREyfO8wugDm/IAokhoiQaFQqH/XqZUKjNZlrXmOE6Tm5ubqFAo8pydndNtbGxYe3v7qw0aNMgLbNr012ZvvvnI19f3HjH8krLAL7vLxPdEUxLiWBCAQPkTQID1ijGVtjEtWLCg6cqVK4+kpaU5MPROW8YXffSgo6Nj7ieffNJz0qRJx+VukaLfgFZfueKcrNH9nKTRNGVlrngRRFG0V6nuVnOw6zgqIOCRud/MvkxeEQMsw00ud/3pU8vD8Y+XPszKHsPKnI+EYUSBiPkdvD379/Xz2yN3PkoBy/jx49vu379/85MnT3zoKkUZlwhhWZbPz89nw8PDQwcMGLAVAZYcRbznVZ8VZe0zDiMJAQhAAALFKyAFWOMnThzw7YYN6xiWtTK7AKsAgeFHPuH5bkH97QhPy5rwPM+Iz58ETX85rv/zKlWq5Ddt2vRI06ZN/2jXrt0xW1vbyzVr1tRIP7fhe2Lxzi0cHQIQKF4BWYFM8TbJPI4u1fiZPHnygpUrV34it0g1/WYiiqLw1ltvXXj77bd7L1y4MFnONw4pZNh6926b/z5+Sot528tcESaKhOgq29osbubsuDCoalVtYX9Tbx4j82JVCqGrdTp16nSGYRiuqCt/6JY1Nze3p4mJidUYhsk1l779WztoP9dcv972fob623xR8JWzhZTOPy3PkwbOLt991KDuCCMDLG7//v3ekydP3hgXF9dOFEVZv71kWVakDzno06fP7vfee69fv379+H+zKM9/L41JREREx6ioqI9owFfUOf6yj+E656pUrfrTjGnTfmQYRmeOhnfv3rXYuHHjyKysrPb0B3I5/aZ95Xne0svLK2LOnDk/SL+FNrf+0uv38OHDXqdOnfo4MzOzmpzruWCf6LUtEMK6uLjEuzg5fTpx4sTM132+U9u1a9c2+uuvvybk5OTYybSmW4AV1atXj5kxY8ZMYz5PzG180B4IQKD8CrwUYK0lDGNtzgHWq0aCfu4bgit9XQlaF5euaqehFsuygqubW+Yb9epdq1OnzjFRFE937do1pnPnztmG74s0EMMXBCAAgTIlgADrNcMliqKyRYsWVy9dulTHiABLZFk2v3Xr1ktmzpz5eVBQkKzAyPCNllvy+9VdsRmZ3ZW0BhIhRR4/hmF4JcvcrufqPHRY7dq/l7Xwina6oq7AMvSdvREXZ//j46dfpeXmfsA8n5hFnQc0xCSWHPd0XKP6DavZ2DzTTyYZ28oMY6Hs1q3b7OPHj9MnGyrkrsISBEG0t7ePj4iI6NC+ffu7ctpTpj59X//ZQxfYCV988cUH8+bN26zRaFgibwHoi7PQH3A5jhMb1K//8/bt20f5+fmlmNv1T5/6umPHjuqzZ8/eEvfoUTP6A7icvY76uSOKooeHx4OdO3cGt2zZks4ns/tBnQZWU6ZMabNnz54t8fHx3oLMbcHSIBs+CMTAwMCrjRo16rJ+/Xo6xv8YBktbB4cMGTLs+PHjq5OSklRC0T9L9J8bdBXAW02b/nrhwoUW0i9/ysu1iH5AAALlU6C8BFivC7bo3/GCwDD0myvHCfSXG15eXtFVqlW7NiI09NA777wTS18i92fA8jkz0CsIQMDcBYp642vu/TFJ+6SA5MyZM627dOlyXKPRcHK3D9Lffjg7O6e2a9du5LZt2/a/6mbidQ2X2nMnJaX22pu3f9OJoo2cgWMZRtAJQr63nc3qd7w85wR6euaWxZCgIgdYUoi1++79dsfiE35UcayDnJtehhBRwwtiC0/PGUPr1PzSmB9e6Hhs2bKlzYcffviTIAiOcgMsjuN4lmWzZ8yYMerTTz/9yRwDB5N8wBTyINT1008/rbVz586fH8bF+cn9DCp4Onq9V6lc+cyaNWtCO3Xq9NCcjKVAZdKkSV127dq1ISk52UPuXKJ9pp+9LMNkLVq0aNiECRP2mVNfCwTxTP/+/fuePHlyfWZmpqxr+eXpRLesN3vrrVXTpk2b1a1bt7xX9VvyHjx4cGhUVNTq1NRUS0EfbRfty1DjkWn21lvnzp079zYCrKL54dUQgEDpCJT3AOvl7/1EFJ8/vlAUia2tbY6tre0fbdq02TN8+PAfg4KC4gz1cIv+TaB0hg9nhQAEKrCAnByk3HNJAcn8+fNnzJ07d6FKpRLk3kjRrT/u7u7nli9fHtqnTx96w1jkrVFSe/bcezDt54cPFtkplaKc0IJlGDFfEJ4M8w/o+aaH82Vzu6Er7MRCgCUylwlRHPrv7zsfZWX3seBYettZ5GuZ3qxaKRQxX7Vq3owQki03zKTjQZ+Q2KVLl8MXL15splQq6T10kdtDtxGKosi3adNmw/fffz/Ns4wGrIWdx//2OvoL0+3bt9ts3br1mxMnT4YwDCOrvljB89DPIw9394QuXbqErl+/PtqcPgOkVaYdO3Ycc+HXX5dqtVoLOatMpf7q55Mg8M2aNVt76tSpMHPbMknH98KFC6r5n302/+SJE5NFQmQ95fal8RUq2dllvP3222N37doV+bobkpcCrDUpqakWdCXVv83Ll/9e/5RdnY40a9YMAVZR8fB6CECg1AQqUoD1MjL9/khvbOi/6tSpc3/mzJnLBwwYsIUQojXU2DK7FculNlFwYghAwOwEivzDqtn1oBgaZPimZtexY8efo6Ki2qhUKv0WiaKeyvANgt5AbTx9+jTdXpUjJySg7YnPzHT8Oub2vpQ8TSvu+VavIrXHsOKGqWXvsDUssP4wOUFaUftfXK9HgPU8HPr5/v3QAw/jv7ak68JlbD16viKPz+zqW3Vwt2pVDsoNM6TxCAsLW7B8+fKZNMCSE/hK9eJ8fX2jNm7cOCwoKOix3DYV19wryeNKAcfMWbM+P3/u3MSiXvP/1Fa6KqmSnV1Sq1atRu/evfuAOX0OSIHd999//3X0qVP9je2vfj4Jgujv739y1apVw+lvmM1pPtGVSuvWrbPeuXPnsl8vXhxOF40ZO7/oKkZnJ6fEoKCgoeHh4Sfo8V71PQcBlrHaeD8EIFCWBSpygFXwFz28Tkefbsh06tRpb6NGjb4cNGjQi4LvZXl80XYIQKD8ChQpBCm/DH/vGf2mdubMmTohISEHk5OTfTmOo9vHi9x9miswDJMzYsSIyatWrdok9+aJ3ugcffSo5d77D35UMKyHnNUt9DfxAiG5XatUGdKtWpVdr7uxKXJHS/gNFT3AotzUIJMQx2WXLu97mpPTkqM10Yq46okGWFpe0FWpZPvVJ4GN5tHfvMkNWGmbLl26FBgcHHwqPT3dSu52N7pCyMvLK3bgwIGhCxYsuGhOAUsJT3M6xjTQYDt37jz2woULX2i0WkuZ1/6LptPxVSgUQpvWrT9ftWrVQj8/v3y5n0um9qB9W7p0afXw8PD9t27f9jc2wKLto4Gdm6vrvYEDBw5fvHjxeXPpq+EaZkeOHOl69erVqGvXr9cxRYDFMgxfxdf3j8mTJoWOGTPm+uuuHwRYpp7BOB4EIFCWBBBgPR8tQxF4ugJe9PH2vt2iRYuve/TosSUkJERdlu8VytJcRFshAIGiCSDA+gcveuO4ZMmSPvPnz/9Wp9PZyVlNIn3oW1paPg0PD+/RvXv334wIB7jlV69PupOeMU/JMhaCWMTf1DOMqBMEUtnW9sKIyl6d3N3dae2rMrs8GAHW8wCLzqedf94dEZ2QuJ5jWY6Qom/bo095s1EqT3Wp7jssyMND9goV/SrB+HjLIUOGHD516lRruQ89oKsWbWxssjp16hQWFha2JTAwUCfnuinax6D5vpquSgoNDW33yy+/bEpJSfHiBYEzurWiKLRr1+7HDz74YMygQYPU5hASSvN5ybJlnZYsWrQ7IyPD2hQBFp071lZW6ubNm08+dOjQd4bHjBf9txFGo//fX5LQP1m4cGGjNWvX/pKclORI7yKMOY3h6VO0xtneAwcOjPT390993bWDAMsYbbwXAhAo6wIIsP4+goaHnxA7O7u0tm3bboiMjFxECKEhFv2Bs9S/b5b1+Yb2QwACphMw6gdm0zXDfI4k1WEZMmTItIiIiE///z2Giuf5Im/toB/2+fn5TFBQ0KETJ068R78JyPkGQMO0e9nZzpuu31yfpdP1NqyyKdq4MYyo5XnSwdt76nu1/b4q60V2EWD9L8CKuHfP78qz1CPpmrzq9LF1Rb2SWIbwCoa908TdZejAWrVoXbQi12ij55TmVFhY2NfLly8fJTfAotcIXYXVokWLeWFhYUu7dOliNiuEimpritfTACsyMvKNOXPmbI69f/8N+t8mOK7QqHHjv2rVr//2tg0bnppDmC3Nn48//vjLNWvXTjKsei3yfH7ZxnBJCO907rxt+PDh43v06EG3ccua4yZwf3EIqb9Lv/pqwiczZy43hHVG9Zc+YZKIoq579+7rIiIiZhBCNAiwTDlqOBYEIFCeBBBg/fNo0pXLuvx8MTg4+PTGjRtHuLm5PTCHnxPK09xDXyAAAeMEjPqB2bhTm+e76Y3FgwcPKvXo0WP1rVu3BtIbKZn1rwStVst++OGHS9esWTOd9lZugLXzzz8b/zcpdbOW5+uIhBT5BlYkRHBUKW96WKreGdeoUaKcdpjTaCHAej4adK5G3r9vdyc1fVN8troPfVRmUceJ/lDCECbLz9Fu0oQ33tgqd4WKtIJm4cKF3RYvXhyZm5trTAFuoU2bNsf69OkzcOzYsZnmEDgU1dVUr6djfPXq1Ur9Bw78+q/79/sZu4XQ0C7Rxdk5KTg4OGjjxo23zeXz4NmzZ7bv9e9/9vSpU/U5hUK/ytBEjkLDBg3OBQcH95szZ84zc/hB3LA9VPz4448Xr123bqrcwLegj/4pngyTPXXq1FFz587916d4YgWWiWYXDgMBCJRJAQRYrx42lpZWFQTS7K23Tg0ZMmTSsGHDbprbg1DK5KRDoyEAAZMImOoGwSSNMYeD0BuLnTt3Vpk9e/Y3Dx8+bG+40Shy0ww3hcLu3bt7BgcHHzIiwOJWXL3R/UFW5jpeJO5y2iOIIu9lY/NdbRvLySEBAXT7YKmvQCgyaIE3IMB6EWAx0YRwFy9fGRmvVn8lisRSxrYr+kRLwcvG9pumVbymdpK5vVQak1WrVtVdt27dz/fv368qoy3SKAv16tX7vWvXrr0WLFhAC7lX2KXrBlfVgAEDpu3Zs+cThmVlrQh96XoTFRxH5syZM3bGjBkbSntFpjR3fvvtt4YdOna8qFarlTKy2Nd9pIhOTk5ZUyZP7jZt2rQzUthqzGeQKd4riqKybVDQlTNnzwaYIrCj9UucHR3/2vHDDyHt2rW78m/XDQIsU4wijgEBCJRVAQRYrx85hmVFC6WSb9y48eEJEyZM7NOnz19y72XK6hxBuyEAAfMUQID18p2dKHLTp08P3Llz5+Znz57V5nm+yCue6M0Xz/OkcuXKGdHR0c19fX1vy/nQN4RV3KLfr05KyMr+nBCikDGNRI5h0r2s7T6c3qR+RHnYy44A63+zgG4pC4+50+L31JRNWkGoQWQ8jZCu0HOztjpdzc7m3cH+/mlyV6jQtixatMjh2LFjkefOnWtjRFFqsVKlSlmTp03rM2v69ChzCRxkXHsmeQv9HNi6dWuL8ePH78nTaJzkhNgFG0KDDfr5FDZ16hdfLFo001wCrLCwsFnLV6z4TKlU0qd7F3nb9quw6Tc5TqHgZ33ySeh//vOfbaXdX6mdaWlpvm/Ur//b48ePXWiARWQ8KEQ6Ft3yQVf8du3SJeLAgQMfEELo1tvXBr8IsExyeeIgEIBAGRVAgPXvA0e/j6hUqvyOHTr8sHv37hGEEP7fvrf8+1HxCnMQMPwsSXdLGPNFf86gP2+U6YURxgDgvaUjgACrgLv0A/3QoUMHHDt2bE1qaqq9nO2D0g1ihw4djjZv3jx4zpw5dPtgkYum00DgYFxcpatPk3ck5OR0YmU8Zp0hhOdY5mZzT/fQ9/z8rpWHDxkEWH8LsJiYzEzHzTdjNuZodb0NF3RRr2tRybCZLb3du4b4+Z2XGxjp67Xdu6ccOXLkzPPnz9P6cfTpnUVti75zHMflh4WF9VmwYMEBue0pnY9U05+V9v/q1at+nTt3PpKWnl6dfr7IdZWCdF6nI++///6O77///v3S9qXnT09Pt+/bt++hkydPNldZWIhyPndfGWAZArvu3br9d8+ePa0ZhtGYfpQKf0Rp7Pbs2TM0pF+/TbR2lbGhpD7A0mjY8ePHL1m5ciWtf/WvW9YRYBV+zPBKCECg/AkgwCrcmBpqYtFfeq1evGjRVIZh8gv3TrzKHAWkn/nCw8OnnD5zpq9SqdSIhMj6WZ0lJN/Hx2fV9OnTD5aHBRLmOF5o0z8LyJqw5RVTWvHUvn37yRcuXPhcp9MVefXVixtEniejx4z5ft3ataFyf+NPA6zt9+553kpO25eam9eQZZkir0pg6FPmFIoT79SoOtKYp8yZ05gjwPp7gEVXOn115drUe+kZcxQsqxJlBJ28KOa38/bu3a9WjYNyAw3D9cMGBwd/dObMmSUajUYpJ2iRAuDRo0dHrFu3rr/c68ec5qwxbaGGiYmJzl26dDl4448/mioUCmMDLMLrdKKHl9ezs6dPN6taterDwgQexvThde+l43v06NE6vXr3juJ53tWIlXuvPI0oisTa2lpz5fff36hRo8bd4upLYY4rXRPz5s37dN68efNUFhZGrzijvyAReJ75dvPmj4a8//7XhRlPBFiFGS28BgIQKK8CCLAKP7Isy+oUHJczacKEiUOGDdvh5+enxUqswvuZ0yul7/0ffPDBmR07djQ3/FK06PeXDCNYWFrmvtmkyeTo6OhNcmvompMN2lJ2BBBgFRgreiN14MAByxUrVnx25syZj4154hfdRjhr1qw+c+bM2SMnEJBu2vfExrY//ugxTbZVRa0pxDKMoBMEbWUb20Uz32xEH4erKw/fcBBg/f0Dhs6VX+Li2v4U+9ePFpzCQSjqk+oYRtTxgtjIzWXpmHoBM4wJjOg1M27cuKC9e/d+m5ycXFkQhCKHwFKAFRQUdPL48eMdCnMzXnY+cove0hc/ZI8fv3zt2rXjTRF40B80OJZlIyMj3+/WrduO0jSm823MmDGjvv/++y9FQqxMuX1Q0qZzShAEsmP79n4hISG7SrO/9Ny0z6NGjfr622+/HWnseBq2rItOjo45Fy9ebFGtWrUbhekfAqyiX4t4BwQgUH4EijnAKrbanSzLSr/Eosux/x97VwJW09r99z5T80CzUMiQFE0KRaTMU2TIVMYklCjzmEwhkiGzq0Sm5EpkKJEpsxCKRCXN85n2/1uns+//3K7h7L3PqXDO89znft9t7/2+71rrXe9av3cN9cYQuChp3rz5ozGjR88OCgq6TyazpN4mKxvouxTAfSh3d/ekiIiI7gwmk2zTHEyOxaq0sLDwvX79+iEZgCUTuvqkgAzA+jeARV+yZIn6rVu3TqekpNhTiQTQ1tau9PX17bdgwYJkagBW5rhLWR8jGLUN5gjxi4aivCout9y5Zctprkatzvwuh40MwPoPgIW+LSzU3/Xi9cUaPq8TSlBOQC7YXD5i3FQ91tfcbDhFAIuxbds2i127dh3++PFjWz6fT7huG+6QGxgYlKSkpFhpa2tniOOQ16firM+xcHmPjo6ePGHChEMIxRRCmDuechYYFLR6yaJFqxuKvrC2oqIi1WEjRmy7c/v2JBqdTpNk+iDOJzD42TU1aJ++feOiT5wY16RJE+huWX+W/7/PGfTz58/NHR0dz71588acagF3HPDt1bPn8+joaDsNDY1SceRTBmCJQyXZMzIKyCjwu1JAWgAWnUZDmCwWgEwSJR2Xy8UYDEZNVVWVvGDuGIZgKIrQaTQM72Qr6TFFFwBnDYPB4Njb2R0bPXq0z5QpUyp+F79Cooxq5B8TBbCORUT0oNAFGZOTk6uwsrSUAViNnOe/4/QIASK/IwFE14RhGMPNzU09LS3t7MuXL7sJU6II0wgUupmZ2c1evXqNCg4OLibTehYHETY+fHj5XXFZXyadDtf2Ys8FRRCMjyAog4amz+xsOqijquq7hnLYJC03MgDrvwBWDoIo7L774Gx+ZZUznSZwzMWWFfgaH8MQZSYr19/c1EJTUTGXLKAhrIMF6W4HMzMzBwsPRsIiAHuIy+XSkpKSrHv06JFKdj6EB27EL2RkZBhYW1s/LSktVaXapQ90AYfNRrt3734tOTl5GIIgYIhK1toWg5YQsXfx4sXmXl5eh3Jyc3tRrQX1oyFBpmgompecnGxvaWmZ0RDrhfnBGvfs2TNwwYIFR7k8niqZKMW6TgUU5Z86ZcquvXv3zqktf/XzmosyAEsMAZU9IqOAjAK/LQWkBGBhdnZ2rxcFBATLKSqyGWLoYnEIDOdGdXU1Wl1dnfv58+eW79+/7/fo8WPrZ8+eqZeWlLDKy8vlaXQ6gpcYIFO+Qcx5YEqKilWrV68e4+Pj88fXKBWHZo3tGRmA1dg4IpsPGQoQcnLJDPCrvINHSa1fv948PDz8UnZ2NtRiIUsfvp2d3XUnJ6cxixcvLqEEYKU+SnxXUmpPFMCCKA0ej4c2lZe/6det6+CmCFLWUA6bpGVABmD9F8CC/3L5w4cpUW8y9iuzWHw+wW6E4PBWcji0xZZdLIzU1R+TBYyEvGG0a9duT2ZmpjuNRiNVyB3vqnby5Mkho0aNghTanxallrScNabvCemqMmDgwKtXLl+2lFDUDmrQsuXr69evD2zZsmVmQ+gHYSqdU1xc3IH8r1/1pJE+iPORRqPx6DRata+v74LAwMBwcUAeacgAgHYBAQFuO3bs2ImgqDKPxyNce6LOvAS34uuDgub6+PjsFTeCUgZgSYO7sm/KKCCjwK9CASkBWPy+Tk5JgwYMGDV79uwiuLOQIj3oeXl5LZ48edJq37590x+kpnYoLi7Wqays1BGeA3BhItHhBen4PB5iYWGRtnHjRgcHB4eChrAdJLqoP+xjMgDrD2P4b7pcsgDNb0cO3OgPDAwcEhgYGAM32iQBLDgtMAcHh90LFiwIcHZ2riLjKIGCScvP1zn2JjO5mF3TmkajEYrAgvpX1VwuzVhD44Bv506zEQT5bQouygCsbwNYNz/mDPvrzZtoeQadRgbAAnnp37LF1JFGrSGXnRRgJOQN3cXFZVVcXNxCBEEYZBx0HMCaPXv2kdDQUA+y8/ldFBWunxYuXOi7fceOYBx8oLg+TE1VNefYsWMD+/Xr94yMnqIyPqwpLS2NsWTJkrnXrl1bU8Nm16ZFSOkHMgWFsGxsbPbv2bNnYceOHes96gzW9/79e7lp06ZtTE5O9kJQlC6BlEmslaFhWt++fQeEhYVli+tMyAAsKQma7LMyCsgo8EtQQFoAllPfvrf69Onj4ufnJw0AC4+wx+p0JFZ49uyZ7rYdO6yfPno0Lisrq2dRcbG6wHeo7QgtMZ4IIuQ5HJqvr+/S4ODgjbLaRxIjbb18SAZg1QuZZYNImQJScxakPG+Jfx53EBcvXDh409at56nkBMNNv4mJiW9qaupuMoodVy5p+UV2Ic+e3WDRacAnQrwCAKuCw6GNadfGy7lFC7G6UkmcqFL6oAzA+jZh3xQUNN/78s3tCi6nOQ1qphEAA0BeIALLVFPj2LzOppOoAEawl1avXj1048aNAISpkOnmiQNYTk5Op+Pj412pzEdKYlivn8UjRFevXu24cdOmi2w2mwl5YlQmQafTIaWucu7cuX7r16/f3wAAFv38+fOKu3btCrt+/foEsm2cCdIAMzQwuLl7924PR0fH9w2wZlpmZqbWyJEjw1+8eDFYgBIT2Kd11yoUAX53G5u4fgMGTFy0aBFE/PLFoYkMwBKHSrJnZBSQUeB3pUA9AFiF4upjKjTG7QM8Av7o0aPajx8/dr537978u3fvdkRpxH2IH81HWHcRbdWq1b24ixcHGxkZfRX34oTKOmXvSoYCMgBLMnSUfaVhKUDJAWrYqUt2dBzAWr58+aGgoKDJZAEsUOLKyso8e3t7n3PnzgFwxCeq2HHlkl5UZBf86GkSi04nXNMIAIlyDoc22qjN7P4GLQBIIxVRI1kqS+ZrMgDr23QsxTCNNbfu3C/ncAyhiCgpAEtDI3JeF9MJVOQF9tLevXv7z58//xiGYQBgES7kLii6zWajNjY2l1JSUgaT2UeSkbbG8RXcQJ01a1b7+MuX72dlZSlTBbAEnYz4fF63bt1237hxA6Ll6jVKE9Y0ceJE3YcPH1558/atMZWmGeJyCS4XNJo2zXZwcPCIiIhIrA/nQnRukD5448YNvVmzZh3IyMx0gr9RBLAgnYPv6Oh4dNGiRXMdHBwg4lcQPvyznwzA+hmFZH+XUUBGgd+ZAr8LgFXnjAG/DsKux2KqIwAAIABJREFUsDNnzjSLOH58x4Xz5wfR6HRS0fDf4z+dTuehCFI2f/78aYGBgWfr+yz9neVS2muTAVjSprDs+/VBARmAJaQyDmANGzYs5cKFCzZkASxQ6jo6OukTJkxwDwwMfEBGqePKZW/ay20Pcr7Mk2fQIfiXEK/4fAxRYTFzF5qbWWopKX2uD2GqrzFkANZ/KS2kCTP40ZOYtyWl/RgEASyomcbl8xEtBfmbHu2Mhram0KUN9lJiYmIPV1fXk0VFRVo0Go1ONHwdIku4XC5fT0/v65UrVwYYGxs/JrOX6ksm62Mc4PH69eubXrly5eStW7ccsFojlfRPmH7Ab9++/emjR454m5ubQy0LsaJ3SA/6//oW8Dds586dI1atWhVZUloqRzTKlMwcYEwFefmafv36rVy5cmVIx44dOUQvGMiMi78De2POnDkOMTEx+7/k5xtQrfkFc5djsWocHB39Vy5btsfS0pIr7npkABYVTsrelVFARoFfnQK/I4AlctYIMjfy8vIUVqxYMfX06dPLyisrNfjUay7+w3a4KNdv1uyBf0CAx8yZM1/Vl/3wq8tdQ89fBmA1NAdk40uCAoRAEUkM2Fi/gQNY9vb2N2/fvk26rSidTudqa2s/9fLycg8ICEgT9zZclC74oRr86Mmx10XFY+XpxAEsHh9DmsrLfVjXrasxiqJVjZXuZOYlA7C+CWDRwHg4kZ6+PCE7ZzWLYNdK+CLIKofHL/AyNR5gpqlJGjAC/hQVFana2Nhcfvv2bVcmkwntpMnoGh6LxSo8e/bsQCcnp4d/unEE0TuXL1+WDwkJ2Xzt+vWZwtpJZOj6/wYojcbVb9bsub+/v/vMmTOfk9FXJPewQF59fHyCQnfuXET2woDM2BDN17NXr7/cxo6dM2XKlMp6XLPgZrx3797THj58uKOquppJFbSDVFsNTc0vdj17up+IiLgsLngFdJMBWCSlR/aajAIyCvwWFPidASzRS5Pnz59rbdq0yS3m/Pk1VZWVSpBSSPRS8VsMF2ScKClV9OnTJyA6OjocQRAekTPotxCiX3ARMgDrF2SabMr/oQAl5+d3oqdwQytaWFjcffr0aUeyDhWNRuO2aNHi2eLFiz2mTJlC2iEEZ3Xr46dHXxYWuREGsKADIZ+PaCsopK+2seqMomjNb8gr5MaNGzbOzs43URSFCB9CsgxF+rW1tfNycnJa/Q4AHw7AHn/9ZtXVT59XyNPphFOTUAThcfiYRAAsBEHkjI2N41+/ft2TLIAF6V4oihacOHFi0NChQ2UAFoah0dHRtN27d09OTU3dXl1Towh8p7K3oQ6Wrq7up5EuLlODg4MThECm5Kq9fmdyuONgbW1979GjR+ZUuyoSpAHWrl27Z6NGjhyyatWqj/VlcAOvUlJS5FatWrX6RmKiH1XewZphj+jp6j5YuXKlu7u7ezoRkFcGYBGUGtnjMgrIKPBbUeBPALCElxV0BEGYbm5uO06cPDkN/BuqlydCWwH+xbfr0eOik5PTpEWLFpXW14XQbyWI9bwYGYBVzwSXDScVChBy+qUyg0bwUXwzZ2Rk9OjZs2dSbm4uQqfTCd9QCFNyEGNj4/MREREzO3XqlE/EoRC5MRHc1G978uRwWkHxBMIAFoJgNTwe4qivv3hse6NNtcE10ksNwjCMWVJSQqkmT01NDVtLS0usrmCyCKz/bhq8RtKFjIyhlz9+juBhmBJRA6UWwOIXzDU3699RXf0JWZkR8ke+V69el27evNmTxWJB8zfCugbScWk0WmloaOj4KVOmxJOdTyNQMRKbAtDWx8fHOTY29tCnz5+1+Xy+wBIl+wOaqqmq5ltYWEyNj4//m+x3iLyH79+nT5/26dmr15WKigqBgiLyDSrPQjhgc339L9OnT3deunTpU3zvUPmmOO9iGAYdF9Vu3bp1+s6dO/YSSAEVhFFZWFhcOnjw4FRjY+MvRJwHGYAlDtdkz8goIKPA70qBPwXAwvl35swZjUOHD4dcuXJlNJ/Ph9B4yucunKd6urqls2bN6rdkyZK79XWe/q4yWR/rkgFY9UFl2RjSpgBl5SXtCdbH9/HNnJKS0sfR0TGBw+FAe1rCtAEAi8/n8zp06LDr7Nmz/kZGRqSKIsN8PlZW6oU+ehJTweFaEZ0KOKXVXB7S37D5wlFt2mzFo3OkQUuYq6ura5+HDx+GVVRUNCVxIGLQpc7CwuLEpEmTFk6cOLH6Z06YDMD6PiePvnrV6nlBUVIZh6NPQ4jJMA1B+Gw+v2hYa4PRAwwMbpAFjIT8YXh4eJw+cuTIEAoAFp9Op7NnzZoVuHnz5vVk5yMNuW+ob0JkZnR0dKtFixYBgNWNKoAF64B+lb17997h7e29ZPDgwbD/pFoHCwdO1gQGzlu1YsUWOXl5Po/HowTEEeGHsIMSMsfbe3NISEhAfRjcuM6aOnWq3oOHDxNepqW1p1q0nk6j8TEM4/Tt23fdhQsXgog2OpABWESkRvasjAIyCvxuFPiTACxc37u4uDjeuXPnUGFRkR7VGowC+wH8Hh4P8Vu4cMnG9es3SNPf+N3kr6HWIwOwGorysnElSQHCII0kB28s38I38+XLl3sPGDDgKoPBIFWzBwewTExM9j5+/HgBgiA1ZNJT4AB49PWrxZ5naRfl6HQNPsE0IXBAa7g8pF/L5gtHtZU+gNWvX7/+Dx89OlhSUqJFwqEGsJDfzdb26Jw5c+a6urr+tIuWDMD6/s45+DS9dVppQVIFl9OMMICFonwOn1/TXl19lU8X02CyQAbOn/Xr189bunTpNhaLxSdjKEF6G4IgnGHDhm2Miopa8zNgs7HoE2nOA3RDWlqauru7+44nT56MQUikz9aZH6QLQgrA9SFDhozx9fWFFACuNNcA38YwTNnS0jL+0aNH3ZksFil9S3aOAgCLy0WsrK3fnT1zprOenh7oHKmmTeIgWUBAgOnxqKgrOZ8/a4PlT3YN8B7Uv2LQ6WUBAQEzli9fforofpUBWFSoL3tXRgEZBX51CvxJAJbw3KXdvXtXa8GCBTvuP3jggiAInUx0vCjf8QuhXg4O904cP+6kqalZLu3z9FeXu4aevwzAamgOyMaXBAUoGdCSmEBj+Aa+mS9cuNBn6NChCRRq9oAjxuvRo8fea9euUQKwHn79ah7+4uVFFkrTJANgQQRWPwP9AFcjo2Bp3ogA7fr3798v9eHDg2VlZWRSmiCGmW9ra3vE29t7ngzAorYj9r161epNQXFSGYdNPAILACwej9NGvcm6BeamQWQBI3w/7dq1a6K3t/dhIYBFOMIGHHSIMLG3t9+YkJAgA7D+v/A2fcSIEcvi4uIWISjKJAMO1pEyfocOHTLdJ08eOH/+/DfSNj5BH8XFxXWbMGHC6dKyMi0URSnV8SK6YwA3AgBLR1e38FZysqWhoeEH+IY0143r4I2bN/ssX7p0E4YgDKIpvnWcBujSiRm1afPs2LFjg62trbOJzl8GYBGVHNnzMgrIKPA7UeAPBLAE5Um2b98+fPmKFftrampUKddihHsYDMPUVFUrExIS+nTu3Pm+tM9TScvgjzJHhKVh/vGViZ6zkp6rJL4nA7DIUVFUTurKBS7zdZ8hN5LsLXEoIAOw/t8pRKgCWBAxArfgo0aN2nX06FF/BEHIphDSqABYsCQehqH9mjefOKJt62MyAOu/W+F3K+KOrxBSCNMKShJL2DXNoc2bOEoAfwZaItcCWGrrFph3Xkc0ogP/Dq7A9+zZM8HLy+sIVQDLxsZmY1JSkgzAEhIY9vOBAwec586dG8HHMDVJpN8x6HTMz8+vf2Bg4GVpp9TB/BcuXOi2c+fOMARFlSQxfyJyDs8COMphs9EVK1ZsW7VqlR/R94k+j+tgFxeXv2NiYgZQLVoPxhPM387O7tKZM2dGk7n1lgFYRLkoe15GARkFficK/GkAFvBOuGYFFxeXc+fOnXNiycmRqlFa50IFw/h89Pz588P69+8f29gALPysE865rl0MfpsgAvtbtk9d/0kI+OHfgH/Du4J/fhVwSwZgfV+LicjKf/wn/FIff6aujySUDYEcCJ+Bi3s8uh+XlX/k7XfSpQ2xFkIObkNMsD7GxDfz3r17/WbNmrWZQsoTFJ0uX7RoEaR0RJNVZrAJqABYGILylRmMT4qKLNuV5uY5ZOchDu1lEVjiUKl+ngFehKeltcgsLrtSwma3JQtgtVJXW+cvAQBr3759E2bOnEkJwOLz+dyuXbtuTE5OXk02Iqx+qF9/o4B+SEhI6DxmzJi/y8rLdalE8ghmDRFJHA6yYcOG+f7+/tukDXgXFhaq9B8wYMfjR48m0Oh0GtUUBjKUxwEgU1PT1OvXr/fR0NAoJfMdcd+BvZmXl6fo4uKSdPfuXcpdF2k0GsauqUG9vLz27ty504uM8dxYASxxbsOleaaJy9PG9NyPaPatecroR4x74tAXd1p+B9qKs966AAYxijaOp/9gAAv5+++/x4waNeoYr7bBDqUoaPw8GtB/wImwXWHuhoaGpMqnSEoqcCBKBIyg5eTksPLz89Hs7GyVFy9eKL1//x5lMBiohoZGSzqdrl1dXa3MRZAPNRUVetXV1XJQWgHqt6qqqr7i8/ktWSwWg0ajlZSUlLyvqamp0NbWRlp37MjtamZWpKSkxNXT0+MgCMITgneCOqLSvgwkSy9JAVig61gsVoWVpaXv9evXDxGtw0l2/tJ4T1RWYD+8fv1aLiMjQy0nJ4f/+PFjhcrKSrR169ZtORyOBp/Pr+HxeJkVFRUWUB8FamaDf6KoqPiYwWAYQ5dPGo2W9/Hjx0w5OTmkS5cuVYaGhqimpmaxmZkZyAnIB/wjCnZJNQtAGjRr6G/KAKz/v5FAly9ffnjdunUTKQBYXBRFy9atW+fm6+t7mUIEC0UAC+ErM5mfFBVkANb3NtjvGIEFBb7j3r5VelxctudjRcUYGkGjBI/AkhSA9ddff02YPHmyDMCSsJaHg7a0tLSJs7PzuXv37tlTvUHFa0JNnTo1JDw8fL6UASz66dOnWy9duvRg5vv33SmnL1CjLV9VReXLvn37XEeMGHGbrL7+2RRwY/HFixdWvRwckktKSphkmoSIjgN7lc1m0yIjIyeNHTv2mNBoJlTHqyEBrLo3mHUc5h/ZJYI1it6YCwHcX+b2+2fy8qO/i9AJv80V0KJOhIE4Q/xDL5F3/wgaikWc2u5sAhoToG9d2RSAAtLSK+KsQ5xnvsV/AvL0j86psycFQzd2MO9PBLBwYKW8vFyrX//+t+/eudOaakSw8JuItpbWh0uXLvUxNTXNrG/e43YLztOcnBy5jx8/6iQmJrZ//fq1TlZWlmlubi5NVVW1NZfL1S0vL6eDH8DHMP2a6mr1yspKpoKCQl55RUUTNpvNBICBRqMhmhoaHysrK3UYTCZLTk6umsVkQrp+pYKCAqasrFxZUVHxWklJqbJly5bvWrRo8dbW1jbfxMTkXevWrctxQAfX29KmCYyTnZ0tX11dzVRXV/+mPVBcXIw2bdpUsD/nzp17KerECVsAXIiC1vj+hkZLPe3tgzZs2LDDwMAA4/F4pJsAwUGmpaVVKW2d+S1ZKS4u1kpISNC5f/9+5/z8fPXc3FxDNTU1o7KyMl51TY0m4FQ8LrcVAJ0YhlXJy8vn5H35YiSYK4ahNDqdp6WpmVFeXm7AYDIZ8nJyJQwG4wPIkIKCwldlZWXa169f01u3bp2lpaX1VV9f/+uQIUM+WFlZZUC9bCGg9UvoTXHOlfp4RgZgCakMzv+8efOOhYaGjqXQNU0AYK1du3a8n59fPNlNSDUCi48gfBUm45OigpwsAus7u+h3BbCe5uXJx2XnbH5fWj6TTiN2qyZpACv6zJkJY0aNOsJkMqGWFZkaWBDazrWystp1+/btRWSbItSHIq3PMXBDY+HChTu3bNniJSkAy9zS8l3c33/30tTUzJGG84E7RXPnz+9z7tSpfV++fm3J5/FI3/xChiyGEcJs/sUmQco3gtR4eHisCAsLC4HbU2kYmDi/Ll68OHnIkCEHGUzoXo5RWjefx8N0dXWrrl+/bmdkZPSYDL8aCsCqYygz8/LymMXFxc0LCwsN8/Pz2Y8ePWrDrmMEM1AUk1NQYDr07PmMxWLJ6evrP9fT0ysR3nj/EbeYdaIKgOVQRw3Jzc1Vf/fhQ5cP797pfv36lVFUVISyeYJAgH9+oHyVlZWxJpqaWEt9/bKWLVs+hX2upaUFD1bXBQWlsQ/qU0dSGesbYKpCWlqawcePHzu9efNGqQDoy4FL9Nof0FZdXZ1rYWGRrqCgoNK+ffv76urqVdCARCR9pNGBOXWcOIEIIAii8P79e+aXL19MP2VltfyUm8sqKCpA2Zx/yxMNIi8YDLqRkVEeOOooin4yMDD4pKOjAwoZ5OmX2JN/MIAFAfr8xYsXr9+0aVOAJAAsSMtnMpmlmzdtmubp6XmWrP9DdO/W2a+MpKQko8TERMe4S5ccsz580OfxeLpsNluxurpancvj/T9QU2tA1Mo9hgnyvL5X1wgACuHf4XkcqEYwPh/kHAEASEFBoZxOp5fIycmVaWlpfezZs2fykAED7jj263dLCFD8C+Amus6fPQ/7+fLlywrHjx9fEBcXZ49hGABJP/Tx6QyGFYA1BKuN/GcqKsrKnxgMxsufzfFHf+dyuYixsXFhdHT0Qj09vY/SOIPqyAo9JSWlR0xsrPWV+PjueXl5zXg8niqbzdbjcrms6poaeaF9KUpDuC3C++/8p/mQSBTuP3IismbBrYi8gkIlk8FgMxiMKhaLVaCjo/NmwIAByQOHDr1va2V1G39eGuunwp/G+K4MwBJyBRxsDw+PiCNHjoyhCmBt2LDBbe7cuQ0WgSUDsH6+1X5vAOuzEMAiVhxb0gBWbGzshGHDhpEGsASRQTweZm5ufvb8+fOeenp6hfVlFP1cghruCfwQjj13rv8wF5eLEurihzGZTM61q1e729jYPBR1aCW1UjCwUlNT6UuWLJl16/btDRwOBwwE0mcQ7GEwHMn+IO0Bwr9NOnY8cPHiRV9pdSPE1xgWFuYxZ86cA1T5hUfM2dra3klOTu5Bllf1CWCJ1obIzMyUz8/Pt3n69KlJcnKy291791oWFhQoVlZWQj00tKqqCm6/v/lTVVUtwxBETl1dPaevo2Oqrq5upZWV1bXOnTuntG7d+j2KomyB5YhhAgeNrGw0lvfq3tx//vxZMTc31+rFixcmT548cczJy0MTr1/vWlpaqlVRUQENHX44dXBU5OTkMFU1tRJlJaXSzp07V/To0eOEhYVFRseOHRO0tbW/QioE7tg3lpQQ4XwUf+aQicE3INA3u44KL1kEBITolKSkpL6JiYnOiUlJDpmZmWolJSUqUHfue6C5sopKOZ1Gk2+qoZFvZmaW69Cr14levXq96NKlSwKAWULnht6QqfDfiHyUf/LkiXF6erpFWlpal6tXr7q8f/+eW1ZerlleXi7H5/G+u16gE5wZ8vLyPHl5+UoFRcVyU1NTTvdu3aL79u0bb2xs/FJFRSUf5wlO38bkmP3BABYEAWOhoaF9goKC4vO/fgW5JH0WA4/pdDoP4/Nrhg8fvigqKiqsPvSviP2gdPv27V4HDhzwvHjpkn1+Xp6K4Ayg0RAGgwEXUyDHuCz/UKbF0CH/egTIBp8HUBeD+sNcLsqtvZjjKyoq1lhZWr4YN27cmpkzZ6agKPpVWtFYsL8SEhKU9+3fv+/MmTMjhev9IU8hOogi2//Z3nB2E6WdCFiD8Hk8xKRTp5zL8fGOenp6rySpJ0Rpnp2drXEvNdXp8KFDnteuXu1WUV7OQFCUBvYg0AMuNkF2cPAKUCqq545wLYKIXhgH/j+c1UAzAd0wDM7kihnTpx+1sLC46+zsHANlLaQlK2T51NjeIy1wjW0hVOcDm3/MmDGR0dHRo6kCWMHBwW5eXl4yAEs8psi6EIpHp58+BTIMEVgXP34OziqrmEFr4AgsCQBYCCh5KyurS1FRUVMMDAzy6sMo+imhG/gB/FDLysoydnBwuJ2VlaVK9QZVcKDyeOjho0fdx48bd5QsKPIj0oB8hoeHK5+Lidl79epVVypRSAw6nWtqavrp2bNn+lweTxCJQuYH8tS8efPURQEBHtOnT38pDfkCfmVkZKh6eHicvpmc7Ej2fBEx9sBIRnx8fPZt2bJlJlmwpj4ALNxBjI+PV7t9+3bn7Oxsg7dv33q9ePGiY3FxsaLAyK4tqi9wAoS32d9EYcCOBGMP3hGUnRASBBwULS2twk4mJlmtWre+oqamdqNdly7PpowdC84zhI78cqlx+N5ITU2Vj4uLa1FQUGBRVFRk//LVK8d3797pl5SUKMJ+FYB1KAr0w+hCw/h7DgnQD/4B2kHnUsFNci0NMXl5eUxbRyffrHPnhy309ZNVVFRud+vW7eXQoUOLEAThNiQNgd/p6enN3N3dY2k0mirZej2wbkVFxcyTJ08Ob9q0aVndNNSrV682uXDhgmleXt74J0+e9H337l0LDodDwwSBGYIoC0gpEsho3Z9QNgVRlThf4H+qqKjU2NnZXdfX13/MYrEujhs37k337t0L6hsYxPd6Tk6OfEREhE5OTo5VSUlJz/T0dMfX6el6RYWF0AwEQksEixM4c3S6wCn/kYML+xHOaFFnGXSzsrIyR1NTM9vCwuKxqqrqW2Vl5WumpqavbWxs8jp27Nig8iTKuz8VwBJsegyjzZo1S/Px48cXUx8+NCe7r3B6gsyAV25nZ/dXdHT0vKZNm0JknlQuEXD9GBkZ2eLu3buDHz9+PDE1NdWyqqqKgdJoGIPBEBwrfAGkRD5Km4xNIbSdQGnwQBdAjTFVFZWKVq1bf7Wzt4/U0tM72bdnz/Ru3bpBnTCJ0ecfAOvAgfCYc+dGwvp/dkFIJYK9Lm2oAGHwLpvNxjp16pQTf+kSAFivJQVgCWkgFxgYqP/p06ehDx8/nvjs6dNOkGYJMguyIgJYkWU56feEdg+fy+XCjSoqLy/P6dKlS5KOjs5GR0fHD7Nnz34PZ7AkZYX0ZBvZizIAS8gQ2PwuLi6R586dowRg0Wi0sh07drhNnTq1wQAsDJHVwPrZPvtdI7BuvX6teLOiakdWWfmkhq6Bde7cuQkuLi5UIrDA2eJbWVlFnzp1ara+vj5EYNW/NfIzYWqAv+PpRCNHjgSdNZYqgAXh/+yaGpqHh8e+AwcOzJKGgwVzXrZuXcvzJ07EvHr92pSCwYypq6mV+Pn5rd29e3dA9qdP2gCAkPnBujU1NPL6DRzoeSA8/II0jARY9507dzoMd3G5UlhQ0IzqbR74HspKSmXe3t6D165dexOXBaLrrycAixUUFNTj2rVrbllZWf3zv35Vq6iogEgawY0nFcMRB7yEoIzAJ4Numlra2l/09PQe6eroXPX19b3o4ODwVqS4bqPWH7jD8f79e7WoqCjbixcv2peUlDh/zskxKikpgZb3AjAFaAdyJASlSNtxwugBuHEWAFtAQ6gBqqujk6Otrf2gTZs2SRMmTIjr37//u4aiIcjIo0ePWtja2t5GUFQHwDeiso4K/HWMpqKi8vrhw4e2hoaGJSLpQvQVK1bY3Lh2bXrWp099c3JydGEMIVglGrkh9rA4XYGmQFsmg8HR19fPa96ixW1LC4tDCxcuTNbR0akUOrtSk0kRB1bhwIED5tGnTw/Ny821yc3JMSssLFTjCyNg8bVSbaghdGIFQQtC5xhjMhg8HR2dr5qams+tra0Pu7m5PTA0NPzYvHnz6oY+z/90ACsiIkI5IiJi19WrV8dhBGumfmcz8Fs0b37p7NmzHmZmZgWSjjYU1Y9BQUGOT548mZGRkdGjuKREEbcBfgbaiL2JJfSgsNQBgHsIS06O16p162eW5uZHZs6cebx79+6CCEVJ7IN/AVhnz44EfjY2WnyPpEAjDgBYpqYSA7DwtcfFxWkeP3589MuXLye+fPWqC7umhgUgp/D8JH12Skg8/vUZoU0E/42npqZWZGhg8Kpz5877AwICzhkZGf1z6SKNsX/FbzYq5jUkAWHzjxgxIjImJoYygBUWFubm7u7egAAWyldm0rMVFeS6rTQ3z5WGU4bzCpRE//79+6U+fHiwrKxMm8/nE83pkUVgSUjwgRe1XQhL40s43Pa0n+S/1x1W0imEZ86cmTAKamCxWHyMuFwIQpv5fD5mZWUVGxkZOaNVq1b50pRlCbGhXj6DR92sWbNm7urVq0OoAlhwoHNqatB+/fpdi4uLG4GiqES78uEgy/r16503bNgQU1lVJU+BUPwO7du/HD1x4rBHd+4cjImJsSe7fjAc5Vgsdk8Hh2UXzp/fLqyDJbFbUQGqgmHo4cOHB8+ZM+cIh8tVI+OA16EVv13bthDN0PfAgQOk65VJEcCCMwBoqDZnzpwFp06dGlNaWtoSIuXAQQZHQxqGtRCQEJBKUMxHUbFSTVX19aBBg6KmT59+2NzcHCJfGmU0Fs4LmHtYWFgXqAPy5s2bHkXFxVpcLlcOogggHQYHrSjsnR++KgLqCEAVZSWlcg0NjZcDBw6MnjZt2gFTU9PiWn9LcpEDP1sL6Lq0tLTm5ubmKTQ6HcAlUnYrvKeirIwDWAL9dv78eaXk5OQpZ86dG5+dlWWOIQgdr3EiKRkVcU4FsqeuppZtY2MT5+vru9HBweGDpBxYUTqKzJ125syZzrt27Zrx8uXLPiUlJQZsDkeQootHTEhqnXX5KApmAYAI0TDQNENLS+vdgAEDwubNm3fd0NAwr77l6Rt0os3x8Rm3f+/eMARFFXkUInqF3+Y79e17q0+fPi5+fn6NtuyBMIqJMXLkSP8rV66sqmGzBbJP5Uej0Xj6zZo92LRpk/vIkSPfSBLAwqOuzpw5YxgaGrokLS1tcFFxsSZchghBIlJ6gcp6ibyL7wfhBVSJhYVyhaL0AAAgAElEQVTFpYMHDy5o0aIF6TO8jizXphBCBNYfDmDhOu3EiROtw8LCAp8+fepcVV2tjl8ASUvnEZGHHz2Lg54QAaukpPTF3t7+jIODw1IfHx+o+ykRwFNSc23I7zTqDV+fhJEkgLV37163CRMmNBiAJSwyyOvTXG/0SCOjs2RTTMShvwzAEodK9ffM0VevWr0oKE4qZbP1Bac6gZ+kAazIyMgJEyZMIN2FUJgnjlpZWV08fvz4VENDwy/16TgRIF29P4rv6aVLlw4BQIhWWwuKEL9FJw205nK5qFGbNrdiYmKGdejQQaLRbvh8AwICDgUHB0+iMxiCyAYyhIPCqQMGDIiaNWuW54MHDzxXr169gSyAJdSV/O7dusX3799/wqJFi0olaXTD+mCdo0aN8rlw4cI6lEZj8Xg8oiB/XTLxbbt1u921d+8RwStXFqMoCik5hH/SALCSk5N7gkMB3Z+8vLwOXrx40QmK1kOJFKrOEdEFAlDG5/N5dBqN369fv6tLly5d0LVr1xdkI9aIji/u8yL7QHH37t1+e/bsGQb1iECm+VDsn6JTKe48vvUc0BC6SkH0gLOzc+rmzZtnm5iYpAqNaIkCvd+bp2gEFkqjCaKjyKwJUt2UlZTSHz9+bAMRWFDCae3atd5BQUGbuTxBmRxS+ojoXOAMg4LF1lZWL/fv3+/dqVOnREk6JSLyxAoPDx+7cePGjZnv32uyWCzQuXhtF6LTlsjzAoAUQfhcDgextbF5u2/fvqkmJiZQuLheQVF8MX9yBBZ+Nnl4eAy4fPnyvoLCQtJ7C6cnAFgtmjfPHzFihMemTZuuSOosxe2HxMRE05UrV4bevHnTns5kQiGhetmzEhF+kY9ApA2HzUZMTEw+hIWFudvb2ydRjcKSRWDVEhjXf/fv3x88efLkA+lv3mjQ6XTS9qakeU/0e3BeQMmIUaNGnYyKipoKHTCJfuN3ff6X3PzSYAZsfldX18jTp0//8hFYIPDVXB7Sz0A/wNXIKFgGYP1XYqikEJLpqPcNmYXbWIk7APtevWqVXlCcVM5h60NVGSJ7BQewWquqBC20NF9H1vjAD5DDhw9PmDJlClUAC+vSpcuJ06dPz27ZsiWkfUicZkRo1FiexWm8ZcsW43379sVnZGZCahopx+4f45NO5zHo9PIN69dP9fb2lmgXIZgvtHcePXp00r379y3Jtm2GlD9VFZUCOzs7zzNnzpzbvHlzj23btp39+vVrUwrVSPlmpqZP7O3tB23btg0iVqldQ4sIifDWWMHJyWlTUlLSDAg/IuuA45+FPdDP2XlfYGCgn5mZGRSkJrUnpABg3f5fVEWv7Ozs7pGRkeufPH0K7bmhSCkluaSy5/BULgAMOpmYvLO1tfXz9PS82aVLF0EKGZVvS+Jd4EFKSor8xYsXu9178GDN1YSE7qC0BeBVI3HOhKmaGNSDaqanV9SvX7+NHTp0OGRgYFDg6urKlzYdpQFgbd++XSEzMzPoYlzcJJFUVkLnJRX+Qz0tcGB1dHVLZ86Y4WVra3ve2dkZ2sdTkkmQpxs3bsjFxMR0fP/hQ0B8fPxoDofDZzAYAEQ22D4UpRUuT1wOh2ZkZPSyV69ep4yNjQ/7+PhkSasT7A/AUeD5HxmBJXT2IX2267Fjxw5/zslpQyKD4l+kBQCribp6gZWVlUdsbOwlsmeT6EdBpt+/fy8XGRnpGHP+/J6HqanNhPqxUcgzWT1Ap9Ph0hBp165d2sQJE3xsbW1vODg4kO6ELAOwasGry5cvK8bFxQ2PiooKyc/P12CyWILamWT51NDv/WPDcDho7969E4cPH+49e/bsNKpnRUOvSxLj/7JMlcTi6yhJupubW2RUVFSjALAe5eRYhL96+zeTTtMU3MIS+OEAVv+WzReOattmqwzAkgyAJUjRCw9nVFdXm+Xn56sQYMm/HmUwGHwtLa1MLy+vbEkroYNP01unlRYkVXA5zcgAWGwev8pMU2ORl2nHXWSNDxxc2bdv34SZM2eSBrCEXeI41tbWIbdu3VomLGRIycAny7PG+B4YLEuWLFG/detWdMqdO72oAljCLkLswYMHLzt16tQ2SckmLg937tzp3rtPn5sAHpONFgMDWUdbO3P48OEe27dvv7tgwQIoDn7uwYMH3aCTDEk+QU2pEl9f35krVqw4KUl9Cd+6d+9ek6lTp+5Of/PGhWokEhgzCoqK1Xbdu/stWLAgnKLBC+c/OmnSJI+rV6/uLCgslCMDmoCcwA2hra1t8uTJk6ft2bPn6Iu0tK7ACzLfI8nDH74miPzg8xENDY3ivn377pwxY0aovb091GghBf5Jao6xsbGKMTExHgkJCXM+f/7cVqQ/d6OzzfCUbmVl5RILc/PYqVOnrnVzc4PaWFJNy5QkgKWkqPgmKSmpt5eXl//DR49m8Pl8ObKRoFRlQCiTmI6Ozls7O7ttUC/S1dWVdF0ooNPbt2+Z27ZtG3Tt2rVVme/fmwgiVGrzQqlOV+LvC9NkBJ3a2hoZnfPx8Vk/fvz4F9KWp7rgyB8OYNFOnD3RcdXS1YcyMjIsqDRWAbrCJaiiomKFnZ3d3Pnz5x+jcj4JATbQg/K+vr7DYy9c2Pjhwwd9Go32y0bT1N1EAhsLw6D73gPPmTMnzZgxI52s/P/pABYO3h89enTM33//vaaouLg53n1S4sqrAT4Id58QbW/aqdOZgQMHBqxateqjpGz0BliORIZsdEaSRFZF4iOw+T09PSPCw8PHkO0SRafTuVDEfevWrW4zZ86kkkKIpuXntzn4+s2FKh6/HUowNegfAMuw+cJRbWQA1rfEgUwEFhzukydPbpKRkXE4PT29IyhMooYhGG0MBoNjaWkZvGrVqsOWlpZw4yIxJ+rg06etX5VVJJZxOIQjsFAE4XP4WOHk9u2HdWumfYfsvHCHYM+ePRO8vLyoAFhQw53btWvXjcnJyavJRoSRUAe/xCsgjykpKXLLly9ffTM52Y+y8UmDJih8vo2NTeRfR4/OxQsdUyUGLg+LFy+GbJaFLDnAScilAYGM6uvrx+3cuXPawIEDv6akpDCXL18eeDM52ZdsfSABAMPjIWPHjDkZERExVtIA1pYtWyx37959KPvTJ2Oy68Z5ACCjpobGh+HDh08PDQ1NpLInJB2B1at379taWlrPY86enQaXLg0FDHxPXoUZYnwlRcWyYcOG7fD29t5gaWkJgIHE9K+4e0W4V7HVq1eP37Fjx7byioqmjbGo7LfWA/RiMZkcFxeXPUePHvXB1yItY1pSABbscV1d3ax+zs7nzpw9O7a6ulqT6n4Ul9/ffQ5FIe+bryAvnz979uxF69atOyJA9wlGYuF7bdOmTSO2bt26obi4uPWvUsQZ1kqn0dgtW7Z8deDAAd8ePXrcIEMDMryQpRAKGiRouLm57X6XkQG1LymBQ0L7lj94yJDNG9evX2VoaMgmq19x3ixcuLB/bGzs1g8fPrTmYxikov9WfiuQHMCJnvb20fHx8dMRBKkguv+FYN8fWwMLl4mQkJCR69ev31ZUXKwvlGUyaqHRvgOX+kwGo8LZ2fnQ2LFjl7i6ukLUbr3bL42FQL+VIiBLVFxRLlu27FBQUNBEKgAWiqJlwcHBbl5eXpQALLjM2Pr42eGXhYUT5Ol0uD8Tm1c4gOVkoL94jJHRJkk6ZHVpDLT7U4q4A8g5evTopm/evIl5+fKlNZnOZ3AwMRgMtrW19dKNGzfukhSAhdd1if3wwTHhw8ezXD6mTDTKBUUQHoePFcwwNR5ooan5iKxiFAGwYB/8BV2tyISm12Zb8Tldu3bdJAOw/qvdhHSmjxkzxishIWFzeUUFk6pxBxFOGk2bXjt8+LC7k5NTHhWABJ+xcE6Kdvb2Z2/fuuXEkpMDoExsfSYC3sBtJc/Z2TksJibGHyLy4LZywrhxw68lJoYXFRc3IVNfCgewHHr1Sk1ISOhGtqbUt84f0L3dunUblJ6efriishIKuFOqfwVzMzQweL5mzRr3MWPGPKfCH0kBWLBuqC+kqqpaAu3HysvL1eupnBCpIx/mKC8vjwRv3uzr6em5XZrn4/dkAuT2/v37nYcPH37hS35+M2kVtidFIDFeAt3MYbNRT0/P0LVLlwY3bdZM4tHEIvrjny6EVGpgCboBMpmCDo41NdDBnrAKEoMyxB8R1npEmunpZZ08eXKGjY3NFSIADq7zIyIi5k2ZMmWLoL0WijZorSuiVACesGtqsOYtWxYci4wc1bN792Sy9geRsWUAFkbLzs5Wd3V13fXgwQNXqE1J5mzGaY5H1Tn17bt7zZo1/paWlrDRBCHXRH8YhjFWr16tmpCQEHXv3r0+EGFN1b4hOof6eh7Xp/9b79Zly5YtJLL/RfTkHwlg4TKRnp7eo1evXgn5X7+yhDWv6ot99ToO2C/KSkrc1atXj5k3bx7UuBZgdfU6iUYyWOM4wRuYGPgGCA4O3urv7+8jdLgJp6NABBYAWEFBQeN9fHziqRzAAJZsffz06MvCIjeiABYCBZn5fERfUfHp8q6WVpJ0yGQA1uim6enpsWlpadZkUrYEt410eo2Njc3i4ODgMAkCWFCznX88/e3yq9mfVsvT6YQ7fQkALB6/wMus4wAzTc3HZOUXd4yXL1++at26dcvJ7ic41DEMgxRCiMBaQ9YQamD1ItXhwflevHixeWRk5OG8L186Uo0oEBZhzZg2bZp7QEAA6Sg80UXDHGNjY7uOc3M7z+FwNMhGisHekZeX/3L0yJFhw4YNu1d7WYzRQ0NDzXaEhh78+PGjKVmACD6kIC9fGRkZ6TJ48GBCDuT3GIwDjP379/e8devWJjaHI0/FABcaKbzOZmb7/vrrr4D27duXUzFcJAlgAQ3waNTGAgx8jy94KlwzPb2C4ODg/q6urqTBeqKbG2geHR2tlJSU5HXq1Kn5X/LztcHYJvqdxvA8gA4AKENHPXd3dx8PD4/3ZM+MH61HUhFYuIw2RvmEOfF4PExTU/NrgL+/q6+v7y1x6kGBPEF9oNDQ0CH79u0Lr66pUUURRNAj/lf7gTxBlFxbI6OkqV5enn7e3hLtYvctesgALEF5EqXhI0bsuBQXNxFqNFKuF4Rh/G7du++ZNnWq/8SJEyHClTCABXzJyclR8Pf3X3H27FlvNoejSPRC9leTf/Db1FRUCoKCgsZNnz79KtGz/U9OIYyKimqzZcuWvx4+fGhLZzKRX7W4vzgyK7jw4PGQzp07v929e7ejtbV1NhnAU5yxGvszv6ThJGmi4k7FsWPHxk6aNCmSyWSC40wawFq7du14Pz8/qgAWbcvjJ0dfFRaPJwxggeXDx5Am8qwPQd1sjFEUrZI0zURQ/z8uAqtxA1jpy69l56xmQVc64qHW4IN+ntnZpL9ZkyZQJJBUaKpwP7HGjh3798mTJx3JRjTiAJa9vf3GhIQEGYD1jU0sTCPUmzJlyv6MzExnAFWJprWKfhZorq6mVtK5c+cp8fHxMUSNqO85CfPnz5+5Z8+eYAxBFMgUE4Z5QJfEVoaGLy5evNivXbt2n4UAFpqRkaE6avTo3S+ePx9Ddv2wbnZNDW3KlCn79u/fP1MSBgEYlNHR0Qr79+/fcv3GjWlUoyIgfRDBsOqJEyf6h4eH7yG7P0V1tyRqYEnrbJHmd4VRL5iZmdnFOd7eC93d3V9LQtZ/AsSAvcXw9PR0OX/+/JavBQW6Qpn4Ze0wKEauIC9f1aNHjx1WVlaBK1eulHhKpiQBLGnKFNVvCwBBBOGadOx4dcSIET7Lli1L/5FM4gD5woUL+508eXJzbm5uh8Za70pc2ghSZJjM6q7W1lFubm4Lpk6dWiTNfSkDsATpeMyJEycuOXXq1CIERZlkzuc6/OV3s7UNnzZt2gIyAJaQJ4zp06fPOn78eDCbw2H89uAVGC61+59naWkZtW3rVp+uXbuC7Ittg/+JABbISnx8fJOQkJC1N24kTkVQRBLyK666arDncHt19uzZwaGhoVAfGFJ1f8V7C0o0/GUNJ0qrrvMyDmBduHChz9ChQxOYTMjEIZ5nDQ4GRGCtXLlyUkBAwN9ElI/olPCxo99lLrjyIWuTHINBGFCDlA4VFit3eedOZioqKvmSpFfduf5pKYSNFMASFGQOefI08mVRyWgmjUYIwILim9VcLs1QRSXOw9pilB6CQHczUgpRKL/yNjY2l+7fv9+Twn6Cw5szZMiQjSdPnpQBWN8GsOAGXs3V1TX0yZMn42h0OuRdktbrwghBbh9Hx/UhW7cGGRkZccjqMZguyMLr16+Vp02fvvHu3bvTUBqNQeZ2DD+w3dzc9vn6+s62tLSEaFeBfILhNmPGDO+//vorCEFReTIGOHyLw+GgHdq3fxEbGzugTZs2n6isWzgvWkhIiOrff/99KCkpaSjUpKGih+F8oaFo+YoVK2YEBAScksD8JFLEncqaGvJdAUDO53MtLCyOHjp0aFGHDh0IOQxE5w57Yd++fR23bdt29N27d+bQJJaMnUF03Hp4HlNRUSlctnSpn6+v71FJgL91bAyJpBDWAx0oD4EDOD3s7IIX+fsHOTg4fLeGEMhOUFCQ7sWLF6NSU1N7NMa6c2QIAroYQNE5c+YsCAwM3C3NFJk/HcDCzykvL6/Jhw4d2oGgKFwwUUpzh4xyxz59bgwePHj07NmzCetUAKzPnz9vMXPmzOiioqLmGIIwqFzKkZHBhnoHziQtLa1PgwYOnLpnz54EIjb4Hwpg0f5Xb7p73KVLh758+dKKbAR+Q/Gb4rh8bS2tj+Hh4aMGDhz4kKo9SHEuDfI6aUenQWYrpUFxI/LSpUt9Bg4cSAXA4tNoNM748eOD/tetLpBCNwkBX17m59tve5aWyKLTBWUNiCwfAIkKLhcd29ZoilMLfVKFQcUZD2gnA7DEoVTtM9JKIYRvl2KYRuCtu/dKOZxWdBpKGMCq5HBoZlpakXPNTCZQcUJwAMvY2PjS69evKQFYdDqdM23atI0hISFQxF3s2yjxOfJrP4nfVk6dOnX58ePH/TGE8g0UIPeYra3tvmnTpvmRuUGt43xCFFKrgEWLDn3+/LkbWQMDB7D+ioycMX7s2P2i8gkGb3x8fK+xY8dGV1ZVqYMhR4arkD3BoNNLIiIixgwbNuwaVXkD3owePVrzdXr6hZcvX1qRSTnG1yGoLcLnY02aNv167erVQSYmJqmSmN+fGoGF0xUiiDQ1NHKdnJymHDp0KF5azjL+XS8vr3Ph4eFDaHQ6pWLJZORbWu8I0t+4XMTMzCwzMTHRWlVVtUCSY/0pEVh0Oh3jcjiYhoZGxahRo9b5+PiEfO8CAa/btnz58u1B69d702tLBlACyCXJMyrfEqZTIlpaWqUpt2/bGBoavqZij/xoLjIAS3ABRAsICPAIDQ0NEUZIkzo/ReiM9bS3f+Xs7NzX398/hwgIA98Qpg+2XLp06eJDhw7NZDCZ4FdRiiwXPUdhPpDWCBd9kC7J5/F++m2URoPSH3zYo9AFEUo1ULko/J5MguzTUJTbu3fvjf7+/oE/ArDrfuNPBbDu37+v7efnF5KSkjIKariBPEsC8AReCGWFD9H/IJeC9NqfdHRFadD/HUVYLBakzgpkRRLzqctvQcAMglR7Tp++YOv27XuJ7jMqOrqxvEsIFGksk5b0PHAAKyUlpY+jo2MCh8MRVEUjOg4eAurk5LQnNjYWCvFBAUPCUSz4fF4VF/fc+vDJDdIAFodDG9u2tadTy5bh0jQAZACW+JIiTQArs7xcd8+T57cAwKKB+BKIIgTAs5LLpZk2VT88r0vnKVTkBeQ3Pz9fyc7O7tKbN296UIjA4tHp9Io1a9bMmD9//kkye0l8zvy6T8KBHRgY6LJhw4b9PD5fhUwE0r9Wj2F8W1vb+/b29sPWrVv3hQrdYW7e3t6OFy5cOJSbl6dHpkYXjA+1UTqbmT2Pj4/vp6mpmVsHwEKzsrKgEG3M/QcP7KmkrKIIwh46YsSaE5GRm6nUDsQdzJCQENfly5cfq6quZpI5U0QMb0GEWKdOne4mJSb2V1dXL6HCF9xRaCwA1neOW1KR0ER3MoZhfHs7u7iJEyd6eHh4FFAFBr/hWIAtQd+yZYvrkqVLIyFCQVpggzgyIY2oL7B9oKj7xIkT98yZM8fP0tKSdATvN+jXoBFYQtnE7bh/7EJJOiUgcww6na2vr//M09Nz1fz586EO3z9RpqI0wfkH6fkzPT0vlJeVsYSAKFHR//HztR0SBariBw8S7sQsziQF8sThIM5OTnGBgYFulpaWpeLItjjf/gYtaXN8fMbt37s3DEFRRR6PBylrVH58p759b/Xp08fFz8+vUNL6hMrEvvUu6KIDBw4MmDdv3l9cLlcNIvkojoHZ2tjccXR0HL5y5cp8snwDQGbbtm2ztm3b5vW1oMAI+EJSd4E/VyvDGIYoKChU0+n0QgaDwZOXl+cwGIzPfAwr+o69DO9CfVkdNputWVVVRUdRVJHNZstXVVUpCppv1JZtIOwv/oDGfDNT0xtDhgwZL6SfWDXEcADrwIED4WfPnRv5067MtT6CRMAVIX0J+7oi9g3C5XAQExOTnEuXLvXV09MTO6Uf9zeWLFnif/bsWY/yigo94CVJORbIisDwQFFESUmphk6j5cvLyxcxmUwlGo2WzcOwEvQ7dIMaciiCGEA9w4qKCgU+n69VWVUFNjkIEUBfNJBBIk3Zvicnwnlyu3TpErl61aqFAwYM+Ep2r1Hc7w32uiQ3XYMtgurAuPLJzs7uamtrm5Sbm8sk08VAWFeDZ2Zmtjc1NXUBVQArraioxeEXr2+Vczn6go53BJQkABJVXC6ts6bGdm+zTtCxC1KBSCuY79FYFoFFTPqkAWDh8nsrL2/I0bRXJ5k0OotoxF5t50oubVLH9oPtdXUvwqrIygsYRImJiZajR48+W1hYqEf29gwiYlAULThx4sSgoUOH/pEhsuJIF/A/JSWl09Dhwy8UFxW1gDOUinMFh7euru7X8e7uvTeuXftCnDl8zzBOTU2lL1+50vNWcvL66upqRTKGHg5gTZs69cjevXs96naNw2/Rly1btiIoKGgFS04OulcSNsKFjirPpGPHU9u3b59jb29PGszA57hs2bLADRs3LqHaZQ6PQPP29t65Y8eO+d9zbonwSkg3dNKkSR5Xr17dWVBYCISrF5sA1y0wHsgqmNKQUvefn6D/ruAnMCjJyI8YNMGaNGlS6jVrlvOqVavuSToKC74XGxvb0d/f/+Tbt2+NaSQabPxoDUJDFsX4fASl0SBKFbwplM5gcHFjmcfl0vm13YoEdgREFEiannCGKCsplSxYsGDS4sWLoYSCROyNhojAEpXP7wE4QjkR1K6hIpcAoGpraX3u1KnTmRUrVuzq0aPHmx9F78NYd+/e1Z8zZ86hhw8fOjKYTOgCKrF9izc5+EfmMEywxrryJFizFOUJdB4NRSume3rO2b516zEAfiUlU/jaZBFYtRFYUdHRA2ZMnfpXDZutJgFwnW9hbh7fZ9iwiUGLFxNOIRThDZzh9BUrVnS9du3a3OfPnw+tqKiQI6Q/4dzAMKyppmZeM13d93Q6/VELA4MPZp06PW3dunVVmzZtKtu0afNBR0en+Ac6Fn358qXu58+fm6Wnp7MyMzN1X79+3TQnL69vaXFxx+xPn9rU1NQwqJ7xIvsNmjmUzJkzZ/CSJUtuiXseAYD1v2YxioePHNl2NSEB6oF+97wExQx7uqCgQKGyshJAOTGOyW8/Aue3kqIiW71pUzbChy1K/Fuwr7k8Hq1d27bvIiIihuno6EBDELHPDzwTISgoyDkmJsYrIyPDuqS0VFPcM05whvL5YGtgujo6X3R0dJ5Vs9mPLSwsCozbt79vbW2dq6Kioti+fft3ampq5T/wr2jPnj0zZLPZyJ07d9Revnxp+vjx445sNrtTeXl5s0+fPhlUVVUpCUK0JPADH0lXRydr5MiRU7ds2ZLY2MFyCSz5X5+QCBElPamG+J5wAyhaWlqmPHnypJMwJJsQfXAAq0OHDrufPXsGEVikC6vhDtDm1EeJb0pK7ZlEi3KjCMbjYWhTebnbC7t1HaSOIJRv7L/jpMpSCAkIrDQBrEtZWdNPpmfsVWYx+URvH0DxAeC5zMbK3FBJ6QlVAGv//v39582bd4xfGxFE6kYTwrxpNFpBTEzMQGdn53rrFEaAnY3iUaHuUrPv2fPS7Vu3bJgsFkbRocFYLBZ3fVDQvLlz50INEkGHS6KLhfciIiKU//rrrz3Xb9wgXWAd7DAmg8ENCAiYvXLlyn11DTrcebx69aqVq6vrtbKKCiVw4InOF54Hp6lF8+ZpXl5eHr6+viBzYt1+1h1LOCfW+PHjY06cPOlM5jyp802wDGlRx49PGTFixGEq+7OO81avAJawMQMCIflg8CsrK1c109Or0NHReYqiaIUwilngkIPMVVZWmuXm5dGzs7P1eVwug85gQDoJ/J0wQPk9eRCc2zweNmbcuLBjR4/6StJRFsqBvKur6/LY2Nj5CIqyKO7Nf5YhNPAhvYEGDoShoWFp69atL+nq6hbQaLSaL1++vIRnmEymgnrTpqZlJSU6ubm5yhkZGbbZ2dmqXB4PFUYrSuYWHoAcPp9v1rnz6X1793qbm5uTBoBFeVWfABbIJ4wtSBmBTs76+p8MDAzg9v0zdA+u9QkBa0WZuXl5VlkfPqiCUw1pI5BeJK5c4lFdKIpyjI2N06wsLdeNHz8+wcHBofRn4BU49Z6enrOh5h+Pz5cXd8yf6UOBPNXuBVRdXb3AyMjoq5qqao6+vn4eg8V6n//160sahqHy8vIKTZo06VBRUaH36dOnJu8/fLD8+PGjak11NR3OHkmm8AAr2hoZxW/dunWWs7Mz5bqE39HTf3wEVlRUlOv06dPD2RyOEtkUfBHaYu3atn3v4ODQOyws7MPP5M5fNY4AACAASURBVO5Hf8cvWQ4ePKiblJQ0IOnmzcCsrCwd2Gs/AtqEoD7CYjKrevfufbpZs2YnTExM0t3c3HI1NTWrQccLxwWQ5P8jtL4zGXweIsAFduPGDe1Tp041q66uHphy587E9PT0tnDOU9Xvwssa/py5cxcEb9oUQgDAgg63tJycHONPubnt6Dwe8j3jBS45uQjCT3v2LCg+Pr49BfsEUivZlhYWh3v06HFZ3LnWJbMw4pKupaX1ZciQIXdMTEzYROVGyCN6eHh4szt37ow+e/asf1l5uSaDyQSd9l17Qei3IxpNm1b27dv3hJqaWrSFhcVLR0fHPENDQyChKBnFkRUYS4ARCtfAioyM1L59+7Yyh8MZ9PDRo6EvXrzowuPxSF3oitIF5s5isdg97e0Xr1mzZqekutoTpX1DPU/KyG+oyUpzXNxJs7e3T759+3Z3MhsaDz00MTE5feLECa927dqRDh/G57Mx9VHi25JSezJd5SAKi8vnFbl2aDeyt67uTTJO6M9oLovA+hmF/v13KQJYrLX3H576VF4+mFHbzYTQ3gajXJ5Jz19s3qWLpqJiDhUHGWR3y5YtjsuXL49CEESVy+USBrCEdTB4qqqqhZcuXRrYtWtXWQTWT4yrFStW+AcGBq4nG4GEf14Q8cTlInPnzl23bdu25VQArGHDhum+f/8+5eWrVy2IyqQI0II109MrHDBgQLe9e/dCdMI3f3DR2rNnz3u3b99uTWcwSEXrwI2WmqpqvqWNzZSL589forIPcnJytHr06PHgw4cPLYXzIaYsRJ6GFEpNDY3CN2/etFVTUysk/SFRL6M2ord+AKzaehJ8Tk0NqqSkxLPt1u3uiOHD79nZ2Z3Q0NAo0tfXz0JRFACCf/2+fv0Kt5bKd+/fHx4fHz8k/tKlHpUVFRgD+EtQx/3QUUIQRFlRkX3r1i3Hjh073qLCd9FxwBk8duxYpzVr1hz6kJVlJgHnUPB5wY01lwvgFH/AgAHJkyZODLWzs3uqpaX1TnQfi+whwXmQmprKUFBQ6JR48+agQwcOuN9/8KANg8EQgKOSkCk6jcbX0dH5PHDgQI9du3YRbgX/rTnUF4AliDzi8QTRVKampi/GurldHjp48O7mzZsXffz4sdTExIQjQk96fn5+q+evXrWM//tvt+PHjw/9+PFjUyYLgp9/0gm29vKdx2WzaYuXLt3q7eW1QU9Pr0gc4BTk59q1a4Y+Pj6HXr1+3YNqZ9N/6Xwejw/8GzRoUAxEdxkbG9/ncrnlzZs3B4f/XxHZ+KUByJOWllZb6AybmJg4+H+da81LS0vVyerfuvzHu+La2dl5njp16pQ4YAMROZZFYNVGYMXGxo4YP378geqaGmUERaGgGhEy1n0Wa9WqVVaf3r0d9uzZ857Kh+rqr5SUFOuQkJCFly5dcmZzOMrfKpeA11Broq5es2379oB3b96Erly5UrAvYd8Riez54ZlRm2oJm5mflpbWxcfHJzghIaEPS06O0gUiHnE+Yfz4C0eOHBlKFBT62fP43oVxJk+enHwsIoKUvys8iDA5FqvCytLS5/r163CxRjlK8mfz/5k8Cc9YABgH+vj47Hv+/LkOnQHZp99NjeV3aN8+fcOGDYsGDhx4HrdTJekvi4yNJiQk6M+bM+fQm3fvekPqNzRco/KDhTn06hW2YcOGAEtLSyhbROrSlcocGupdQk5uQ02yPsbFnTQXF5ebMTExPcgAWAINSaNxW7Zs+Wz16tXu48aNe0FWmPD5nH7zZuLlj5+PMCCFkKDBTkMRXjWXV9GzRTPPCW3bQg0hiQu2DMAiJp3SArCe5uVpHUnPuFjN51kQjT4BRc3m8ZEO6mp/z7foDAcmqYgbEWODNnv2bM+DBw9uQhAEusIRLgoKdIIaGG3btn13+fJlZwMDgw+SPFCIca1xP40bJE+fPjW3s7dPqaysZAlSjkn+cANq2NCht0+fPu1IJpIUN0JWrFjRe+fOnWfLystVieovodMEFiLPzs4udvDgwR4+Pj7fjCTFZdbPz2/r9h07fMiG88PawaHv07v35tDQ0NWGhobf7QL2PfLi/ABje8jQoZdLSkpUScXVCwfAAcU+ffo8vnz5si2KooRvJ781V/xWWdophEKHAVNTVf3arl27O9OnTz86ZMiQK02bNi3D09+EslHXHoHbTqgXhf93pbi4uM7bt2+flpqa2resrEwXQxC4iqdsx+Apmv7+/sFgCErCUcZvhMePHz/98uXLG8vKy5Wp3s7jQIK8vHyVoYHBI39//13jx48Ho7tCyGPRjS/qheI0EkQcwLNlZWVN161bN/vYsWMehUVFzUFPS4KWsH+cnZzCli9fvsjS0rKaqt6uDwBLOEdwZJIcHR3PTp48+Wznzp0/i+wbAdgruo/AnsJTV27fvm2ydu1azwcPHgyFW38Mw6CV9b+2HR51BUWaVVVVcyZMmLBly5Yte0G/4nz9mcoG58zPz88hOjo6/Et+vqEkoq8gqRRu8bW1td8uXLhw/YgRI87p6OhUCvcm7qTD1L4pT8I9Cmc8fevWrdN37tw5Oy8vrw2XxwMaUNqbwhQgrLeDw8mRI0fOnDFjBugMah6fCJFlAFYtgBUXFzd07Nixh6qqq1VQFAU98DNR/O7fwaE2aNkyy97e3uHw4cMSAbAEwie8cElNTdXx8/NbmJaWNqGktFRDJDrqn6LbWpqazyFi29vb+7Zw3/40cobsgnFworCwUHn48OGxd+/etafSYRa3v9q1bfv25MmT9p06dfoirn4QpdNP1iPYl+7u7omUACzQHXJylVYWFr43btw4+JN6eeKQWCJ8wvXOuXPnDMLCwoIePHhgX1lVpSe8XBCsXRjpxjVq0+aRi4vL/DVr1qRIGuSsu2BcViIjI3stW7Zsb3Z2dhsIRaey3wA07N6t2zNra2vnzZs3Q9SzxP18cRjXEM9QOlwaYsLSGhN3gBYuXLhz69atXmQBLDqdzoX8WW9vb/cFCxZQBrCi371zvP7xcxyKIBDFQpRfcAxxtRUUQld2tVxKtibXj2guA7CISaSUACxafFZWn9Nv35+QZ9ChCCdRwAjj8DHEUksrdKap8TwqAJbw4GBaWlruefbs2WRB8RoSRqzAoWSzaXZ2dueSkpJciBzgxDjy+zxdWlqq2cnUND07O7uJIEKFpBGKAyYGhoafnz19aq2oqPivouniUAyXIW9v77Dde/Z4ku2SJQiRZjKrevTo4bdo0aL9Dg4O37xBxQGz9evX99+wadPZivJyeQplBqCo9+kxY8ZMnzFjRjlRgwCX9927d3vP9vbewWJB1hillDfofMTzmz/fJygoKIzK/hTlXX0AWMIQd07rVq3uDBs2bLePj89FAK7qytDPbsVFdUhaWppSeHh4v5SUlMUPHz40l0RHPyFgjvbq2TMuOjp6jKamJvCdvBdX63DRQkJCVC9cuHD4ZnLykJ9G5oizsRAEU1FVLbCxtj7s4+Ozy9nZ+V8OojhzrqOPGUFBQX1iYmKWPX32zBa6hJLR13Wmzjfu0OHJtGnTXOfMmZNJFXCQNoAFNFNVUYF6OFGbNm0K7tmzJ3S9+4f3P6JpHVox16xZMygqKmrKh6ysAZDaKRrtAPqYxWRWmpqaXndwcAibOHHitY4dO4pdmxTocOHCBfk9e/asvnHjhheHy1Wgyis4Z5WUlKqsLC3PeXp6rhsxYsQrnJfiyJKIw4y/Rt++fbvlmTNnFt67d28wvxbII3+bUvtVzMDAIHva1KlDAgICnkrSFpABWLV66sqVK4NHjRp1RFIAln6zZlm9e/eWKIAlCs7k5eUprFyzZuTtmzdnZWRmWnM4HBxoxbS0tN6OGD58nru7e4KlpeU3GyGIp2rFf0oo41hoaKhdaGjosfcfPpCOOBeOiinIyyM3btxwNjc3vypJmRfds+7u7knHIiJIB2zA3pSTk4MILN/r168fkkQElvhU//GTuG58/PixWkREhHNsbGxARmZmF/wyEbo6GxkZPRo3bpzf8uXLk+tr7vi8QkJCJqxZu3ZPeVmZAsWaWPyWLVpkjxs3znnt2rXp4uptSdG5Ib9DFBBpyLlKdWzcKVi6dOnI9evXR4PDRQIwgjoIEEL/YcSIEVO2bdsGRdVIG8Ewp8iXL1s8Ly77u7iabUyj/ZNTS4QWfBUmM250uzYzzDU1c6kak3UHlgFYRFhRi/pDLQ0bG5vFwcHBYZLIWQYehDx57v2qsGgDk06TJ2owghLgYhjXsbneKNe2bWNwMIDYyoSWJoahOTk5Cra2tns/ffo0niwQjANYgwYNOhcbGysDsMRgBvB91KhRt87FxNiQpTs+DNR/0dDQKEtOTrY1MjJ6ScaAwjBMztra+sWjR4+opPTxmzZpkt+zZ89pUVFRF3+kv0BufZYu1U6Oj495+uyZtUgNAjGoJ/II3CAbGLydM2eOy9y5cwVF7InocaGBwpo2bdqRgwcPjqGaUgA32lA4NMDff5C/v/9NKvtTlBDSBrBodDof4fPZdnZ2x/r37799wYIFAAwAAEkpgkKo3+ihoaEdL1y4EH7t2jVrQoV9vyMNMC8VZeW8jRs3Tp86dWoc1XnCMGvWrDE9cOBAHBQApmikCgq001C02mXEiA1OTk6h7u7uP6yXJI7Q4xcOYWFh5lFRUXtSUlI6S6AoOKauplbu6+s7aMmSJZTlVZoAFpRZUFFRqenVq9e+SZMmBQ0dOjSfbPQdHnEXHBxseeLEidAnT55YCVuqQxdVVEdbu2jw4ME7W7VqdaBv3745RJ1r+H5AQIDe5cuXL75ISzMlrd+EggEX/zQU5fTp2/fkKBeX5e7u7tlUOq+KAgwhISEtExMTt52PjR0mvEwh7WsIIiUQhLt46dI1q1asCJQUgC8y3z++Btbly5cHuY4efaSqqgqihSlHYDXT08vq3r27Q1RUlMQisL5xdtF27NhhfOfOnYk3btwY9yU/v3mTJk2yx7u5LZs4ceIpSXZCFVOX0v4XaasQumPH5qvXrs2EouTivPetZ8D+BZ2xMzR03MyZM08StUF+Ni4OovzOANY/tiyG0d6/f8/au3evyZs3b5ZfunSpX1VVlVybNm1y586dO8Hb2zuxvsArkTkBwMAaNWrUuXPnzjlRTLmGpkuFfvPnD/D5P/auPK6mrf3vfc5pTkQhQ0K4Mo+V0CQNUqIyZKg0kBIyVGgQlQxlrGgic5QKUVRKKLPrJm5k6MoYUjScc/bvfY6z79vPazh77VOmff6596O9117rWc961rO+63m+z4IFl8TlH35Lh36EvyNvKj9C58XZh385p9autQgMDDwK6UsoABZstjIyMjwtLa2FJ0+ejKSzMCBcfHdJSatH72oO/VPzXpf9MS+G6pzxJFjsu4PbKDnM0OhxSRxO+acbiYmJifGVq1fj3lVXt4UbXIrzAgPia2lq7nJ3d/e0sbGB8ttfDYEkjW9ubq7m2LFjgduL8q0xcMq0bdv2WUVFRVccxz+I0meYD1tb29Z3795NLy4uRjogixvAAllUVla2CL59d8cHLtdWqByUdISPYURLSYmSwR3aj7NVUyujYwBBRseOHeu7dOnShNLSUnCyqeqDYCpIAGv16tVRvr6+buLewEWZ75/pGdJ+LfTyWrF506ZA1IgncsxkSlVERITj/PnzKZGGk+vz5s2bI7VHjMgmK/SgyJPNZvOU2rTJ2759u/348eOBxPeLtgF0Lzc3VyY0NDT8zJkzjqiROWAjgQPMz8/P29/ffx3VAxOM//Xr1wojRow4defOHQGpPs1ICUjJ+Kdd166a5zIzK6iAaV+TeVMCWKT+2NraRh44cMBTHFUTP913QA5hYWHdjxw5knH12rXudA/0oGsYQdRZWVl579u3bysdOZM6s2rVqsWBgYFrhQ4qrQNNfV0dy87O7nBiYuI0ccqT1M0XL150NzY2zrt586YKHc42MoLT1dV13/bt26fT2U+EIAPr2rVrnbW0tM7jLFZ7mtGM/6oRXDYCWY2ZmVl8XFzc0latWkF6Gu30CxhvcXHxABsbm7Q7d+92hBS9wYMH35k9e/YkFxcXAHEFBQqo2ENShuHh4fY+Pj5xPJpVB2GOuA0N+Lx589YGBQWtbdmy5Rs6+v65sRAEwTE2Ns44c+aMIZ0DGqlPhoaGhadOnRolZh4j8JUYAOsnA7A+AQLYMTEx5p6enjEWFhY5+/fvh4IxYuO6orhO2evWreu3ffv2hCdPn/YlqJ+H/uv/1tWxvLy8ItavXw+FRcT6+50ALOEeIljnDx48kNixY4d7SkqKp52d3eyVK1ciE8/TmRDSnm/evHm8n7//3pqaGnkUvKHRuYhYvmzZNP9Vqw5S9VfpjON7v0vpoPu9O9uU3ycX9Lp16wZERUWdevz4sTKiQkEOL09DQ2NxeHj4ti+lvIgyFvKmec3lqwuf1rxfQ3xMI6T6g/5w28vKLV0+dOBWcRt2uhFYQqeJAbCozqrweQFJcMk9zesvX8TX8rhwiKMMGBEYxm8vI53ZvX3badNUVYFjiJJz/cnBkhMYGDg4ISEhoaKiogefz0fR2X8BrLNnz2qOGjXqUiNDjSipX/s1ctOKiIiYFBAQsK+6pkaCDu8S3M7X19XhNjY2Jw8ePDiBCg8WaUv9/f1XBAUFrUIllceFVc00hw/fm5iY6AlV1r4VgQVOipWV1Yy8vLzN1TU1UFGJMmgAYwcAy8XFJWb79u0uVB0CGP/p06cHzpw5M/Xlq1edEPeRfxUWAP7Ro0fnGRgYWPv4+EBhEOSo3k9BoKYgcRdkDfP5mKaW1oW01FQzRUVFiBSiFMUmymolI16cnZ0npKalbXr79m17lPkmvyWgouDzieHDhx9KS0ubo6ioiMy3I+wby8LCIvvEiROjaB7gMdDHAQMHlqQePTq+U6dOAqJ2celBIwcf27x584Q1wcHbXr950x7hskwgSpLDpVvXri/Onjw5TKVbt8d0+tsUEViClNH6enzAgAE5GRkZk6FyI5197zPrCsvOztaeMWNGnKGh4eGpU6fGm5qaltGI7hLwUjo5OSXHx8dPoK1PfD7xR8+ef8Jhv1+/fgCqNYk+7d27d2hoaGjcnbt3+6DaQQG5Pp8PqWFvM06cMBgwYMB1cfWXXKceCxZMjYmO3obhuCxq1eRGOsA3GjOmwMDAYKKXlxdyISdRbKA4noH19bNFYH2y3gRV3woKCkbKysq+GjRoEFLEuJhkKSiy4OLikvC4vHwE6n5E+l8mpqbXThw/Pho4DpvC3v8OEVifs83Pnz9vKyMjA1yEr8Qx76hteHh4KF+6dCnt6tWrw4n/Vi2k1BwJ8Pv4+HitXr06nKq/SuljP9jDDIDVaEIADHB0dGx948aN9Fu3bg0VGh8UGRH6+vp7Z86cOc/Ozg4MD/Kt3qFDh9gPu/ec9Li6ehuPINqgOAF8DON3kJNJ7tVa0cmmWzfKnC5f01lwAJxWrza+++BRXG1dXVuEKksEnyD4fbt332VuoOdpo6fHRGCJaCRI52vdlZsOj2vebeQTBAqKT2AYwevSokXEyMED/bQxDKpYIANYOTk5nL179447duzY9tevX9O5LedzOBxWYWHh0H79+l0Vl8Mqomh/2sf+c2BSvXz5cl5paakqnZQlwQ09l4ur9+hxLS8316Rdu3YvRHWgyBQ6S0vLmPT09OmoAJYwIuaDq6vrgoiICOBX+CbBJ9ifFStWDNmzZ0/C02fPeqFEa5AH8J49epSkHTo0Xr1v3/tU9A/2jbCwsAmBgYFxfIKQo3sggkgRfT29bW5ubt7m5uZiqzLThBFYhFqXLmWenp4O8+bNy6ciO6oLD+b7xIkTygEBARE3b96cCJc8dKLdYK/u2KFDzt69e+21tbUh5Z7y3k1+//bt231GjR595c2bNxJQtpzq2Bq7JoqtWlW5u7vP8fPzO9BUDirIMikpSSYhIWFddk6Ok7D4BlK/YQ+BiPHdu3dPt7a23kdHB8QNYAmIwfl8QkVF5Z/Q0NCpU6dOFVvVSXLOSB3YtWvXiP79+98dNGgQHJS+ab++4WtJ6owcebGwsHAgzRRx4NepW+br67rc23t3E+qTgLNr586dq85kZ7s3NDRAKCqSPpERnWFhYUsXL168no4+feZAy0Rg/aQRWJ+uN3HpBaqthrV07949JTs7u51Xr141Z7HZLJQqc2CjGurrsd4aGnfP5ecPh0sgUf0vUfr+u0VgfbrmxSlLUeT9uWdgv42IiGiRlpa261xBwThhBDll+0gCWAsWLEhZv369jXANIJ/hUMfzPd6jLKzv0cnm+iYoVEJCQot9+/btys3NNUdMSYDbcf6wYcPydHV1bYKDgyGihYs6BjCIqY8e/ZH/+J+EOh5/CAqiD/krMhzOU52O7U2tunYVOwnmuqs3jf+pfhfHIwjqABaOEzw+n9+lhfwuiy6dPTWUlRkAS0RlAV3IKK2Uv/b6YfTjmurJbATWaojuYOFYlVorhQUL+/ffQzPllXXlyhW2j4+Px/nz50MbGhqQDpP/Agg9ez7Jy8sbrqSkVPG9HRMRp+S7Pgb6AKTR/6m8En/+wgULRPv17xjg8C4jLf1q586dU21sbHJFBTahH2lpaYPtHRwOV1dXA5kp5SgoQSdwnK8gL/9i9+7d5mZmZldEcTrg2+fPn1eaO3duZMmdOxA5hlREQJhGyIqOjgY+pFhR9U/oGHLs7e19Dh486IvhuMTnSn2LqigwZjlZ2arRo0cvPHr06G466/PTbzYFgMX6mEJfq6uru8rV1TXc1NQUqjiKJWLsC06gIDUgLCzMMjAwMJbL47VEPSRD+0CW36VLl3uubm4Oi+bPL0QEsAT6HhUV5TnP3X0jVOVD2beFOgfRJ1BUIN3e3n72zJkzIdWLMqgmqr7BhVl2dvaE9PT07S9fvVJCAYCFcuRDyqO7u/vOzZs3z6ED3ogbwBL2BXOdMydoc0REYFM6/MJ5pwtcCfz0ixcvDh8zZkx2fUODDMpFZqPDPjF0yJCzs2fPnuHk5PREVLsuqg59cljk+Pn56ezatWvn0+fPuxOIxSwgGrehrg4fM2ZMemZmpqW4bAoTgfWRxP1njsBqpNeCmkEoeiqud8j939jY2C83N3cJi81G2v/BlQeaE0VFxbuXioo01dTUPlt9GbXfvzOAhSozcb8HeENGRoZcbGxcVPqxdNvGFRKpfIsEsNzd3Q9ERETYieqrUvnGj/osA2A1mhlY1FeuXOHMmzfP8/r16yGo6U/gIPXo0eOZk5PT2EWLFv1JhwMCNpdKDJNfV3Bx8zsudzoiSks08PmYqWrnOVbq3XbQ6c/nDkHrrl41/ufd+zguDQBLVb7FrhFdO3vqMQCWyLYC5jHqxt0Oj96/OfW6rk4DBcBiYRiPzWKVDlJu7TDzjz+K6ByOQFeBLNHFxcXv7NmzUIoeHTzg8TBDQ8MTmZmZ45vqhlhkQf8kD8KGmJmZKb1169awzMzMORCSjFqJEIYMFVVxDKtesmSJfWBgYLqoBx3Qy0WLFjlGRUVFEBgmI4zkoCRFMoTeyMjo8KlTp2bgOF4rSgOkY2ZhYbE0MzMzAGexwIGknFZLft/e3v5QXFzcDAzDRKoWBt8vLy+XHjFiRGTF06czWDRLJAOg0r5du+cmJiYgz1PidNCbBMBisXidOna8GhQU5DB16tQSOvZElPmGZ8g5t5potTf1aOpU1Ig/EsBqq6z8QldX1yExMTELpf9kaqOTk9MeIYk/chVKiDxprahYbmpq6hwbG5vV1M4p2JCioiLVWbNmJdy7d28kaolvMkWvd+/eJdnZ2UPbtWv3HlV3mwLA6qGuftfU1NR4/fr1j1D7Jap+0n2O1O+jR49OmThx4j46nHpgT1oqKFSOHDnS9ciRI0ebQZ/AJ2hrbW298/qNG+NQI8cE+tTQgHdVU3t48eJFI2Vl5Xui7kdfkz8DYP06ABbddSau98Fe2djYLDp27NgqDMclUfwP6AtEbsnLyd29fv06A2CJa3J+oHaE2Uoca2tr34yTJ325XC5lLmfSfgPFwMyZM4/Ex8fbiPN8/wOJ67NdYQCs/w9gCSJI/Pz83PPz80Pr6uog5BlpDiUkJLBly5aZ+/v7H6ejUMINVmr9tRu+ZW/eLmWzWRJ8glpEA2z+9Twepibf4qLPsEH6wsOYWEIMoX+CCKwaiMDC0COwFOR3aXXuxABYImobCeokFv+9LP/pkxAJqJpJMTwfyGX5OE60kpQ86tC39xx1eXlaPCBgkAMDAxVzc3OTCwoKdFAjb0BfYfO2t7ffHxMTY8cAWKIpBemMT5s2bcLp06e3va2qUkaN/BACWHyMIGqnTZu2PC4uLkKUXkAfiouLJXx8fABAWk5gmCRKFAcc3Bvq61lr1qwJ8Pb2XkXloAV9iIuLM4JCAu+qq4EXifI+J7wBJTp26FCanJxsOmTIkPuiHHSFRQx6LFmyJP5+WdlwOvIXjpnfRVX1TGhoqPPEiRMfi+PQRs6juAEsmDPQF1tb2xW7d+8GvsXmKmEumN/Y2NiZrq6u8XT4gWAMLeTlgUfFKTMz8zgqgPXgwQMpZ2fnA9nZ2ZYSkrAE+EhRiDDfal26nI+MjLQ3MDB4gNIfUdbtpzoxadKk5SdOnFhOJ4IQIr/lZOXKjx8/ZqSjo4Nc3lucABasa4g6NjIy2uPs7OxuYWEBFA9i8YWoyJnqswRBSJiYmBzKzMycQBeg7dihw307OzuHVatWXWiOscP8LViwYOHOnTuDeHy+FOpaYLFYXDaLVRUbG2s7ZcqUHHH0nQGwGACL6lr81vNCfXfesWPHBj5BSCMUthJ8ggGwviXpn/vvpP81YsSI6bdu3dpaW1eHQgHzkXOSy8VGjRp1PScnR7O5/K4fQfqUHfsfodNN2QcwPi4uLsbHjx/f8erVqw4omy2ZAuXl5bUqLCwsgO4BHN4/vp70/QAAIABJREFU9fAf3dQHZQc5LLwNn0+dmPjjRTVRNamXuq2BiorYbnIZAIuaNoJusNnsOk1NTZ/169dvGzJkCFJZeZD7s2fPZKMflp+ueP9ekyMoUEntoA4lxBt4BFdFTnqT3/ChK6kQdX9u1PD91atXqx06dOhoSUlJX1QAS3hw5/n5+TmsWLEike76oTZDP/fTAKBAIYrIyMj4JxUVfVCdJxIwAiRRQ0Nj1+HDhxeqq6sDqfVXEX2Yq/j4eLWQkJAdDx890kcBcEjSXkVFxQ+Zp04ZDRw48AJVAAvDsBba2tpphYWFuqgRCxCtwOFw3gWvWQOVGFNFOTCB/L29vbUPHToE8lejEcUL6Wwgfq6WpmbUwYMHvVVUVCC9Gu1G5TNqLW4AC+QjLS39On73bpuJFhZnRZGXOFYbaffKy8u7Dxo0qPD1mzet2WAPERqHFEhpael6Y1PTFQf3798kLHpCCeAAnb9x44a6oaHhqbdVVV2A/wrlIkxIKs8bOnTo7l27dsH6A/5KSn1BEIEgpSgqKsrM28cn9sOHDwCCI/mJgvXDZteEhoW5uLu5HUZNfxUngAV7npycXLWBkZFX0oEDUF31u1QrozIvQvm30tLSOl5UVKQtKSUFdoHynAi4vwiC6KOhkbE5JsZp1JAhz5pLn7IzM7WmTJ+eCmsTNSqVw+HwWDj+funSpR5+fn67xWELGQCLAbCorEVRngV7tWnTJpvly5fv4PJ4cqg+GANgiSLtn/cZsD1JSUmsLVu2zLh+/fqW2ro6OZTUcBLAGjFixOW8vLwRP8OeJq5Zo7wJiuvDP2o7cAAJCwsbFB0dHf/PP//0RjE+JIBlaWmZkZycPI5OBBbISQBWVFcrb7r1V9qb2npNFk592iDapoHPx1VkZTOcNHrN6NiihViqWTEAFjVNFgeARR4ojt1/OC3twYMYaQ5Hko9SbQ3HeXVcbrWRqqqztXrXIzR5SgT8A0FBQWPCw8OT3717h3SbQEoTwAtfX1+rBQsWnKK7fqjN0M/9tKAqZVJS1xXLlsVXPHmCXAWHlAJEfKh16fKnj4+Pg729/a1v8fnBXC1atGh0cnJy3LPnz7ughM+TG/LIUaMK9+/bZ6iiolJL5aBFHkqcnJwi4+LinFEPfB+z/4h6fT299SdPnoQosK+mEZKpYzPs7WecysiIqKqqkke5ACFlL4xoqjc3N199+PDhtd+SPVXNFSeAJSD9b2jA+g8YcGnf3r0TevfuDQToKBgS1WH8+7wgSsXMLP90ZuZw1CgsAQgnJVU/ZuxYnyNJSdtQbjPhALMjNnbS4oULd9bV17dAAXFhUFDEgIXjdW5ubsvXrVu3BRUAoipQ0IuKioo2FhYWx6E6EgDAKIAJ9B/HsLpZs2Yti4yMBFkiVboTJ4AF9qxTx46Pp0yZ4rhmzZpmA1mpzkHj52H8Z86cUbe2tj5V8/59F5RDjlCfIEKyfuLEiUHOzs5h+vr6yNysVMZDXrZZW1sfKCgoMEeNIBPoE0HUTZsyxTc2IQHAZdo/BsBiACzaSvRJA7BeV/j5uUds3BgCEYcoPhA0yQBY4p6ZH6s90v/S0dGZ+eeff9IGsAYPHny5qKiIAbB+rGlu3t6A8bl+/brClClTtpSVlU1D4fEhCfhUVVVrcnNzNVVVVYtRnTcSwIL/pty7tzit7NHaFpCSQBCUeV3YOM6v5XJfOP+hYTq0g/INKofCL82CuAAstRbyCZqqnRYwHFjf1neQ+T/v3rXecqv4xNu6+uEcKFuPQWaE6D8ANLkEgbeUkrzsqa2pq4JhtKI7SJApJCTEx9/ff40w4oBSnxqBJvx+/foVDBkyZGJ0dPQPX4ZadKk3/ZNgv549e6Zka2u7A4jcgXME5fBJ9hR4sJTatLlnaWnpsHXr1ktfA1FIYNXc3NyqsLAwuurdu9Yoh3cSwAoICPBZuXLlWqoReGQ/Tp48qWtubp7D5kAtAepRJCQA0/uPP47v37/fpXfv3l+NWIB+FhcXc6ZNm7b01l9/rWKz2UiRN41kL4hgCQ8Pn+fk5LRX3ICQOAEskjPMdc6cfZHbtwNnWZNHCn1uNc2aNSttz9695qhcOxiOA+E2bqivH7Z9+3Z/NTU1AC0pkaaDHixcuHBmVFTUZgzHZVEPMABgSklKVh45csRqzJgxBeKe/6/t6RiGSZmYmCRnZmaaogLAUD0TIwj+OHPzmMNJSYswDAMgmjKoKTYAS1h9sFPnzrl7ExMdRowYUU51bpvegv/vF2D8e/bsmTx37tyoBi4XOaIDbDmLxYKIOEcPN7ejzbVGSdu7ZcuW5Z6enkGoAJYAJOdyCZX27XeWl5e7iyPSgAGwGABL3Gsa1uvKlSs9wsPDgxkAS9zS/XXaEzeANWjQoMuXLl1iAKxfR0WojwSMz507d+RmzZq1/urVq44sFouNcgCEzRYchD179oy3trY+KQ4A669Xr4ZG37qdx8MwaRRkAMLneXyivqOC7FpbBYUQdXV12hWixAVgdZST3dNfQd7DolcvIHv96oGBdIgAHBw7dmw+juOUye+gwkfbtm2fVVRUdMVx/IMomgLRLba2tq3v3r2bXlxcPAwlRU5MEVis9AcPRqXdf3hERoKjiJJSCrpQzeXitt26OpioqUJ1M6TbcVJuZPTJpEmTjqamppohHyA/9oOvqamZZWhoOM3f3x+qr1A6QIoyl7/yM2DDrKyslmVkZPgBiSjNKCCoglenr6+/5PDhw1FfOzTAd+Pi4uQS9+7dfr6gALjLUMyUALNXUFCo9XB3NwkICMijGoFHfvfNmzddRo0alXn79u0ewogcytMOaVAdO3S44+jo6LB8+XKohPhFXQT7kJaWJrtly5ZtuWfPTgcghPIH//8LhLycXEV6evpYHR2d2+I+cIoZwBJUnTt48KCDjY3NLrr2hKrcSJBz/vz5PpGRkatZH4FbyrxTwvRV/kgdnUgvL6+l5ubmdVTtD+iBo6Pj3P3794diOA5FDJD6AbwWXbt1u5+bk6PbsWPHf1DAH6pyFCw+4br19vZeHxYWtlAIOFC+MAMAjuDzucOHD4+Ijo5eqaGhIVIhhE/7LC4Ai+RW7NmjR3J6evrsbt26QUr0dwFaqcwLjH/r1q1W3t7eUGWzBR29btO69dOUlBQrbW3ty801dlKf4uPj58yePXs7DQALKrMRffv2zd2/b59D7969aXMCMgAWA2BRWYuiPMsAWNQvKUSR66/2DANg0Z9Rug42/R78YC2QG5q7u/uc2NjYtdjHKlqUHVBw3urr61keHh4bN23atJiuQ08CBKFXrh4vq6o2kmAJukR5/sBpkWSzbgxSbuMwvWfPP+k6MeICsFRkZfYNbKk2z6KXEgNgfWVNgLzvvHwpv+9+2dqXH+qccAzjIOiBoDSBJIv1yqNv7yHdFBUf09FP0kG9d+9eJ1NT04KysrLOrI+cXCirm4C1o6+vH+7n5+enra0NB8gf/pCBMtCmegccqM2bN4/38fFJ4BNEC9QIkEbgJKE7enR4UFDQiq/NB+jBDFfX9n8WFp66fft2H6iCiDhG/vBhw64ZGRlZ+Pv7Qyoa5fknAY2lS5euXL9hQyCHw6HMEUeuCTk5ubeaw4d7ZGRk7PtaX+Cb8+bNa1tYWHjq5p9/0uKAIyOatEaMyD1x7JhVq1atxFpGuxFQgc+cOdPhzJkzW19VVgLBMuU9RdgWwWGz8dOnTxvo6Ojk0rEnKDpDzvf69eudVvr5RXO5UECT+v748dsEX0tTa9vSpUu9qQJYsAZevHgh5+jouDErK8sRqvjxeJBJR+1Hzr+ZmdmJY8eOTcYwDMjGkQwqtS//F8DavXv3CgcHh1WoJPQkl127tm1Tjh07NnvgwIFVqGv52rVrnbW0tM7jLFZ7FAAHZAAyhYgwo7Fj42N27lxApzIiVZnSeR50e8aMGa5JSUnrcBYLyR8Vpvjif/zxx7UzZ84Yt2/f/mVz69PFixdHjB49+hwOwCYC5YFQhjz17t1vQJXTSZMm/UUVXP50HhgAiwGw6KzNz73LAFjNs0+Je96auz0GwKIvccqOFf1P/vgtgAFKTEw0cXd331NbW9sSZbMly/4OGjTo4vHjxy3oOgxkFELiXyUmhS9fHCQIrAWSgw5OMEHUqbaQXz1x8MD16h95XSgfEBsdbsVShVBFVm7fwJaqDID1jeUBehD1118j7lRWxTfweeooOkBWpeytqLh7wcB+DnQPmySAdebMmTHm5uYn4RCMGn0D4JW8vHyNiYnJ0j179sSII03gx7c44u0h2KurV6/2HTduXOaLly/bAok0nS8QfD6hr68f5+zsvMDGxgZSTf8nCom0T6tXrx4RHhGR/vbtW0XUCCSwRyN1dMJXr169EhXAJPsTGBhos3r16oPYx2AoJDnAwXe0rm6Ir7d3kJ6eHkStftFerl+/XiMuLu7k36WlnVC/J1yPgiqMHh4eMZs2bXKhu0a/4GgLQB66AJYgZR5Se1RU+BcvXhzZsWPHwqbo79d0mASwoqKiFi/y8gpraGhAnm+gH9HS1EQFsFiPHj1qOWXq1G2XioomszkcHAUUFFyA1dWxnJycwnfs2OEl1KVmAbDIb50tKNAzNjTMAiAaxZ6T0WxqXbrkJSYmOmhpaT1C8TXEFYEFHErg+0BV1djY2C10wQ86NpXKuzB+CwsLz8zMzDU4iwWcOpQvBkhA1NTU9NLx48fHYhj2lkofaD4Ldoa4e/euzshRo/IrKyvhkgrNFuM4t0OHDn+5u7s7LFq06CbdOWQALAbAoqnb//M6A2AxAJYoOsUAWKJI6evPIG0i9D/7Y7cAinX37t02RkZG2eXl5f04iBwq4IRKSEhU7t+/38Lc3Pwi3RsvMIybbt1SfvHuw+nX9XUaOGKEA1x/KUpL3u6u2MrIsVevCjr9El8E1s8FYN0uKRmG4zhlR5JMIRw2fLjP+rAwSlUIITXlSkWF1OknT0MfVlXPY7Gofx9WHoFhhCSb9VK3o4q5VbduRVRTtD5dveThBtIDIE1AkkbZeAhYaNeuXenEiRMdwsPDi+g6qD+2pWm63oGtMDQ0TMrJyZmIymHTqHf8P3r1uqGurm6SnJwMN/f/A+CQAIKnp+cRSHehQaJNtGrZ8sOoUaPcDh8+nIhaWIDUyWnTprX966+/MqEqJo2IMEJz+PAT48aNm+Ht7Q2RUJ8bv6CIwcqVK0dt3bYtpbq6ujVNAItoqK/Hi4qKRg4dOvR8UwBC4kohFAJYWJ8+fd4WFRUNk5KSKm2K/ooCYMXExMzyWrw4vqamBlKRUf0bWgBWcXFxK2tr68i/S0uthRUIKfdDkO7G4+GpqanWZmZmyc0pT3LtFBcXdx82bNifDVyuNA1LxevZo8ddf39/exsbm6+m4H7pG2IEsLgYQXxwdHR037Zt297mIsWnITtB1ChE9Dk4OIRlZWU544iUFiQg6uHhEb9p06bZ30Of3r1710NLW/vanZISWdSUbuDxUlZS+sve3t5h1apVDIBFR7mE78L6yszMHGdja7vrw4cPCkJKDuSWgXCyg4rKoxEjRugdOHDgAXJDTfSiMCABLgNIu0wjWvfznVy5cuU8hgOriSawmZol/aNPPidOXcGvXLmCLV68eOaVq1cjamtraVUhZDiwmkkxfvTPCBVXxtraOjE5OXki6oFcQGKKYfUTJkwI2r9/fxjdaBIwvKWlpRJHqqq9Hr+rXonhuBSGyDPD5fOxIW2VVzr36R1Kp1+/G4DlOH9+67t37qTfvnN3GIYRLKpZcnAwkZDg1A0eONAnyNubMoCVUVkpd6PsYdSjqprJLBZaihaBYXwlGen8jq0UrF169qRNkg46UFFRITNhwoQjly9fNkZN1xI61Xw1NbULoaGhjlZWVqUoN/Y/un1p6v6RB9D4+Hj72bNnx0EKEEoUaaN+EsrKyrUB/v6TXFxcMj4HeJIpzpqampevXLnSHxXAAgCzU8eOxU5OTg7e3t7X6Mw/QRCcHTt2yKWkpOzMycmxEha+oAwmwClSUVGxfsmSJWZLlizJ/sL4WdBXLy+vbREREXNRx08eLIH/aNCgQcWXLl0ajuP4+6bQGTECWAT0d7im5pXzBQXDm/NwTMqFnJOA5cuHbt2xI/PNmzetvieAZWlpGfno8WNrlCIwpPy4DQ24tbV1GovFSsFxnEM0UwohThAQQcuVkJJSOXTgwCo+QUCaOtJPyCF3387ODgAHuMSjzGf4mwNYrOfPnytPmzYtNi8vb5yQ243yXJAphMbGxvtatGiRyWazJZpTn7gEwW3dsmW7EydO+D2pqJAVcmRSHgdE0bVv1+5v0KfVq1dDURHK+tT4o0wE1scIrJMnT5pPnjx514fa2hbiALA6d+r0SFdXVy8hIeG7AViN9+lP/B/OgwcPWFVVVWxlZWXi5cuXUq9evZLjcDis+vp66v5BI4WC96WlpbEzZ87MCg8PX8bl8SAtn/JFNzTJVCGkbB6QXiD9ZTKQoxFwhZeXl0tCMZ4XL17gDQ0NhKSkpEBXuBwOi0VTV+ByC/Rl06ZNVmfz81fV19XJolx6kkWPGAALafp/vZdIhY6MjPR0d3cP53A4SAdA4QUwr1evXsnx8fFuQ4YMEQdYwEq8c3/wtefP4rgEvw8flUsAx/kcDK8w6tJxxrguXZA5S343AGtLfn7rh5Vv0p9UVQ1jI0RgQZUrDMPqurZu7WNparxtCIbxRD2kQwRWRmmp3M2q6m0P31VPY6FF4BEsHH+n2lJhuf6AftFDMIxLJwIPVj84B4cOHdKePXv20fr6eqTKc9AOpDkQBMEfNGhQXGpq6sKfhaPkR7OApP06f/78qJEjR56VkJREqsLXGMACHfVbuXL+ihUrtpPRVo3BA/j/8+fPD7C2tj798uXL1vhHDjRKzqDAXhIET0NDIy0qKmqupqbmC1HXxufmAL6fm5vLjo6Onpp15kz4O6iKiMDxJKx+hXktWhS0bt06/0/HL1wDgps5MzOzrMzMTH3aABaPh403Nz+dkpJighqF9i29FDeApaWlVVBQUDDqc/L5Vl/o/p08rDg5OfVOS0vLrXz9Wvk7A1jbHz1+bIMKYJHyEFaO46I4tnRlCu83NDRI0WmHxWbz2igqPjAwMHBITEw8jwI4/O4A1uPHj9vbTJ4cd+Xy5bHCiD7kKQF9YrNYXKpVi5E/+N8Xwe9hNTQ0SNJpCwAslfbtn1tZWzttCAvLgLbo+C8MgPXRfzt27JjlNDu7uFoxAVhqXbo8GjNypF5UMwJY5H4GPgPpe5SXl0vX1dW1uPHXXz1uXLnS6vnz59IQCfj69WsAJ9qBvyktLa0oJSPTDicISZSsik/1GZytdzU1HW8XF6uDbKn6QWR7DIBFx1J8/d3PzAn4bzKlpaWyT5486ZSVlaX4/Pnzbi9evlR/+uyZZM27dziPx+PLysq2kZaWbodhmITQv6Dk4/6PrmAY8fLFi/b3y8p68fl8yoVSSPsnvPBkqhA2ncr8PC2Tyn3hwoXu5ubm19++fSuLnLPPYvFVVFTuTZ482T40NLQQxYFrLDno292Kija7Hzze/Ka+zhbDBGlklBcRHBUb/sOn1F5G5sT8Ht2mtm7dGiryUObY+N0ArPhrpa0fN7xNf1pbO4wN3CAU1RrkjuF4XWc5eR/Dwf2RAKwbb6u3P6yqnspGi8DiS7PYhaM7tXew6Nr1bzoAQSMAgzVp0qTFJ06cCATDjkoaDs4pVIR0dnb22rRpUxydyECK0/JLPU7ar4qKis6jR4++/uDBg1YsNhuiKpDGSd7wzJw580B8fPy0LwBY+MKFC9dt2rRpEWrKoiBilSDqbG1tA3ft2rUBx3E4uNP6QV89PT21UlJSEl68fNkdhT+GHP+YMWMunzx5chRE1Ta2laS8nzx50tPAwCCv9N69tqgRBqRDwufxsBUrVmwOCAhY0FSA0K8IYLm5ufU+fPjwdwWwioqKFGfMmBH54OHDSXQBLNQ1S2vRNHoZPQvzYyMMgEVvJmCNPnr0qNX06dM3Xrx4cToLjCQCCP+JD0mvUzTepqtPwgist1ZWVnM3btx4mC64zwBYHwGslJSUSbNmzdpZV18vDxelNKZY0GD37t0f6unp6UdFRTVLBNYngITUw4cPVU6fPq2Rfvz49D9v3uxcV1fXvq62VgZAAj5BKEA0DYDzAnI2DEP2jb4oJ7i8o6nsDIBFSws/+/KnwFVpaanko0ePdM6dOzfobF6ebsmdO63YOK70/v17WYIgWjY0NMjXNzQILmMF16sYBhXv0RzpLw+HVloiE4Elfj35JVqEFBRDQ8MbZ8+e7S08kFAHinCcLyUlVaejo7MwIyMDSKkJuqABbDiH7z2wzXr4KFqKzZLjYxjShsPCcT6Xx/vQX0nJa04/jR0MgPVN1J4tALDq36Q/rf0wjPURPKT0ExhBHK9TlW/R7AAWzHc9j8dVbSEf7Dt08CqU+f50sODslJWVKVlZWcXeunXLDNIHUR1s2BdkZWWfZ2VljRs+fPhVuuuE0sT8Yg+ToIe5uXlaxsmT44T2i7K+koAK3PDo6OhcOXv2rCGO41WfHIjALkqNGjUquaCgwBQ14gsOJywcr9q8efO02bNnZ4pj/kE/c3NzO8+bNy+u9N49XThTo/gf4LS0atWKf+b06ZH9+/f/fyTlpFOUlZU12mzcuGxU3qPGMmWz2fULPD1NQ0NDP5uyKA51ZQCsL0qRDgcW+/z582ouLi4Jf5eWjkDVN3HM74/QBgNg0Z8FsOWWlpYep06dChaSuCP5e/R78v1bAC6vdm3bvpswYYLHpk2bgMcM/GnkAyUDYH0EsPbs2TN57ty5UfUNDXK0ASwMI9S7dy83NDTU3bp1a1lTak1jQOL58+dtT5w4YXfw0CH769euqb5+80a6rrZWCipiszkcHpvNBl0BwArCwz/1Uymf7b42LhQf49P2GABLfJrzSXSeVGVlJeiK6cmTJ42OHj1qWfP+vQToBGQOwB0B6IqwkroAXIK5aPQTq65Au3T0hQGwxKcnv0xL5AFw2bJl3uHh4WuESoZ0AIR0Zh0dnRRLS0unBQsWQKQT7bz9NxjWctOly/ufVL83kYTUK4QoLMFk4TghyWIV6bZXdrRUVy+hemj8LSOwfmIAi0vwn4/t3HH6hG7dcqjO9ecWN6yTwMDA4QkJCXEVFRU9UcNgBVWS6utxbW3tUwUFBeMxMaQ2/jLGCGEgpP3y9/cPWRMcvJQOqCIg6ebxMI3evctzcnK0lJSU/vkUwDpz5kwPFxeX5IePHmkAZwDVDVmYpof30dD4ExyLTp06PaFzMCH7B/bpwYMHUo6OjmsKCgo8cBaLgwKwklW8wsPDPT09PbeQwJ5wXxA4NLGxsV7Ozs7rJKWA9gKN90LQb4Igevbq9dhp9myTBQsWgE1GPqB9w8kWVxVCAQfWj5BC+ANEYLHz8vK6uc2bF//3339rMwAWk0KIYL7/3ytgy83NzReePn06CLUKId0+/CjvA4Cl1KZNDVRl3L59+266RPwMgPURwNq7d6+Zq6vrbi6X2xKZluS/SgIXAPkjR46cFBwc/Focfuan+kdyWiUnJ7fLzs4e/s/jx9Ou37yp87i8vIOAJgDHMaB+EVRW+cjp96OosMj9YAAskUX11QeFuiIRGRnZ8c6dO/p37twZV1JSol1RUdGmgcvl4CwWwWGzQUEguooWmCSeHlNrhQGwqMnrt3ia5NTw9/cfuW3btmNv375VQEnVE55HiM6dO5dPmTLFJCQkpJiuAMlbhzPl5cZHSsuSWTgOVYJQUWGChWE1KnJyC3yGDkqg6hAwABa12fxeEVgQfVXL5bK6KSgkeg8d5IphWC3dg7FQD9nW1tau2dnZa2tqaiDsFkkPgey3vr6etWXLlnnz5s2LagwQUJMw8zQJqsD8hoSEjA0LCztWXV0tAU4d6k9QPZPFer979247IJYm54e82XJzc5ubkJCwlsAwGZQ0PbJKlsucOVFR27d7Av0OXf1sBGKx1q5daxwaGprw/sMHZRQdJQGscePGZaSnp0/BMOzflGtyHdjb24ft3r17IW0AC8P4I3V0snR1daf5+/u/aYoDQCPgDZ85c6bDmTNntr6qrATkjbKSkA4UA2AJDoMMgNXIyDARWKgW97/vwQFs/PjxC7KyslYzABaLr6io+MHM1HRhbGws0AwASIGMTjAA1kcAa9u2bSbLli3bIy4Aa4S29l9jx4419vX1fUpnfj4DXAn2pzdv3rRcvny5cVFRkU1FRcWIly9ftuXx+biQ6uWnBKw+HSsDYInFduLFxcWKCQkJ+vn5+fNK790b/vbNGxkI+IAIq0Z+EP2PfacWGADrOwn+R/8sbG6+vr6ts7OzD1y9etUAblNR+iw04Dx3d/c1GzduDBAHpwmJKkdc/3P37devbSQ+LkbKhw/BAsYwoqOc7MoJstLrNDQ0gNT7f8rEf2ncDIBFTSO+F4AF08zCsCpb9a66Izt2vCkOgAh0cMuWLfJpaWnb8/LypqJWuoMIHz6fTygpKb3KyMgYMXDgwFJx9I/azPx6T8PaXLFihWp6enra7ZKSfqj2ASRDAkyurq7bIyMj3RsBWGB4JA0NDUPOnTs3DzXCCVL0pKSkiLTUVGsDA4Oj4px/kENZWZnq6NGjTz19+rQXiy2gMaBuKwmCaN2mzeMjhw+b6ejo3CbtJOj9rVu3ulpOmJDx8OFDdZQINFL7BEAhm83V19PbsGLFilXa2tp1VOwxFS1mUgi/KC1aKYRMBNZ/5coAWFRW5OefZQCsRvrEYgAs+hr1/1sA/Vq8ePGM7du3byEwTBaVw7RRq3x9ff1bIwwNjf2XLHkurv2L3LPj4uJ6JiQkrLhdUmJc9fZtm8ZcU0j7urgFKqb2GAALXZDkWSQlJaVX2Lp1ASW3b494/+GDSqMz/C8BcpJ+MkPijq4rv+wWd2P3AAAgAElEQVSbcJt67NgxqfDw8LX5+fludAAsSMEZMGBAWW5u7nAFBYVXdIVGRogdvndv6Ll/KrIa+ERL1AOqAMCSkV3pO3xwmJA4mwGwPjNBoA8/IwcWRF/VcXmYloryFkcNDbGQQpP6FxQU1DsxMTGzrKysI6r+CW4QeDxs4sSJWUlJScZk23TXyO/+PuhrYmKidPyuXWHn8vPnos6PEMAi6uvqcCMjo6RTp05NJW++wVEoLCxUdnBwiLx3756loCQURXBIkKLI5WLq6uqPS0pKegGRvzjnTtgfyYkTJ+47evToRBok88DRVfOfW+U5y5cvP9Co7DLrZFpaXytb20yMxVKicwCANuXl5D7o6+t7ubu7x+jp6UFhA+QIg6/JkQGwGABLnOvsc20xABZ9CTMAFgNg0deiL7cA+uXk5OS4d+/ecAzHIYKaLsca32jMmAxzc/MZc+fOraJLmQI9FwISRFpa2qiQkJCYoqIidY4E0BYhXEQ1pTDF2DYDYKEJk/RrSkpK+tja2mYUFxerCKtCIwWgoPWi+d5iIrCaT9Y/1ZdgIUAZ9h07dthlZmZGvHv3riWqwQQlY7FY3A0bNsxwc3M7RCKndAQCRj33xQvZgofl657U1MzCcUwaatxRbZMBsEQ7MP+sABaBYXxFKamLo1U7ThnboUO5OA7EjTjiPDZv3ryBx+NxUNcG+CeSkpL1Xl5eDqtWrdovjghFqmvgV3xeYB9ycyU3bNjgeyY72wccUxpzBM4iv62y8vNT6ekGfQcPvvMxeBPDnZycTDMzM2Oev3jRFoX7SaCPBMF3dHSMiYqKmiNuAJMcc+SOHc4ebm7RbA4HymxTdmYgjZDg8xt0dHS27t69e0WnTp0EabjQ/vLlyx3Cw8M3CVMokQ8AEOmm0r59ibW1teO6desuiev2+nP6zQBYDIDV1HaPAbDoS5gBsBgAi74Wfb4F4R4gNW3atJCUlJR5GI6zUSgAPmmdr62lFeXk5LR0xowZsEfS5vwtLy+XXrt2rdmpzMxtZWVlylCUBsXXaCo5NkW7DIBFXapgK3fv3q1YUFBgn5qauqjy9ev2kFaKQo1A/evf5w0GwPo+cv8pvgoLIjg4eODOnTvjnzx50ge1QgccfhoaGnBNTc3chIQEm549e74SF5Cwq6Rk0M2XlbH1fKIfysGMAbB+XQALDsA4htWotpT31R8wIHoIhkFEh8gRdl9apELHR3rkyJH5Fy9eHIxapVPYPr9Xr163LC0tLVavXv1IHOvipzAuTdxJEoCPiYlxOJWZueHdu3fydDZyYZXAtzt27JhqZ2d3Wth9fIyx8ezC8+fD6xsaZFAAMkCAWrZs+c5t7lyToKCgC00FYF25davbFCurjLIHDyDND+n2FqIZu3XrlhMVFeUwevToJxCJVlxcLOHq6hpSVFQEJPFQ5p4yOCa80IA+QQnyE3sSE52HDBnyTBxr9RtrmOHA+l8BMSmEYrJNDIBFX5AMgMUAWPS16IsAFuv169ctbG1ttwENBE7zsC+kg+Drjh4duXTp0mVjx46lBWCBL1BRUSGzaNEi2+zs7DWvX79WgUpxKH5GU8mwqdplACxqkgWdSExMlD1x4oR31unTbm/fvlUUFi+i1tBP9jQDYP1kE9ac3YVFUVJS0nrGjBlbb9y4YYPjOJRhpxzlBH0GompJScnXq1evnjF//nxxlYnHKzBMJv7StVWPqqs9JNksCC+gdIBiAKxfFsAS1F6R40hc1O3Ufva4Ll3uiONATOp/YmKiubOzcxJBEBIowCm5jsEA6+rq7poyZcp8R0fHGnH0sTltxI/8LQDcFy1aNPLw4cMxL16+7EbndlUIYFX7+vq6Ll++PAnGnZSUJLsjJmZD3tmzs8kqLpTlQRD87t27Pxw2bJje7t27HzcFgElG9bm6usbFxsbaQ0g5CpgHEVJtlZUfmpiYOOzYsSMfxgoHAGNT063XrlyZxuZwkG/74JKDx+XyNTQ09hw5cmS+urr6v0TxlGUqwgtMBNYXhcQAWCLojyiPMACWKFL6+jMMgMUAWPS16MsA1qNHj1qOHz9+e3FJiS0LgQLg05ZhHzMzNd2yfPlynyFDhgCHI1IElnB/Yjs5OVllZGSsraysVOUThKBS3O/wYwAs0WeZTDH18/Oz27Jly5b3Hz4o0DmTiP7l7/8kA2B9/zn4oXsAhnTRokWuUVFR6wmCkEbNEQdF4/P5PA0NjZ3Hjx/3IlNQ6A4e+nfr+fN+sXf+TuMRGBh5SgAbA2D9mgAWC8d5DXx+lXmXTvbjunY9Ji5giIy+GjFiRNbFixd1JCQAv6Kmc43Bq5YtW1YZGhp67N+/fx+qs0N3Df2q7wOAlZGR0Wvx4sUJf5eWDsZxHNkBBPCGz+PxBw0aFFVYWLgYx/E6Dw+P7llZWefv3b+vjMKxBTe2kD44evTomCVLliyie2P7pXkkAaxVq1bNDwwMDEflRIA1JC0lVautre158uTJeBhzVlZWW3t7+4QXL18akSmFKPrEZrMhWpJrZ2e3cefOnf7irMT4uf4wABYDYKHoKZV3GACLirS+DDIwVQg/ygb2IKYKIX2dIlsA/6CgoKDd7NmzY8oePDCG/QzVl4M2Yf+TlpLiW1hYBPn7+4eqq6tDNWGkiH/oh7e3d+fMzMzsv/76qyuBWERLfNJq3pYYAEs0eZP6WlhYaGpgYJBW39DAhgqDvwvQyQBYounJb/sUHH7OnTunPmnSpBOVlZVdWQIyFLRbANiAlZSU/ra1tXXeuHHjeXEc2MkFfPzB48mp98uipThseSroMwNg/ZIAFsElCKyttGTKfPXu9kpKStXiiGwR6horLCzMKjAwMIbL5bagomufua3jqaqqXnV3d3ecP39+Maqz89sap28MHObm5cuXcoaGhltvl5RMx2ncsALYBDxY3bp1y4+KjLTX19d/EBISMmbNmjXptXV1UtA21XmA7shIS38YM2bMylWrVm2lWgWVyvdAd728vHokp6Tk/FNertK4ehGFdqBKIG+kjk64i4uLv42NTd3cuXONTpw4Effs+fP2qOmDwsMZj8NmVwcGBjp6eXkdbeq1wABYPz6AJQ6bTUG3xf4oDv5O69YPjIyMHOLj45H8HbBh165d66ylpXUeZ7GQ1xhU98QI4oOjo6P7tm3b9pKFKMQ+aDE3KM4ILKGJRnNexTwulOZwFotQbNXqg5mp6cLY2Ng4unNI+jMeCxZMjYmO3obhOFTh46D0rdE7QGJeYGBgMNHLy6uyqe04nb4CgBUbGztkw4YN8ffLynrx+Xxk/kYSYGwhL1/5xx9/OOTn5x9HtV8wL3/++WcrPz+/mPRjx6xQU/7pyOZ7v8sAWKLNAOjKwYMH/wgODk76q7hYg04VaNG++GM9xQBYP9Z8/HC9IR19BweHqF27djlLSkryUQ8qoGwcDqdh5MiR2yZNmrTCxcUFcsSRbigaC4okY4y4/mfInTdvPDkU8sQZAOsXA7A+RvphLSQk7pt3V7MY1b79bfJ2jO7iAj27c+eO/OTJkyNu3749EyJ6UFKxSGeHIAjeyJEjt+/bt295u3bt3qM6PHTH9au+L7QLEtNnzlx0JCnJD8NxKTpphJAG3UFF5Za7u7vDokWLrs+dOzc4Pj5+CdyOotzcCknLbzk7Ozv4+vpea8r5h4Ogj49Py3Pnzu0qKioaR+NGl+jZo8ffhoaGRps2bSrX1dWdfv369e21dXWyKDIQrk2My+USSm3aPDx48OB4PT29JgdzGQDrxwewCD4f8arsx7BoEFWo1KbNAwMDA4fExEQGwEKYFnECWD+9PrFYROvWrWtNTU0XxsXFxTIAFoJCNXoFdGvR/PmjjqSmwgVMFzEAWDxlJaUyMzMzh+jo6AsoF/Rk6qCPj8+yTZs2rebxwQhSo0URVSrgbzS6dxMbsAtjQPUFyL4zANa3ZxFkXFpa2mL+/Pl+OTk57hiOS9Dxb7/0RRL4/xF1hQGwvq0nv/UTpCE6derUMDs7u7y3b99K0iSHIzp16vTQ1dXVYtmyZbfEdWgDI59052GXG2+eJ1R+qB0F+eyiTBwDYP1aABbMJxtnVQ1u29rNoXfvfaC/4tQxd3f3YUePHo1/8eJFLzqOBYAhLBbrbXh4uK2rq2u2uPoois7/Ts/AHEVHR0/w8vKKbfgYMYd8ywpzpNiy5ethgwc7xSQkFIw1Ni7869atLsKUPJHsTWPZA3jfqVOn3C2bNzuamZkB/xVtMP9LcyvUVZaFhYVLfn5+2PsPH5AAJ8iXlZGRqQ8MCJjap0+fzK1bt4adysx0ReYAE6ZeNNTX49ojRlwsOHdOH8fx2qbWUQbA+rEBLDaL1WA6blyslITES8ie+hntI/RZQUHh3YABAw7NmTPnIcoYmAgsgiWGFEKCx+PhZqamp+Tl5YvAVqHMRVPbJFHal5eX5w0ePPj4nDlzLtPdL37nCCxy7C4uLtOOHTu2ufL165aol5HkvMGFlFqXLsU+Pj72s2bNuo4IYLHy8/P72tnZHa14+lSN5lnrf1QKjkWgN4CLCehgPl4RiA28EnwQxzGIBBJFn7/0DANgfV165Lnc09NTLz09PeZJRYUaamDJ14Ar0GGwnYK10QTXSVA4AVIeUX8MgIUqud/oPZJDxcbG5lhycrIZnZBWgcLxeJinp2f4hg0bFn88v9A/uJEb0rabf9ncq6ra1MDjKYkSZcAAWL8WgIXhGF+tRYu92p07ztNRUoKoJiQSzU+XN6yB3NxcyZCQkOV5eXnecFuHessEWbj19fW4oaHhyaysLCsMw4DsU7xOxG9kn742VJijioqKzoMGDTrz/MULdTqcZRiOExJsdsOoUaOWRUdHnx0wYMCFmvfvIX2QsrTB2SX4fK6ent7GU6dOBWAYVt+UOkACNjY2NhPO5uVFVVVVtUFxeEiHYZ67e3RXNTWf5OTkXYWFheai2NovCQkiVerq6vDQkJCVS5cuDf7oAzftemAArB8bwJKVkak+d+7c8L59+5Y0hz5QXsDN9AIDYBEsc3PzhadPnw7CWSykCFocg5oVfPxYRsZ04zFj9v/O+tRYbRkAC8NNTEymFBYWbnv/4UNLVH+uEYDFa62omLVv3z4HPT29Fyi+J1ywOcyevezg/v0rCQyDiBrkC7fGc/2R+YXgN9TXQ3twCUWoqqreb9uu3QdVVVV++3btXskrKFRKSUhU0zFtsG9fu3at19GjR4djNDIUGABLJACLNXbsWIfCwsKI2ro6qIKNjgQ1+hzoCgCc3IYGaI+voKDAbdu27WMDA4OLLBaro4KCQr2cvHylBIeDfNEIaw184IKCgu6nT58ewePzOSjURAyARWe1/ibvklEsoaGhlmvXrt1bXV0ti0JaLHQcwJsglJWVK6OioowsLS2viUuMsICLq6pa7b1dEvz6fZ0Di4VLfKufDID1SwFYPCkW+0ZPxRaurn37XhUHMErqJuiWt7d37+Tk5MMPHjzo9S29+ppOQ78kJSXfJyYmTpgwYUI241CLywL8bztkGuHIUaNOnS8o0JOUkoLNmTri9LFpAjbdUSNHBpmbm79Y5OW1jcOBfZc6iT+0I8HhVC9evHiev7//3qYGbASdJwjWnj17egQEBMSXl5drUq3YSuopXEBoaWre9fT0tNy0adOeokuXBkOUDOosgrPaqmXL6vPnzw/r2bPnneZYDwyA1SQAFuv8+fOdnZ2dY0vv3dMHnUBxSqFnMtLSNdnnzmkP6dfvL6Gt/ZkBfggDRur/7w5gXb58WcLPz2/x6dOn/XAWC/grKNsZMNDycnI1+/btMzI1NYUILLD/SPOBauPE/B6yPjEAlnAjJwh2QkJCiwMHDiTk5OSMp3MBAy2SRV40NTV3Hjp0aLGKigplehRY65mZmR0XLlq0o7S0dCxdUvl/55ogCElJyXpFRcXHXbt2LdbT08syNja+179//6IWLVrUCNeCgHAexZf5RLdxf39/jw0bNgTz+HwAnJEAOAbA+jaAtXbt2s5JSUnJN2/eHIzIafq5j/BlZWU/KLRoUdqzZ88bkyZNyho6dOjjdu3a3VRVVa0S+nk8cemKrq7ujGvXrm2trauTQzlTMQCWmHeWX7U5MK7r169XSk1N3VtYWGhA58ACSsflcrHRo0cf3LVrl5uqquobVAfvU3lDP/OfPv3jSOn9I3VcXi82hCd+5YDJAFi/CIAFkX18/pvByq3ddPr0SdbAMNiQxeKkCjd1jrW19c7U1NSZwiofSCAIGYE4duzYjO3bt09SU1Njoq+a0GiSDlloaOgCX1/fDVLS0nxUp0oIAmGDBw26ICMrq5CXl9dHQlKSICgCYkIdwHv26FEUFRVlPXr06HJx6erXRAmyuH79ekt3d/f1ly5fnoXK4SY8EH7wCwhYtmXz5vmPHz9WRyGx/xcQ43IxdXX1R+fOnesnroIL31IpBsBqGgCruLi4laWlZeSjx4+tUQ9gAq7M/0Q6njlzZpyWltaZ5gA0v6Uv3+vvvzOAJeR4UbK3t99SVFRkjbNYSFVkAVyor6tjbdiwYcHChQs3/876xABYgoscge8WEhLS48CBAxm3S0q6ohyeG8sSoogJPr/B2Ng4LDU1dTVKFV1Y68uWLdM9cOBAzLPnz2mnhIEdBd63Dh06XG3fvv0RNze3c+PHj/9TUVERgIimAnHxlStXeoSHhzMAVhNtGmRG1Nq1a2etXrNmZ21tLRReQDqP/NtFSC0lCF7nzp1L+w8cuG+GnV2qlZUVXB6RtBYC0FwMACf5STwpKQnfvHnzzBs3bmxmACzqykJvwql/76d+AxT3ypUrnNDQ0Fk5OTnrqquraeWMg1MhJSX1ztHRcUF4ePhucUXLkGHRe/7+2+Dm81fRNVyumiDDh/j8AmcArJ8fwPoICPCJ/kptwswVFVZ16tQJbr/ECV5hhw8ftnB0dNxbRz9Ul5CVla1btmyZi6+vb6I4Obp+agPTRJ0nN9xz586Zm5qaptXV18OGTPkWv3H3ZGVluTwuF6utq+Ogpg/Cgcrc3PxQWlraVLBO4tLXbwFYwP+ydu3acYGBgQl8glBAiWiAb/B5PGzwkCHP7t69q1hTUyOJIod/ASweD7O1sbmwf/9+neZaDwyA1TQA1oULF1rNmjVr28NHj2xpAFh8SF84mJS0zHrixHW/M+DwmwNYrBcvXrSdOHFi3MXCQhPg1YHIDKo/EsDy9/df6O/vv+l31icGwPoIYMF+GxYWNnlVUFBiXV0dbQAAOE3ZLFYVnI88PDygAiElRYV1fuXKFbbvihXuBefOBdfX10tT1fPGz8P4IG8WLskmT568cty4cXlDhgyBPvFJIKIpfA4Yh5+fn/vGjRtDmAgsOjP45XdJAMvT0zNq27ZtLiw2UJlRzwL4F0n6CHTi48ePj1VSUto+b968O/379//QOMpK3LpC+l86Ojoz//zzzy0MgEVdVxgAi6LMID/7yJEj3ZYuXQopKNp0cm6FRhTr0qXL6ejoaAcDA4OnKDnjnxsCucCP3Ls3LuvRP4c5OEuKwD6/wBkA6+cGsFg4zq9t4GK9lVqnLhrYf6K4D8DQ3uvXrxXGjh176sqVK5q0OJQ+cvvwtbW1C0eMGGEZHBz8iqqjQ3HJMo8LJUAQhFzPnj1v3b9/H5l0nRQmpEWhAjbCwxNwUbASEhLmzJw5c0dzHqjANmZkZAy3trZO4/H5rVErL8H4oXIgkMzSlIWAE3HpkiWLQ0JCNpK2u6kVlwGwmgbAunLlSms7O7vI+2VlEwWnRATHmgQcgoOD13p7e/s05/poar2j2v7vDmBVVVW1srW1jczJyYEIrI9kwhR/pD55LVmydt3atb+1PjEA1sdUevC7AgMDA1atWuWHWoSlsSwFF/KSkq8PHjw42cTEhHJRHjhbJSUlySfu2bPz5MmTguhVimr+7+OwHwN41aZNm8pdCQm2xsbGZ5vLzwTZ+vj4eG7ZsmUNj8+XRI12Z1IIvw5gwaXn5MmTjx45cmQ8Hf0VAJ08HjF9+vTY+Ph4TwzDBLxW4gasPh0N+AVJSUmsLVu2zLh+/ToDYCEsdmQDgfCtX+IVMpVq2rRpC1NSUgIIgpBCvcEHgQBZnJyc3FtDQ8OVNjY2O2xsbLjiMrSCDaG4WOb+h7rAR9U1TjiGt4BAh/9ZSBhGdJSRXek7fHAYhmGC3F5RJwvkse7qTeN/at7F8QisLeUKZx/T3vjtZWT2D+qu5mYhAuk4eSDIzc3VHDt2bD6kAVE9JMCBsW3bts8qKiq64vhPDGB9DGnlynI4V8d07jDbWFW1WJzGF+RaXl4uHRQUNGPXrl3rMQyTo6PvsCnIyMh8MDAwAPLrSAzDQN/FEikmqs7+js+RoKaNjU12cnKyHp0Nn678hM4l0aZNm/cXL1zoq6am9lCcOvut/gl1WtHG1ja58OJFXUEKJALIQPYZ9d1G/QR+mlp/f/8ZCxYsOMIAWN+awf/9O6nfbm5uvQ8fPpxb+fq1Mg1Uka+lqblt6dKl3ubm5pDeLHIRDOhHRUWFzPSZM1efy8tzh5QvFHtJAg5OTk7hO3bsgEIvzRKhSF3yTf/G7wxggXTBpxo/fvzSrKwsAQcWSpl4QdGUujrczMys8NixY8YYhlUx++6/qXQsjwULpsZER2/DcFyWx+NBNBKdH99ozJgCAwODiV5eXpVU/Gk6HxX1XXK/unLlSvs5c+akXrt+fSidolTCfRDj8XhEVzW1koyMjLHq6ur/UNUvWOeO8+e3uVVYePzG9etD6HBygcylJCUb1qxZ4+nh4QEXZGIplCWKjGEcB44cGeYwfXo6gWFIhWLgOz8FgIXjwC32ftiQIQtycnLiyeg2UeSE+gypv48ePdIYrqV17uWLF62E+ovWJEEQKioqFb6+vlNdXV3zm0tXGAALbboav8UAWAgyBMU7efJkFy8vryN37twZRNf4w+kJyOLs7e1tlyxZck/czurxsrL2BU9fhL+uq5vEwnHOp3xYP0IEVgcZmaShbVq5mqqr13zrwMAAWNXbH1VVT2WxMKgHTEjg+JWBrdss7NKnV6HeRwBSbIAQyDowMLDf3r174x4+fDiITsSh0NHhd+vWrcjDw8PRzc3tzo/m3CGYg5/iFRIUCQgIWLxmzZownMWiFXJNZ9AkB5qNtfXu/fv3u6BwZdD5Pmk/AgICBLfPklJwB0GdGJlOH/7fuwTB79mz5/3x48cbhYSEPBTn+v1aH5kIrC9KhxaABfzrk2xs1p04dswFw3EWHcBhvKXlsdSUlCk4jgPR8G/5YwAsgjVz5kyXQ0lJ63Ecl0HRJyHnKq6urn7jZEaGcdeuXZ83l535kZWWpNv4DQEsPCwszMfX13c1m8MB4nJalAIkQGpnZ7cnMTHRmWpVaXJPDg4O7pOwa9fJBw8edECNwCJJrcePH386JSVlIoZhcKYQm0/8LX0GWc5fuNA1Jjp6HYFh0r90BBYAWBzOBy0trSWnT58GoFCs54/PyZrUlUuXLhkYGhqeqq2rA91FwjIEXJMcDs9AX3+zq6vrSqoXVt/SBRH8L5a+vr7DpatXI+pra5EKw5H6PmjQoMuXLl0a0RxzQGfc4nwXadLF2YGfsS3S8d+6deu0xYsXA4cP8g2+8FAPt6u8qVOn7khISJjXFClgSffuDS588jy+msfty/mE1P2HALBkZY/8oaToYtOtWzUDYH1+VcBNbEZpqdyNtx8BLA4bJ+r4vPdDlJUXufTpvVvcQADoYW5urlR4eLj3mTNnljY0NEjTiTYBkk9wbKZMmRK4ZMmScA0NDbGRzP+MdqQ5+0zalA0bNhiuDQs7/LqysiWtHECanYdNd1Vg4Exvb+894rZ33+oaqcOXL18eZjR2bGF1dbWAEORb7zXh36Gq4wkjIyOQx9vmAnUZAEv8ABa0SBAEZ/r06YuPHDnih+E4VKGifDiE9dFQX48P19TMOZaebtlcxP5NqOPITTMAFsGKioqyWrx4cSyPz5dHORCTUa9KysoV6amp5kOHDr3RXHYGeeKb4cXfFcB6+PBh+wkTJqTevHlzGEdCgtb5hTzDYASBxcfHz5g2bdq+f/9NxDkkL9g2b948LiAwMK2qCgIE0fZkGIyUpCSxZNkyuwA/vwPfwb9gTZ48eWFaWloQhuO/egohIEc8PT29BCcnpwU2Njbvm9qukP7b+vXrHb29vXdwJCQgWo3yHguqCZHObZWVX40bN841MjIy7VtnTxHVWaTHQOfLy8ulFi1aFHjs+PFFYNdRKhYzAJZI4mYeaiwB0ig6ODjEJSYm2tOpyiZsV8ClkpKSYmVqappKdQMQAenFntXWqm24cj2rmsvtCgnwZCTWDwNgsRVdbIYwANaX5rIxgPX4XfXkOh4XN+uiunhSj+4R4l6dpH4HBAQMjomJyXr27Jki6i0HqctcLhfv3r17SW5u7tgOHTo0S9U5ccvlZ24P9MfHx0chPz9/X9GlS1CiGmnTpysDcDA7qKi8nTVrll5QUNCN5nYwG/ffxMTkXNbp0yPoRtHSkAkhLS1dozt69JL09PSY5rw9YwCsJgOwWKtWrbIMDQ2NIzBMAQXAIp1r4JQ5cOCArampaW5THwxo6HCTvsoAWARrz5491nPnzt3B5fGQACzhHsyX4HBexcTEjJ8yZcql31WfPvXjYR/8XSKwSMBuuZ+fQ8SGDeF8goCIPjadBQxHCaDk6NSxYxXQeqipqd2hen5pxMllFRQUdERwnkKMqoE7hF49ez53c3Mb6+bmdrO5/QsYi4mJyZLcnJwAnM2WQJXvT5FC+FFx+KNHjUo1Nzd3XLBgwbumBoFIAGvFihXBwcHB3nQi6KGvqp07XwoNDXWYNGnS303d909sD7uwsFAuIiIiKjklBQq+sFACBBgAi471+k3fJRVty5YtwzZu3Jj0zz//dKZ5wBfkkPfo0eP6woULbVxcXO6LM+yV7HbXq0MAACAASURBVO+ph08GZZU/jPrA5Q0R3HAQBMTWfncOrA4QgYUAYBkbG0POMmzAIscIQ6gFFziwlJV/Tg6sN9XbHlS/Mxnevl2o4x89NzZFzjboy/Xr11suXbr0eE52trYYqnzwJSQkPgQEBHgsXrw4gaqD85uaGbEOGwCsvXv3yu3atSs69+xZwYYp1g+I2BiOYXwdHZ10CwsL++ZweD7XLdJhnj9//urIyEgfIEdGcR5EHPIXH4NDZKuWLV/r6em5HTx48LC408dFuNjAZ86c6XDmzJmtryorIZeSciQa6UBpaWkVFBQUjGouDq9PD6LQj+/NgQV9gvFfvnx5qOGYMcfev3+vBBdTKDerbDabh2NY3axZs1ZERkZubg5+Ebr63BTvMwAWwSosLPzDbNy40+/evWuH4zgcdCiLWhABTRC1U+zsfONjYjaL07+k3Jkf5IXfLQIL1lJiYmKXDRs2RN0uKRmDWiW18fSR9n+Sjc2pg/v3W6DwmpJ7hre3t9W6deuO0OTo5A8fNuy0kZHRVH9/fwjl4jaXusE43r5929La2npbXl7eZByqhvLAjFP/NROAlb9n715aF3jgz2lpaR01MDCY7e/v31wAlpSjo2NaQkKCkaSUFFSbpCxjkui/X9++2QkJCQ79+/d/0pygPlm0IDY2Ni47J8dS6I+jjIOAiuBMCiH1NfZbvwHGKjw8XCo3N3fZ2bNnvWpra4HgmrICkkKEcEZIA9PW1o4JDg7209bWfiPOBQX9hTK1RZKy426/rtzMJwjIM2eBK9RRTnal79DvR+KOCmABibuQOF7kQ4LQcGHKysrPnj59+lORuN989kw6t+LFkhou9416e6Vom06dgGRYZNJ9URYsOHVA3L5w4cIVKUeP+rJZ4C/TK1ELN3SmpqZH0tPTp2MYVs84z6LMhHifgfV/4cIFqTXBwUHZ2dkLuJDaRGNeUXoH885msxsMDQw2+Pr6Bmlra4MuiEySjfLNLwBYggJxq1ev1tq6dWvmq8rKFuJqm0o7YPNVVFQeWU+a5LBu3bo8ca9lBsCiMhv/PovMgSUEsPBbt251mjBhQvKDBw+GoB7GgFeGIAhev7599xw6dGhBt27dfkvibQbAIvDHjx+rWFpanrx+/XpfSSkpSJmh7GcK91xuv/79D60KCFhsZmYGPFhi9R2QVtt3fOl3ArBgrElJSdLJyclemZmZS2rev2+BokefmS5CgsPh+65c6b7CxycK5QJDnAAWGE1dPb3d06ZM8XB0dISUtmbzL0DG9+/fV5g8efLmGzdu2LHYbBaqjJsDwHJwcMhP3LOHNoA1fPjwEyNHjpwZEhICe1STylu4ZuWtrKxOpaamaqMCWBDlx+fziVEjR6anpqY6y8vLv2xOewg6HxgYqJSVlXX40qVLOqhFC5gIrO+4gfzsnwYljI6O7r5x48bI+/fv6wtvWyk7F41BLAUFhZdmZmYLEhISksSdUgKLP/PZM9m7z1+63Hr5apUkiyXDJTBWJ/mfD8AqKCzUnOTomI9jGJtKuDFMDo/Px5Rbt3n2V8G5nwbAIm/3U+7dU+LW1b237dOnuinWD+j0hg0bjENCQuLfvXunRLmy5P92iujQocMrZ2fnSStWrMhr7pDuppDRz9omzK2FhcXkgoKCbdU1NS3pkrdSlQMANq0VFV8YGxvPiY+PB86B73aAgrGvW7eubUpKypHLV65ofY+INBi/Svv25yMiIuwnTJhQ1pzyYFIIv6i9tAEsDMMkpkyduv/QwYMT6aQ4sCDFQVX11pIlS+ydnZ1vNqd+UF3bTfU8A2AJLo9Y893dA7Zu376CTtVUFovFa9+u3aMJEybYR0REQPR6k5eLbyq9EEe7vwuARV5AxsfHjw4ODj748OHDtmLkwOT/0avXQxMTE6OwsLD7KDolZgCLr6+nl2pmZtYsKW2N9RDG8Z9zW5/Q0NDYsgcPBtPxnZsawALgw9XVNS8mNnYkHQoFHMOIocOG/T11yhQTd3f3B019OS3UZQVjY+NTWVlZmjQALILP42GjdXVTj6akuMjLy79qrv2VPAN5eXn9kZ6efrGsrEwBdT0yAJY4doLfuA0wWmFhYXZBQUFbuVyuHGrOMylCWESDBw++bm5uPmH58uVQjlashzxyMzt8796SY/cfBstJSuCdZeT8vIf/XBFYpZWVmuuu38qXYLMEKYRUVBA2hxZSks/WjtD6qQAsEsRqqlQj2HAvXLjQfvbs2TtLS0uNBWEqNKJ0hJsZf8yYMRtXrFjh/70ibqjoxq/8LNiqZcuW6R8+fDj+nydPOvD5fFr8F1RlBQeoDioq15YuXeowZ86c2019W/eNCCT2zZs3pQMCAtZnnDzpCjelKKk5VGXQ6LJCEPo9ZOjQ9L179jh37969uW8AwWYyKYT/O4HiALCwRYsWrYuIiPCiBWCxWHx5ObnqwYMHz8nMzDyAcjhE1c8f5T0GwPoY/Zyfn2+pq6ubQgfAguhzDptN6Orqrly/fv06DQ0Nrrj9yx9Fb0Tpx+8AYJH+26tXrzrY2Njk5+Xnq9EBLD6VK4FhfJOxY3c5Ozt7WlhYIEU8iRnAwgz09SM8PDyWm5ub1zanfsM43NzcjI8fPx777Pnzdqjk4iDj5gCw5nt6nt62dasBapSwUBcI1c6d38yfP9/I09PzSlNfUAv1uYW5uXnmiRMnaANYurq66SkpKc0agUXKaM2aNf/H3pnA1ZT+f/yce2/ddlKJJmXJoMGgMbZhsu+7SGoo+5KdkoqylEJIkaGQPftYE7Izg7JlJ5RKtGm/957z/3+vc+YXE917z7kVvvf1+r1+M9Nzznme9/M9z3mez/P9fp/ui5csOSKVSkWKjFellUEBS1VyeJ2cAPuBGDlyZMCuXbtmwKKfy8AFBgmDV9++fdeEhYV5mpiY8H6yA/vhPpWcbHvy+avFVbU093v+0gKSgcMxqAoLZnCfwJu3uyfnvQ+X0UR1pXccSJKWURSlSgghCFjLb9+7IBIIhPJQKEUPLaFpgqJpQl8TBKxWX52Apa7XDvoyODhYMzo6etrFixe9CgoKOIXEMostytLS8ra9vb2Lr68vnnykrs5T8L7wfp44caKWq6vr5pevXsnzFSl4KedicjGTpqnmzZtv2bFjx8yKDolix8ABAwYMu3DhwtrcvLyqXMRaZQGBmEcShKR3797ee/fuXa7uncv/LDw+CNMoYKlJwDp36VKXnt26HZdIJHBmilIbLB9ViaapVq1aHXVycnIZN25cZkWIvqy3nro2TsoQmgVxcXG1WrdufZkUCGqoOrcSCoVSgqYLXFxcpoSEhGz/WnKKsWPSs2fPrFq1anU7KztbrGpeNWbCCmPwNUdHx6Gurq7lmvelZD+X+PbAKbDKJ/VSdsAtpfy3LmAx7RMFr1xp/deJE2vPnDnTjqNY8RFFUiCgjKtVS+3YseOYbdu2nVRm7fCpLcC1PObAutihQ4dBS5cuhTQsag1pY9sB9hwbG6u5bt0692PHjs0rlkjgeEeVx301C1jwTaLmzZu3MSAw0IWjoEnDJsvMmTP7eXl5xZaTgKXt5OR0dPv27bYcPbDo1q1b7z5y5MgUAwMDXlP2lPVNA/6urq67QkNDh3J5J1HA4uFD8L3fgskvZT5t2rQd165da8vHqYRisbjo/2O4565evTpEHRNHZgIh3JDwuAVNFcnGN258U9nnVLiAdevuBwFLJQ8sMQpY7BYK86FdtmxZu9DQ0C0pKSl1lGX66RgAOVwIgijo37+/9+7du8GGIV9XhUxUv/fxqeQk69mzZ/ojRoxYfePmTUcBxPSpkE9FFZ5sEmFHR0fvP//8czXf4dGq1Inxnm0RFhYGHmmNytMjDdALBYIcPz+/UVOnTv1L1cm/Ku0usfGCAhbPAhZ7u+fPn2vZ2dk9iIuLs+AyQYVvctUqVd7PmDHDycPD47C6FwilCZ2JiYlVzp4926BPnz73TExM8pjNiXIZy793DyzmXYWNBq0+ffrEnDh5sjXXBadYU7N4zpw5IxcsWLBblZxFqo45Jb9D27Zta9KsWbPcxo0bqxR2xrUOJcbAb+4UwhKCs8DPz6/NkSNHFt6Mi2tPUZSIi6hSkvmHM6BoWYMffzwREBAwoWfPnimqikWsDXp7ew9csnTpPq72Xd/K6rWLi0u32bNnJ5TXeAltCA4ONtq7d+/OK1evduSakqA8BCxPT09Xf3//1VwOaWLymlKe7u4T5nt7b1T3eMKKzrNmzQoOCgqayMXDGezVql69mIULF060s7N7UV5zMGgD5DW0t7c/eu3atZ+5zA9QwOLjS/Cd34MdJOfOndt6//79216+fFmHi3cDs2FLGRoaJnl4eIyfOnUq7G7wPmEs8aGDEFyFPa9KTEQq1gMLBSzObx47oXn79m3NXr16HYiLi2vJVYAFW5VKpUT79u3/mjdvnnP37t3Bc4B3++Xc+O/wBuCF9f8Tu6EhISHraYLQU9WjQQV0tL6eXkZERIRdv379zqky3qjwzC9eAmP0tWvXTMaOHbv+wcOH/biGzCpaP/b9+LF+/Wvbtm3ra2NjA/kXyvX9YMd+PIXwP73GKYSwhOBAz5w5c82aNWsmMRNUlbwd2WPqu3TufHTfvn1jdHV108pbQJo2bZpTVFSUm4WFxaPp06evsLe3vwgLNFUXrIq+JyzL79kDi2UA4+XChQtnL/XzC2BCnVXz7iBJgpLJ6Lr16t3bs2uXU7NmzW6Vsz0JQ0JCbJcsWRLYtGnTRyNHjtw0fPhwyMcFB3ooPQdVxpZKE2fBjl2nTx++MSwshCBJHZlMpnI4D3N/qmuXLpc6deo0aNasWRnl2aaSnpLQrsjISLul/v7uLxMTraUyGW/iFbQTNqRIgigYN27c3FWrVv2pyumDJQVN4BQUFDTAy9t7f2FhIaxHVLNvgiDEYjHl7+fnMmXKlC3qFlRKvp8BAQHDlvr5hefn52tzFQrLQ8Dy8vIa5+fvv55BrRJv+fdJKiV+/fXXOydPnuyor68PNq+2uQzLdfHixdO9vb1XchGwYBOxevXqKX379BkTEhJysjzGQbb+8+fPXxQUFDRLRlGaHLUCPIWQy0cAr/1AABaGiYmJGnPmzPE6duzYXIlEorRn0Cc7HPJQwh9//PHI+vXrx7dv3x5OjSkXd1hF+xQ9sBQl9aEcJDykSbLIQk9/XucWTUNslAzZVO5pipVmJz3Tpk1bHBwcPE9TU5PiImqwCy4jI6Ocixcvtq5fv/6D8vgwKNZaLMW4uv/aq1evwxRNG3Hpa0VpwoRGUlxMWv3445VHDx50JEmySNFr1VmODbEYOXKkV1RU1FyaIDRkcDqjmn8wcSouKhLY2dlt3717t1NFvB8oYH22k/kQsORa6Nq1a7su9PHZn5WVpctlQQberMVFReS4ceNC7O3tp9va2kKov9oWCSUWlqItW7Y08PX1BQ/FFlKJRPCDuXnqSGfnufZ2dnusra2hHmqdk6AH1oc0FdDfvr6+TTZv3hz78tUrQz7sqVu3bpcjIiL616xZs1wEdJqmRceOHavr4eGxKeH+/XYwwTU2MclyGD7cd8iQIX+Wd47MbyWE8FPhKj4+vtbOXbs81wYHjy4qKqLBw4arR/2naxP4noP4GR0d3dPY2DiVy3jE2ndoaGj7gICAE0nJydqq2jfrkTJy5MiDmzZtGsJ8W9UqjEL9b9y4IXJ3d7969uzZ5lw8aljO5SFgrVy5crSnl9efEomEk32A+CgpLhasX7/ebdy4cSuYSB61MGcFoNOnT3fu17//UYlEoqGqbTM5AakePXoEzZ4926s8xh+o/507dxo4OTlF3L5zp7WGBkSaqh5qih5Yap6sf0+3BxFr8+bNtVasWBH8+PHjHvDvXIwTJq7a2tp5rVu39u3Vq9ea/09MKCnPHZ2y+g4FrLIIffz3yiZgQf89efJEMywszGHt2rWrKIrSVTqP2ScIYEDV0tKCXCOLV61a5VceO2DK9cL3XRr648mTJ2btfvvtYkZGhgWnfCoKomQFG19fX29PT8/FFSHYfK6qwCMiIqLr9OnTtxUWFRlytX9FkAAPmPDNnj174bJly3wrggcKWOoTsODOYFceHh6GFy5e3P3333935LLLCveDnGkCkiwaMWJEQO/evVcPGDAgW112wy7s169fX2vTpk2+d+7eHQ7vBZufU09XN6tnz57Bffv23dS6dev02rVrqy08HAWsD3bKhCjpHTx4cN2ly5eHMRsPKnlNwP2EQiEIj5KePXqsbNWqVYCbm1sOFxHiS+Mea08HDx6sFRISsvTKlSvDpDJIAUjIN2l1dXSodu3abWnatGnA0qVLIaRQLoqqqz4lBFr5CY/q9MCCNiryTVC0zIdzdf5d8Mr7PyUlRevvO3eMDu3aVauoqKjb7du3nR4+fFibFMj3YjgdxFNavWANoiUWF6xatWqss7MzL4dLgH27uLgYxcfHH7t3714LmiBU2kgCUYKiKMjLVLxkyRLnSZMmwWnulLrWTVDv+Ph4g3Xr1i3duGnTBJFI9G9eZEX7tLRyahaw5IJ4REREX09Pzz1pb96IVRUM5XVnvLCqV6/+dvy4cZMHDRp0tGnTpvkl28XXu8za/qNHj9q1bdv2dHZOjganuhME1eDHHxPt7e2Hz58//7qyaXQU7WO23sHBwcZHjx6dfe7cuakESWpy3TBFAUvRHsByChEAQ505c2aHnTt3bn737p0lEyuu8kQDDLR69eqJEydOnOjh4RFdHh92hRrKJLCv0CTuGEKoaFeVWg4+vjNmzGh25MiRdS9fvrSBeS3Hk9hooVBIN27cOOqPP/5wdXV1hZPVeJ3AcWowXsxOrrR79u695+Tx4725uGArihNm3Lo6OsUnTpzoDMmYK9sYlpaWZmJraxvz8NGjJlx3xBRkQgsFAll0dLRt+/btK4QHClif7SnOHlis4HD8+HGNP//8c8aZM2e8CwoLtbhsZjG1pQ0NDd/17tUreMCAAUH9+vXL5Xt8ZcWG06dPN/D08Fxw6+7tQSVPSZIvoCmK0NHVzatTu3Zs69atD8yaNWuvlZUV1IX3XXcUsD70PPRLbGyscN26dSPOnD27Kuf9ewOaolRa5LOWD32pra2d3q5t2yBPT88Nbdq0yeJ7AceOM1evXm2wYMGCRVevXetXUFAAYXryOTEzP4Yj7ckWLVrENmvWbOOwYcNiOnfuDBEHap07qMsDq1vXrhc7duw4eNasWZkgnij4TVC4WGpqqjF4nty8ebPq33//3SIhIaFBampqi3fv3jVNfv26enFRkQaXvEZfqoh8wSyTEYMHDdq1e/fuUSCC8tFPIJAHBQVVOXLkyM4LFy924ZJDihXaf6xfP8HJyWmKu7s7hKiCGyOvfQFjU2JiooH3woWjD+7fv7CouBg2gFVe65Xkrk4Bix1P5nh51T66b9/JJ0+eWMlfRA4/+eU0TZuZmT3v2LFjgIeHx04rKyvIlwjvMPsel/UMhQ90SE9Pr9m+Q4frjx8/NmNypqlae5ieEm3btLm8cuXKiTY2NvfUNQZGRUUZ7dmzx+vcuXMOOTk51SgebAUFLFW7Ha/7nCgAL6nQzc1t0ooVK4KEQiGnHRBmR4H46aef4k+cODGwRo0aLyrLAhA9sJR7CSqTBxaTwFo3Ojp65eXLl51kMhnEYpf1gflig2GCYGJi8tDR0XGcjY3NlaFDh6o1vEQ5+lianbjA//v6+i6DnCqMgCWPMVDHj/3AtmvX7un27dubmpubw9HWal2YKNMOdoE1Z84c7xUrViwQa2lRXHfFylgAELAAqF+/fu6lixcbGRkZJSlTX77KooD1WZK8CFjMuyb08/P7JSwsbFNKWlojroID892ndHR03g8eMmTT8oCARVWrVgVPLLk3C5f3qsTYLwgKCuoXHBzs/fr1a2sIqy3tuwDPEpCkTE9PL7Nz5867e/To4TVq1CjevcJQwPqfnTLeog39/PwiXvCz4STPfSrW1MzuYGt7atOff7qYmpqC5wSf9iQ8cOBAS+8FC1Y+ffq0JYytn7En8DKUaGtpZbdq1eo4eKd26dLlGRtexte4V/I+6hCwYDXcoGHDlDatWh2nCaIYFvV81F1KUWRuTg6ZnZ1N5OXl1ZVIJJppaWn6+fn5tQuLinQkUqkmyXhbcZ3HlVFfqv6PPz4eOnz40AUeHne4jDmf9IX8FL9FixZ5Xrp82Z2PA1XAnqzq1Yt3cHBw8/DwOM+IifKD4lXtE/a7Cfc4dOiQ/v4DB3wPHTrkmJ+fXw1EN566G7zICD1d3Ufx8fGtateunc0XZ7bdMJb4+PgYx8bGnrh0+fLPXARD9p6MiEVVqVr1dd06da536NDhSbdevfY1+/XXl8Y6OpA2IqMs7oq0k+kD0dChQ6P3HzjwO8ek/x88PWma/umnn254eXlNGzhw4FWuYyBrJ0x76Xfv3plNmjIl8OTx4/0KCgshRxqnzYcSzDEHVllGhX9XjgD70XVxcTmydevWniBicTntSx6CU1ws6N69+7F169YNVqfLvjItRQFLGVqVJwcWEyZFLVq0aKGPj48X1w8AUBCJRJAPpcjJyclr/fr1QYp8iJSjh6X5IMBObh8/fvxzs+bN/5FIJFyT1n6xWvLdUJmM8PDwmO/r6wshpXL3dT7awsc9WB4XL17s3blLFzjlDerGy+SitPqxO9jD7e13bdu2zaGieKCAVS4CFggB4m7duvmfO3duEikQiLjMA9gaQzghk0MtytXV1UtbWzvJxsamsEQuEPb9+o+o9cnEmt2wgAUdefjwYZMzZ87M2L59+/isrCwDoUhU5rxFAPlPJBKyY8eOcWvXrh2cmpqaZGtrC8/lZfMCBayPBCz55ujwESPmH9y/fx5BkiKZTMZ58wHGJJIgJL/99tu1P/74I6RatWp/9enTp4AZB+GZ7IL/I3v6RChhbUkufsXGxgpevXolvnr16sSoqCjPjMxMfZEi9vQhvJps1KjRszVr1jh06tQJwnpUOmSorO+DOgQseCZsUMA3T90/DU1Nip278TGulFVfsBOxWFzc/rff5h49ejSUz9A8ti8mTJjwx6FDh4Iys7IMuLaJDSc0MTbOmzlz5uJmzZqtz8zMzLWzswN7Zt8bRcQsdj4AnQqekJoEQbRevnz5suMnTrSEPlA1D9PnmJeDgCWMjo7W8vf3X3bx4sWJBEnyM+f54MhFS4uL5f+gp6eXB5uW+gYG76sZGj6EPHiltRnycNWtW/ddQEDAHENDw1dfmiOyc6aAgIBeixYt2gvezRzDCEE8lx88ZVazZsqECRMCfv31181dunR5z3iPARt2HIRv66cb/ex/g/8uH/9YsTQmJkY/LS2t09KlS0Pu379fU1MshrBpTo4CJfmhB1ZZoxb+XSUC8JJt2LChcVBQ0I6nT5/+xHWAAxGLJMn8YcOGzV+4cOGGyiBioYClnGlUBg8s6DNIOLl///5O4eHhEW/fvq3B06mDZOfOnSP37t073cDAAE8dVM40yr30+/fvq//aqtWtR48e1eDogl1W3WkDff3C2W5ug+bNnXuiMuZEYybPer/88suN+Ph4Kz6SsH4OCrPbR7m5uS1ZtGjRgorigQKW+gUs+UyepgX79+9vM2XKlF3vMjJq8hCmLa84O3E1MTHJbNGixSFzc/MYMzOz+LZt22Y1bdo029TUVJ7jqJQcPKKUlBQQPuhHjx5Vu3r1qtGLFy/q5uXlNb13794f9+7dqyu/v0AAnuNlvdtsXeR5Z5r9/PMVqEvLli13jBkzJoUPEQsFrI+7AN7bCxcuNHJxcdnz/PlzaxAZFe2nsjoTbMKwatW8X375JdbCwuJwjRo1rtvY2Lxt2LBhVoMGDaRwUuAn9iTPIQX3TUpKEqWlpemeP3/e9MWLF3q5ubndnz592jfh/n2LzMxMY5IkFfZOYW0bcur07NnTu1mzZqdcXV0TGcFEMaMsq7FMWKYacmD9+34qUAVVi3xQCRR8P1V9yEcLZYGAJmlaZm1tfcjX13danz594P1WRPxR+PHwrq9cubJJWFjYxhcvXzbnwwtLHqJKUTRF04SNjc0d60aNYgwMDC7WqFHjYZs2bfLhAAMDAwNZzZo1Pwp1S0lJIdPT00kdHR3h/bg4o5sJCeL8/PyGb96+bfgmNbXj5cuXf3///r0m3wnyWVjlIGDJxZaBAweOOH/+fHBuXp4+X15BzPdJbqJgpDKZ7MMY9ZkoRbnQKJMRDRo2TD1z+nTnmjVrPlBkk9PPz88mNDT0ZGpqajWuIZBsncFWxGIxbfPLLzcbNWwYraGhcdmyfv3nNr/+mlNdXz/L2tq6OCkpSWhubi4fh5KSksjCwkJKV1dXmJmZqZWUlKR748YN7ddpaT9npKfXTU1NHXzjxo2m73NzNfnKj4YC1gcCvKmACo9Q31FBmGgcP35cc/v27X+cOHFicW5urgkX5ZUJUZaHaNnb209bvnz5WdjsUeRFVxd2FLCUI1tZBCw/P7/W4eHhm168eNFA7g7DIXSQzTfw008/XVy5cqVzp06dIAmr2hOwKkceS5ckwIoXo0ePXrU1MnIKVwGzDLpU82bNbg8ePLjv3LlzkytyvPpcPVkRadKkSavDNmxw5cMj8QtM6CoGBvkeHh6DZs6cGY0eWNzfTZbhpEmTGu3duzc2IzPThMOOLG8hhMwiE+ZZmuPHj58GJ13m5ubyMtn+d8L9ofF01apVc42NjB7r6Oi8EopEL2uZmxeamJg8FYvFyXBQAyz+JRKJYUZW1o/paWn6KSkphLa2tlV+fn6tdxkZtTIzM/WlUqkGjAUl6q1w5zDfAVpfTy/HysrqtJOT03JXV9drXN93FLD+2wXAxN3dvfufGzdG5uTkGDHjt8J99bmCH6YCH/ShKgYGxSYmJk909fRekgTx3NzCIr+6sfFLHR2dRKFQCCcV00VFRSb5a6vxvwAAIABJREFUubm1CouLCx48eFCTJMkaUqm0YX5+vkFKauoPRUVFcJoc2KfC4hVbN8ZuIBl3voWFxXknJ6ewmTNnHiNJEoQ0Xn7q8sDipXKV6CbgnULJZLSVldWt4cOHT/Ty8vqb63tdWvOgPx4+fKg3Y8aM+WfOnJlOkKQGH6ckM2snuSe4SEODMqpWLdPQ0DBR38Agu6iw8GHVKlWKqlStKhNqaMBBGaRMKiXzCgqE2ZmZwvz8fC2xWFw/Ly9PPy8vr17627f6xUVFQpjgwnvHZU33pS5Wt4DFjPGCsWPH9jh58uTGN+nppnywLq1NrK18zmagfyTFxZA7N/X48eNdatas+bAs+2JCIKuePXt2y+UrV3oz6xjObw07BsJAqKmhAevtDENDw5daOjpvCvLynllZWb2kadoIxCh4pkQigby/754/f25G07ShUCg0zc3N1cvJyWnyNiNDWyqRQJJ5Ntcf75oLemBx7nK8wZcWRps2baq6ffv25ZBniCRJIajRqhIDYxUIBNJWrVqdatGihdPKlSuz+N4FUaZuKGApQ6viQwhh0N+xY0dtPz+/1Y8ePeoB9sjDB5iqV6/ei65duw5es2ZNfFkfHuWIYWl1EGAFm4CAgFELfXz+lEqlnE5L/VIdYXyy/f33jWPGjJllZ2eXX5Hj1RfGafn8JyAgoEdAYOCe7OxsPTVu8FDWjRo9tre37+Xu7v68ot4X9MD6rNXyKmCxC4W0tDTtKVOm7Dhw8GBfdQmk4KUNCdbhHdPU1KRFIlE+TdPsaVAgJIgpitKTSCRCqUwm9w5jD5kBe+AqhLALRQhx1NbSerk6JGS60/DhR4CBqnaOAlapApZ8Duns7LwjMjJymLo8RuVjNU3L+05TU5PS0NAokslk7MEBYE/aBEFoyWQyWVFRkZg5OU7u2cGIyrx4CcGBF7q6um+GDBkSHBgY+Ke+vv47Ve2pJE0UsBSaXchFTWMjo6IlS5Y4uLi4HObbE+6TPoEcfPZeXl7rpDKZLh9eWB+18n+eQHLvMdhUhoOH4H9waqM8/oumIQyUhFBQsBG57xB4csE/f0iBoBA4LoXKScASRkVFWbm5uW1Ofv26ZXmcwPwZgeuDgNWkScrJEyfAA0sRAUs+znTs2NHp1q1bwfkFBXo8rGX+rR4jZJXMBQgGQInF4gLQtphNIbnnMUmSxUVFRVryHGj/O5hC/s+Cj08N5WISpV6LAhbvSPGGn34knz17Vuv333+PTUlJqQMDJVePFxhYZ86cGRgQEDCPmRzy6sqraA+igKUoqQ/lKtIDCz5OV65c0Vy8eLF3bGysG8R7c7FDaA8smHR0dPJ79erlsW3btvWMR2CF2KJyPfF9l2Y9Vnx9fduvWr36SE5Ojr46ZmXwcTXQ13/fs2fP2Vu3bo2oaI/RL/U6LJQdHBxM7t27F33/wYPGasyDRbdp3Tp0zJgxbk5OTpDQXv3JUkppOApY5SdgMSKWMCQkxHzjxo27ExISWkLOEXWFAIHHBOP5UjIshm2wPIk2LJAYoYH3wVAoElHFhYVkp86dT52Kju4HoWeqCg4oYJUuYAHP+fPn1zp27NiRu/fuqW28YrwHPmdPrFjFLu45zylKM0awZ/B0qFWrVtLZM2e61alT5zEfGyEoYCnw6tM0paenV7xs2bJZ48aNC1V3yDv0CUSrdOjQ4WR8fHwzDU04W4jb4UKfa2UJwV0+RJco92+IJozR6nr+l+iXk4Al9w7u1avXkjNnzkwlBQJwsOAnF5YCpsUW+dcDSwkBi/2m7t69u5G3t3d44osXLdQlwJUQLMGBpNQQZkbcVNs39Qs2jEnclbA1LKokAXbw27lzZx9XV9ct79+/r8Il1phNTAg7YnPnzv1jwYIF+7hMEJVszkfFUcBSjl5FCViMDQonT57ssH///oB3795V5+phwiyQJC1bttwYHBw8v1mzZjl8TCqVI4qlVSUANrFmzRqrLVu2HL1z964VV3v4zMKDqmFq+tjOzs45MDAQwg4qRKxRhBGMyf/vKau3c+fO0FMxMcO5jNFfmmwIhUJZ506dfIKCggKtrKzgCPIKEXxRwCp3AQuOXNf08PCYfvTYMffCwkKDilgYKfIucCkjj1WkaapuvXoPok+c6FO7du3nXO6HAlbp9FjxZebMmb12794d/Pbdu1rqGLO49B1f18o3yrS18wMDA8eOHj16t3yVyMNBIChgfb6HmPmdrIap6XU7OzuvwMDAcxAxxVeffu4+7Ji4a9euoRMnTtyQl58P3tDlLqqou51l3b88BCxGBBJERkZ2nT59+vbcvLyq6hKBvtReDgIWfG5Ebm5uDiEhIWukMhl4YX1XtoIeWGW9Sfh3zgTYxYKjo6PbX3/95VFYWKjLZfLKuDfCjtSj2bNnO0+cOJFzrglVGokClnLUKkLAYu1s48aNHZcuXbotOTnZlOtxv+yJHc2bN/9r2rRpsxwdHZ/yMaFUjiaW5kIAJir+/v4GMTExkecvXOjJ9ySRsQdZ0yZNdgYGBs60tbXNqCixRhFO8J7A4QaLFy8eHxsb65dfUMBpjP6MoAc5gvI6d+48Y9euXeCRBgdz8JaUWJF2smVQwCpfAYtZLJD/L5BW37Bhg9fVq1fHUDQN7gXqj0dRxjA4loVvnL6BQabjiBEzVq1atZ2rjaOA9fkOAduJjY01CgoKmn8yOno8QdNiiqfj2TmaAW+Xw/goEonoQQMH/hkZGTkVDibga8xEAav0bpKvLyiK0NfXz3Rychrn5OR02MbGBvLtlstmCyPEajg6Oq7aExU1ng3f482ovoIblaOARWZkZOg7Oztv/evIkf7gGFHeIpCqAhb7Tb179251FxeXyJtxcV0gNxWfoYSV3VRQwKrsPfSN1A8WjJGRkUYbNmxYf+3atf6qJLYsiYL5iEsbNmx4zMfHZ/qAAQPg6NFy9XBAAUs546wgAUtw8ODB5tOnT9+UnJzcBGK3uSyawO7g49qkSZOX48eP7zp+/PgnQIGvSaVyRLG0qgRgkgjHQfv7+3ucO3/enaIoERe7+LQekOiXoOniPn36LIyKigosr8mvqjyYyZDAw8Oj3Y4dO8JT09Lq8j2RAyam1as/sbe3H+3v73+lvMfrkmxQwCp/AYudcG/durXWzp07t546daqDSEMDxtNvYteYERuKu3XtGtWnT59po0eP5pyjEwWsL49o8B6DKHru3Dmn8PDwpaRAAMfU83YyIZfxlOu18uThcLpls2ZHx48b5zp69GiY4/ImoqCA9d8eAuaQoqSGqWmRi4vL7MGDB29u2rRpAZ/cy7IL9tsUHBxcJyIiYtO9e/faM/nVyrr0m/l7eQpYAO3o0aMtZkyffvL5ixfV1Hyoz3/6iKuABePdnj172vj4+m5/9PChhUAo/CbGP0WMGQUsRShhGV4IgIjl7e39y/bt28OTk5N/hEUjlxvDR0VDQ0Nia2vrGRAQsMba2lpa3h+awJu3uyfnvQ+X0UR1pd1PSZKWURRlpqOzr6HQcJydTV1IEPpFEY5dZD/JyGi1/NbdCyKBQKhs+BN8HPTF4rRlbVvVIUmyQJE+gLZFxD2p9qo466/UwoKWAoJUetFR3gIWTP6vXbumN3ny5DW3bt1yFIlEkJhS6Xp/svClTUxM3vn6+o4cO3bsMegPFK8UsaDKVYadvDs4ODifOnUqKOf9e149jiCRs0gozA0ODh7j7Oy8vzzHJVVJwzt+4cKF6iNHjgxPSk7uxnWToZR6yOrUqXNz6ZIlzoMHD4ajost1wwEFLIUsg/ck7qVwh/9Uo3fv3tGnTp2yhuTBX3v4F+sV/oOZWfS2bdtGt2vXLo0P+0YBq2ybZb/BY8eO3RkRETFECEr51+/ZB66JVO3atROdnZ3HuLu7n+f7G4IC1se2xZw2SDVs2PD+kiVLpvTr1++cunNefc662b7x8fHpu2Xr1qDk5GSLr2iMlOfyLvvN/XyJ8hKwmE0VOMyDCli+fIa3l1cgbKjwuZlZFgcuAha7KQTfn3nz5rVZt359dG5urq46crqW1Q5V/g79LIBDAVQ8GAAFLFWo4zUqEWAGBY0hQ4ZMOHXq1MLCwkKIOeY00EHywZo1aya7uLhMXrhw4eHyFBR49cAyNhxnVxcFLJUMq5SLoG8iIyN1Dhw44BobGzsnPz/fkKtrLeSiEIvFOZ07d/ZcvHjxn+UtmPLFBu/zgQAINj4+Pi23bNmy+XVKihVfJ/6wefqqm5g8u3r1aodatWqlfA0iJzMWa/fu3Xvp6dOnJ/GZ1FTuuSiT0daNG0fGREdPMTExyatIJuiB9dlRQK0CFjvhhv8/dOhQo6CgIP8bN27YFhUX6/F1FHh5j2+seGX+ww8J06dPHz916tSrfIkNKGCV3ZvsHPJCXJzxGn//GTHR0RPzCwqqfK2eWPJxkaYJc3Pzi0OGDFmzbNmyQwRBwOYsr+HWKGDJPec/ZC+naUpXRyfX2to6euTIkcsNDQ0h9xX8vaI3WYROTk7Djh8/Hpiblweb5OUqrpT99v2vhNwDVSgsrl27dl7iixdVJRKJypvF5Slgsd+k4OBg/eMnTiy7cP78iGKJRI+HtalC+LgKWKwIFxkZqX3w4EGvmJiYSQWFhSBiqe2gFIUa9oVCTGL44tqWlomvkpIspVKpWJV7ooClCjW8RmUCMCg8efJEf968eav279/vDPH9XAYKNqSrfv36Cf7+/g79+vW7C58jvj/2pTWYLwHLXE9vT4uq+hN6WlnBog49sFS2rn+FCfhw0l5eXn3Dw8M3paenG3HdEWJOtir69ddfNw8bNsxn0qRJb/hapHBsLl6uIgEQsA4ePFh77ty54YmJib/ByWgq3uqjy8BWiouKSBcXl+UbN270rKhDJlRpC0yQ/f39By9atOhPGUXp8xXexYZUDhkyZGFkZOTyssY5VequzDUoYFWcgFVCxCI3bdpUa8+ePdMuX7kyobCwUMw1xFsZG+CjLJMvh65fv/65ESNGLPLw8ABPGd4WvShgKd5L8E6Hh4fXPHTo0JSLly+PzcnONirvcCDFa1t6SWY+Szds0OCpv79//969ez+AkuqYz37vAha7dtDQ0CAaNWx4t0aNGqELFy482LJlyzR1MVfWPqCPUlJStKdOnep05coVvzfp6VUYoZ/rxr+yVflieUaQoH4wM7s5fPjw26tXrx4ulcnEqs4fylvAYr9Jbm5uNc+dO+d969atkRRNaxAEIVTXabksUD4ELLb+MP4dPnzYIyYmxqVYItGqjJtCctFJJiOaN2t2wdLSEryw5xQUFhqoskZDAYvX1xhvpggBGJS3bdtWY8OGDduuXLnSkeskA4xYKpUSzZs3j927d69D7dq1y0Vc4EvAstDT3drfstZUaxMTiLVHAUsRI/pMGXZhevXq1Zb9+/fflZGRYcmHfcGA+/PPP8fPmDFjKCZt59BBlezS69eva8yaNcvrypUrc0mBADJ48jIxBBHr7JkzHdu0aXO+skyGFUEP78/t27drd+vW7Ryc7AXvDk8/WkssTt28eXOfQYMGxVe0+IsCVsUKWOzTQaCJioqqev369dG7du2aCYdsCD9savFmeDzZ739uAx65MqmUtLGxOdu1a9cpixYtesj35hkKWMr1HvCKiYnRP336dK/Dhw+vfvjwobFQJAJvW17GdeVqo1xpsCepVEr+YmPzsGvXrq6LFi06w7c9lazR9yhggVjALKAhmSltYWmZ/lv79tvr16u3ycvLC8TCCjtY5HPWwoyFoilTpgyLjo5e8fz5cyOhhgZBcUyHoZx1fr40K15pamjkT548ebZYLNZbsWKFr4yixDKZDFKcKP2rCAGLEYEEc+bMMX716lXg3r17nUiBgFb3pgpfAhZb/507d1a7ePGi07bt25bm5xeIhUJhpUnszorGlhYWOQsXLuy1evXqevcfPlxXXFSkgwKWcq9Jpf+gKdecr6c0G+a3YcOGtkuXLj2YnJxsrIrxlmwxHM9O07Skf//+y1asWLHM3Ny8UB27Vp9OAPjIgWVpoLeldS3zabYoYHE2YrCtW7dumTk6Oh67d+9eU01NTUiEqvK7zu4W1KhR4+35K1d61a1V68bXJEhwBvqN3wDsxc/Pz3HJkiUhFE3rSKVSlSZcJTGB2GlhYZFxKz6+fpUqVTK+JoTsQs/FxSVk8+bNEzTFsIlKcWIC75CkuJi0traOu3LlSjd9ff136h6by2KOAlblELDYSTcImhcuXLBZ6OMTeOHcuXaEQCBiQvMqXcgMCA1yhY0ki/v377/b3d3dp1mzZi/VITaggFXWm/zfvzMLfvrEiROW69evD4mOju4ioygheCOo6hGifC0UvwI2Oz4EsVFUq1atoufM8ZzSt2+3RHXPM74nAQveWeh+qVQK44msZs2a2SMcHQ+NdHJa1ahRo3vM+qNcIjcUt4z/lWTz627ZssV2xYoVgQkJCU1EGhryNAgVKc6y4pVMKqWCgoJmTZ06dY2np+e0oKCgpV+jgMV8j2C9IFwbGjpv8aJFk9+9e2cCmyoETQu4rCU+1+98Clglv6d79uwZtmDBgpVPnj41BRFLVTFRFXst7Rq5eEwQlJGRUe6yZcvGOjo67vv9999HxsXFrS4sKtJVRQNADyy+egfvoxQBmGQ8efJEY+7cudPPnDnjWcDDse3wkTIyMkrp2bPnjJkzZx6ytrbm7cjh0hrHlwcWClhKmc5nC4NNBQcHGx0+fHjhxYsXR9M0zYdHDV2lSpXMadOmjfX09DzwwZufv5OA+Gk53kVVAmAzERERtq5Tp+6RyWRVZDIZ14Ml5O7RY0aPDg8LCxtTUUlgOfCQi72bN28eOWny5FAIA4CJm6r3YxdhIGB16tTpRExMTG91LPSVrR8KWJVHwCqxaCBiY2N/iIiIGH3q1KmuhUVF9XJzc00ZG6pQLxpGTJND0xKLi4yMjO6NGDFi46xZs3YaGhq+V9c3AQUsZd/sD+XZRf3t27dN1q1bN+LkyZN/vH37tkFhUZEW8w3nlLpCtVr976p/7YmmCW1t7fdisfjh0KFDj7u7u28wNzd/zY6bXJ/zpeu/RQGLEVSgb+U2wGyU0JoaGoX6BgYZVQwMHnbs2PH4uHHjjjdv3vwx5BYrD9Z89CNr06dOnfo5MjKyx8WLF12Sk5Prydv54SAMlTdqVagfwJW/aPoGBm+cHB2XBgUFrYV3y8vLy/VrFrDY8SMhIUHj4sWLtlu2bBn37NmzNtnZ2dWlMplcMAS7kudP44E53wIWU3+Ys0GIvk14ePjsx48fd8zKzq5GEJAzHQ4pLD9bYTjRQoGANjU1fdWvXz+/mTNnbqldu7akXbt2Tnfu3AlGAUv5N7A8X3bla/cdXAEvUVBQkNmePXsWxcXFORAEocFlh4zdDTA3N493c3MbO27cuDh1fpxQwFLOSNV5CiH0xfHjxzUjIiJcTp8+vSQvL68KF1uCloEgqq2tndm+ffsgGxuboAULFkCIJ6+JVJUjiKX5JgB2Ex8fbzlgwIBjScnJDUTcw01oHW3t3NmzZ0/y9PTcXmISzXfV1XY/qHNGRob+gAEDTl2+cqUl1zyF8B4VFRYKlixZsnDevHmL1DkmKwqFFbBGOjuPiomOXpuRmQmuZkrPCdjw9datWl2+dOlS+4oQLFkbmzRpUqO9+/adzczMrM58CxXF8b9yNA1eIKFz585179OnT1FZIe3KP+DzV7B9QhCE5j///GPiHxjY9tH9+5MSX7xoVVhQoEEKBCR4q0C58piAM4sUEKRhpUJoaGrKLC0sHlhYWh5yHjVqn729/S2mNWrz3AB7SkhIMG/evPkVgVBoquo3TSQSSSmZrNBl7NgpIWvWbK+MoVJ82lJJEYsgCNHBgwd/Clm3rs+79PR+ya9f18/MzNQH7xWBUAgvvdyeyiHXjdxOYJyhKYoQiUQSOGWwQYMGUSNGjNhkZ2cHuZfkp0KXxzyDFbCmT58+PCwsLEQgFGpLpVJOGzh89+Hn7scKVezfoe/k4zdNy080E4vFhdpaWpKaNWve19PTe6mtrX2jRcuWd11GjrzZqFGjt6xwVV6s+eJSctzz8vLqferUqRFJSUld3rx5Uw1azuRqVZs9s9whxE8oEMgsLS3jfvvtt7VOTk57bG1ti6Gd3t7eU1auXOlH0bSmql4/0Jf6enoPb9682bp27drZ5fE+fNpHbBj7o0ePqoWFhbW9du1ax/z8/NZpaWk/ZufkaBcVFWmx316GO3uLf+cRiowpJQWsE8ePd6lZs+ZDPtrLfk/v3r1r4u/v3/nBgwcDk5OTO717905+eJrcq4wgwCtV6XmPIvbMtoGxFaJZs2aXmzRpsnLp0qXRJiYmBVFRUURwcLDTrVu3QMBSOYRQKpGQLVq0uP7333+3JQhCxgc7RdpX0WXU0mkV3aiv7fkwSOzatetnT0/PvYmJiXWEQiGniQS7s9WtW7fdR44ccSYIAibhahEdUMBSztrUJWCxH/X169f39vb2Ds3MzDTneows49Yva9GiRdQff/wxfcKECW/VtcuuHEUszTcBWMh07979OHh9CEUiCJlTyeOI3e1t0bz59W7dug1avHgxnD5I8V1fdd+PFWFGjRwZsXXbtj8gDxYHJlBdSkCSgpMnT/bo2LFjdGVYNPwrYI0c6RITExP85u1bMQVChZI/6F+aoshWbdpcvnLp0m8VKWCNHz/eev+BA2ch5IFphlLtYe23bZs2IGC5lbeAVRI99M+NGzdAeLDIyMgYkJWV9fPZs2d7p6WlGUI5yGskFAppCk7lovh7xRhBA8ItCJlUKt+tNqxWrdDGxuZaI2vrozpaWtHDhg172rRpUxAa1CZclViYC+Li4mq1bt36MkXTNVR9D0HAEpBkwSgXl6nrQkIivwcB61N7SkxMFO/cudPi1evX9V4lJrrGxcf/kpqSYixf+AuFcILav547fAmkjAgK3xQS7AlspkqVKnlNmjR51qRJkyiKog737ds3sWfPnuDFp5Z56ueGNFbAmjZtmsOGDRsghP7rELBApPrw+/cfYDwwMjIqMDE2fl2nTp3kH374YZ9AU/O5pkCQ0LVr1/f169fPsbKykgss5c1ZyU+KwsVh3hIREVHt4cOHbbOysrrFxcW1uH7jRiu4AXyzYS5D0LQQBASuPyZ3GAXjooAkKSsrq+dt27bd3rBhw2M9e/a8xUa7wPfP09Nz6qpVq5YUSySq5sCSb1IY6Os/io+Pb1VRAlaJMRi+o5AbVPvAgQOmr1+/thSJRFapqakjHj16VOvNmzdGGRkZBp9w/vDtBS+1Mn7gPUdJpbT1Tz+lnoqO7sSXgPVJ/YWRkZHVLl271iY9JWXUjZs3W7969coUBF+BUAhiOgjrvJxayIh5kJeaFAoEcCrl644dOx6sW7duyJw5cyA0Wm6QUVFRgjVr1vwRf+vWmoKCAh1V8l7K1/sURbRo0eLGP//80wYFrLKsDf/OKwF2onD69OnO4AVRXFwMswiVFpBsxWDHv7i4WDBjxoyQvn37Tre1tVWLKosClnKmoA4Bi7Wfy5cvm4wfP/6fBw8eyBNPc5mAMl4VpIWFxYPDhw8PbdKkyb2vUYhQrne+z9Ksnezcs+cPDzc3Dx0dnXyZislRYZIH1zb5+edLth06zHV1dc39Gu2G3VXctGlTv1WrVvlKJBKVNxWYd0lobW2dfOjQIXuSJLMqg6WxAtbcuXMHnzt/3iMnO1ulyRu0r6ioSGxjY3Mdkr5WpIDl7u5eN+bMmS3vs7OrlFzcKcqbsV9hk59/3uU6efJyW1tbCMHn7UQ9RevxifAgX/QD5/j4+I5nzpyxPX/+fOOzZ892yc3N1YYFmtznQiiEEAUKxn7m5KV/+xPeQcbz5d9cbqywwHpuwHtLURTktYJFMWVQpUpRfSurJ9169LjUq0+fA21atrxEkmQhOzcpr/eaEfJqDBs2LEosFuuqOjaJRCLZ+9xcsYuz87wFCxYcKa/6q9Ln6rqmZN9BeoG7d+82PHHiRN8jR470uXvvnnVWZqY2rP3l459AQMLJqSU8WuSJqogPoTcgyFMUTbPeSnL7lIvZNE1CH4FdwWIf5jzwDuno6Unr1amT2Llr1wt9evU6YGtrC6dV5pe3PX3KFp6/ePHiXhs3bvTX1dUtVtVjRl199ul9YYzS0tIiqhkZ0WZmZpI6devG1zQ1jf/hhx+oJk2a3K1Tp85tgiAg/23Rh+6SryXkffatCFefjI8wpsnb9vTpU4uYmJhh+/fv73MzPr5Jxtu3eswpenKBlrFn+dyY5QK2yYji4L0F9iuXXcC+aYKQewtKYT5EUSCKSY2Njd936959h7ub2/JGjRpB3j9g+6+QD/cNDAx03BgePldIkhJVBXe4Tt/A4MXJEyeGGxsbwzyqXMXd0uyZyUMmf88Z29LMycnRe/HiReOEhISf0tPT6eTkZJunT5+2eJ2SIsrOyiLgcLGyvLCY7y6cZPtu8+bN401MTJ7y3V5WrGbEIwGEnu7Zs2fkoUOHety+fbtuTk4O5KCC01PAjQ82hyjYICppKyAOlbAbYCBX51geEolECJn8mLkHZWlpmdS5c+ejU6ZMWda0aVN5WDRrK+z8a9iwYf0ePHgwv7i4WLMsTqX1CTO/1GjcuPHdAwcOQBTXN/mel9r28hp08TlfJsAuIidOnOi9Y8eO6YWFhVW4CBDwNBiMhUJhjpOTk6unp+c+dSR1RwFLOctWl4AVERFRZ+vWrWsvXLjQA0LAuLjEMvHakEstY/Xq1UOHDh0aywzSFf4BVY42llaGADM50YFJiDLXlTLBJo2NjSXq9PzkUj9Fr2XH3/T0dJjYcPqBoCCRSGRmZmb5nG6khovhFEobGxtxenq6ynevLO1jJpfgik+o2h5oi7GxcTG7AFQZCo8XfiI8kE+ePNFMSk1tef3qP2ZXr16yvX//fnWJRFKnsKCpNcOHAAAgAElEQVSgSlGx3MkCFnVGUqlUHhYqEoneCgSCgqKiInM4UQrEHKFQmCuTybLg38ViMaUhFqcZ6Ovf+71Dh1c1a9ZM6tix43MLC4sbpqamsBiGibt8F74ihB/m2TA2lb2dXwZ3ExMTaI8878/3/GNFehj309LStJ4/f97s0qVLFi9fvmwEm2E57983KSgoqFFcJNdBYGFnKJPJxHDIh1AofC8SibILCwtryRd6IpEUPA1oms4QCARFOjo6eRqamuBx9finn37KadOmzcW2bdumtW/f/hpBELAYl/Nn61DR/UDTtOjt27facvezr+RnYmICdQVxHV74f+v9aX4fvoWAyoiHHZsYDjBGaN66davp6djYOtcuX+5w++5dU5lEUq+goEC/+MP4CN4uVSUSiUgkEr0rKiqqJpPJNHV0dN6AsEuSpJZQKEynabpIW1tbJtLQSLSsXTu7k63tuU6dOl1p06ZNAsO91PGQpmkNgiA4fVOhkrChYGpqml8Z+5CdH7F1K7FeBf5iWIIqO14z7YU0Jdxd5j5jqCXrzfyzbkxMTON79+7VOnfuXJ+EhAQDmqZNCgsLdWAdThCENkVRhnD4gUgkSi8sLDSF77FYLM6C9GcQBk2SJIx7OXp6erlisTi1devW/zRt2vRZ3759L9WpU+cVK+yX1o9gK+np6cBL5R8YoUwmo2rUqJGn8k2+wgs5Twa+wjZX2irDS7Fs2TL9o0ePrv3nn38c5HkCOCSaY/NhQQx87969J4SEhFzme2BAAUs5c+JbwAKbuXbtmt68efMWX7lyZTwMhlzEK2gN2Ei1atXSBw0atCA0NDSsskwylSONpVUhwGW8+fR5lXHShUxKJ8BXv1eGPuejLZWhHaX1VCltg4NgRPr6+qLExETL+/fvG7169YrIzc3VzMzMrJ+Tk1O1sLBQaGRk9KB69erv7t+/31YkEpE6OjqFVatWfW1gYPBKW1tbUL9+fVn9+vWTmjdvDrvEJT3OPloYq/L+8HnNt9y3fHJS5l6fLDzlUwAQQK9fv27+6NEj8xcvXtBZWVlaWVlZ4KVQNS8vT6ynp/eqVq1aSbdv326nq6sr0dXVLdDR0ckyMDB4bmBgUNCqVavsatWqQVjLc0ZUgA0N+FUqeyrJiQ/bUoa7uspW1rFLXe399L6l2DMItJrPnj2rm5CQYAj2nJ2dbZydnV07KytL28TE5NGLFy9+BHGrfv36tyUSiS5N01WqV69+z8DAILdBgwYyCHdt3LhxNiNaye24LM582FNZzygvpoo852tsbym2ogmbQwUFBcYJCQn68fHxhvn5+YYZGRlwmIqGmZnZ3fv37zejKAr++WlRUVEtPT2994aGhk/NzMze9OrV6x0I9I0bN4Ycc/CTC3Fl9SMf7BR5jiL9+DWVQQGrEvUWGHFsbKzwwoULP0dERAS/fv26FQgUXDaF4MUBt9dmzZqdsLe3Hztt2rQ3Zb1MyiBBAUsZWvKZITjnF1no6c/r3KJpiM2HhHsq7Tawp1j6+vqOP3jwoDfsInEdCCFcAHYU2rZtG+Tk5LTIycmpUu7+KEcdSyMBJIAEvi0Cpewks/M5eUgLI0SwqQjYbwz77/IwwVKIyBdmn+6uf1vksDWlEfiMR4Xc666kPSUkJJDW1tZy20lISBBYW1uDLX3Wnko+i8+5J/YiEvgSgTLGR/l6n7FfCv5fU1OTtLKyKinelxwfP8QVMmMj2vG3ZXul2Iq8u0u0kg3DBfsA72b4G/yzPLz/k2/pv99QtBP12gkKWOrlq9LdQZjw8fFxWL58ebBEIoHEeJzyYcFLBLkIpk+f/merVq0m2dnZ/RvDrFIFS1yEApZyBPkSsFivqCVLlrQIDw8/8vLlyxqfDLjKVex/H2e6UaNGx1asWDG5S5cuyRWd/0XpRuAFSAAJIAEkgASQABJAAkgACSABJPBNEkABqxJ2K6MGi8aMGeO2Y8eOhUxCTJX7islpBKcsFI0dO3a6h4dHJF9x1ShgKWdAfApYa9eubbBt27bNN27caAl5TLh4XzE7S5SZmdmjwMBABzs7u9uqeoYpRwRLIwEkgASQABJAAkgACSABJIAEkAASKJuAyqJI2bfGEqoSYIQIMiUlpZqDg8P6y5cvD2BPhlH1noyIRRsbG7+xt7efuHLlykOKxHGX9TwUsMoi9PHf+RCwgPmZM2fMPD09N//999+dhEIhH+IVYWZm9tLBwWHq0qVLv8sTmpTrSSyNBJAAEkACSAAJIAEkgASQABJAAuVJAAWs8qSt5LMglNDPz89q//79227dumXDxNsqeZf/FWfyYcnq1Klzdfjw4ZO8vLzucfWyQQFLue7gKmCBTSQkJFR1dXX1unjx4kSCIDTYE6qUq8lHpWk4PtrBwQES/W+Fv3C1Cw51wUuRABJAAkgACSABJIAEkAASQAJIAAn8hwAKWJXYKFhPrHHjxnU/evTouoyMDHOZTAYJ5FT+gScWHFX6+++/b5o1a9asnj175nHJc4QClnJdwUXAYu1h0KBBQ///mOuQ7OzsqhBeqlwNPi4NoiZJkpIuXbqE+Pj4eNrY2BRxsQcudcFrkQASQAJIAAkgASSABJAAEkACSAAJfI4ACliV3DZAtEhKStKaOHHivNOnT8+hKEqTa1J3CB3U1tYu6D9woN/WzZuXw9GwqnrcoIClnAGpKmCxSdvd3Nx+27dvX+iLFy8a85G0HU6obNCgwZlJkyZNHjdu3HNV7UA5ClgaCSABJIAEkAASQAJIAAkgASSABJCAcgRQwFKOV4WUhhCx8+fP/+Dj4xMQGxs7TCQSERwTdhMETVNVDQ0LJkyYMNbHx2cXNEyVIz9RwFLOJFQRsFjPq9u3b5s5OzsfgHBSoVDI1QZoiqIIS0vLOwMHDpwRGBh4Dj2vlOtLLI0EkAASQAJIAAkgASSABJAAEkAC5UcABazyY63yk1ixav/+/T8EBQUdu3r1amOBQMBZwABPLENDw+cLFiyYMHHixNMoYH25i2iaFkbEPan2qjjrr9TCgpYCglQ6fE9VAevVq1c17ezs1ly/fn0gD0nb5WGkenp6xOLFiwdPnjz5L4IgZKr0v8pGjRciASSABJAAEkACSAAJIAEkgASQABJQggAKWErAqsiibAjZ0qVLrTdu3Lj/1atXP/IQQgYiGG1paXkyNDR0dNeuXdOU9cJBDyzlrEJZAQu875KSksSTJk1adurUqQmQyJ+HPGg0QRBSd3f3+T4+PhBCSmLooHL9iKWRABJAAkgACSABJIAEkAASQAJIoHwJoIBVvrw5PY05bU7k4OAw/vjx4z75+flVuYQSQmUEAgEtFAqLf/31141jx471cnBwyFLGEwcFLOW6VBkBC9hGRUVpHDp0aEh0dLR/Tk6OGUVRXJP40xoaGsUdOnT4c/jw4e5OTk4FKF4p14dYGgkgASSABJAAEkACSAAJIAEkgATKnwAKWOXPnNMTQdSIiIgw3rp1q/eVK1fGEgShwTWpOwhWBgYGucOGDXMLCQlZx3p7KVJRFLAUofS/MooKWKwwGRgY2HbdunWbk5KS6oGbFE2D85RqP0aYpOrWrXvezs5uhq+v7x0Ur1RjiVchASSABJAAEkACSAAJIAEkgASQQPkSQAGrfHnz8jQQN3bs2GEREhKy9dq1a+0hqTtFUZz6EoQMLS2td6tXr541atSobVBRRTyxUMBSrksVEbBY8er58+cWAwYM2H3//v1fSZLkmvMMbIQyNjbOmj17tuOsWbNOYd4r5foOSyMBJIAEkAASQAJIAAkgASSABJBAxRHgJHpUXLW/7yezAsebN2+qt2/f/vzTp0/r83QqHSR1T9+6dWu3Hj163FXEOwcFLOVsUVEB68mTJ8aTJ08+cOrUqXaamppwYiCndxXESIqipFu2bBnn4OCwRVGBUrnWYWkkgASQABJAAkgACSABJIAEkAASQALqIcBpUayeKuFdFSHA5MOig4KChvn5+a3Izs6uyUc+LJqmZY0aNToyZMiQ2Z6ens/LErFQwFKkt/5XpiwBi8l7ZbBr167Jx44d86BpWkxRlEi5p3xcWiAQUNra2oX29vb+69evXwS2U1a/cnkeXosEkAASQAJIAAkgASSABJAAEkACSIBvAihg8U20HO8HYkdsbKx4zZo1486fP++Zm5trxEc+LLFYXNi2bduwLl26eM6ePTv/S6GEKGAp1+FfErCA5ZMnTzQXLVo06ujRoz7v37+vzlWUhL4TiURFNjY2uyZOnOg+fPjwN4qEhirXKiyNBJAAEkACSAAJIAEkgASQABJAAkhAvQRQwFIvX7XfHbxpIiMjjdevX7/i+vXr9gKBQCiTyTj1KwgcYrH4/YwZM3x9fHxWfkiHRVKlNQYFLOW6+HMCFitUrV69usnq1at3JyUlNQDuyt3949JM3izKwsLi5pQpU8ZOnz4dwkKlXO6J1yIBJIAEkAASQAJIAAkgASSABJAAEqgIApwWyBVRYXzmfwmA+JGYmGjas2fPvx49evSLSCSiuXjugPBB0TStraVF7d27t2e3bt1OEwRBl+a5gwKWchZZmoAFbOEukLTd3t7+7M2bN2sLBALOSdtJkpRpamq+Cw4Odhk5cuRxDBtUrq+wNBJAAkgACSABJIAEkAASQAJIAAlUHgIoYFWevlC5JqxYdfz48Y5jxozZ9ObNG0uBQEDStFwXUekHYpVMJiPq1q17c8iQIZOXLl16nSAI6lMRCwUs5fB+TsCKjIw02bVrV/DJkyfthEIhCJAC5e78cWkQqyDv1bRp06b4+Phshr9i6CAXongtEkACSAAJIAEkgASQABJAAkgACVQkARSwKpI+j88GIQkEiqlTpw48cODAurS0NBOuIohAIICbSq2trU8PHDhwqqen5zPw6ilZbRSwlOvEUgQsOi4uztDNzc393Llzk0iShKTtXN9LCAEt6NChw1rIpUUQRAGKV8r1E5ZGAkgACSABJIAEkAASQAJIAAkggcpFgOtCuXK15juvDXOCndaePXs8YmJiZhYUFGhzFUNA+BAKhUW///77BhcXl/l2dnZ5JcUQFLCUM7rSBCxHR8fBJ0+eXJWdnV2dIAiunlcERVF027Zt/3J2dh4/atSo9E9FR+VqjKWRABJAAkgACSABJIAEkAASQAJIAAlUPAEUsCq+D3itAU3TwoSEhCoODg6r7969O1wkEpF8nEwoEomI+fPne3l4ePhBhdl8SihgKdd9cgGLIIpr6el6uNk0D16yZEnz8PDwPUlJSbW4esxBTQQCgczCwuLO+PHjx8yaNSsexSvl+gdLIwEkgASQABJAAkgACSABJIAEkEDlJIACVuXsF061AiFk//79Nm5ubusSExObCyAWkGM+LIqiCBMTkzdDhw4duWrVqjMEQfx7ml3gzdvdk/Peh8toojoIaEpVHnJtURRlaaC3pXUt82m2JiYQ7vZRmOKn92Nzfj3JyGi1/NbdCyKBAJ6plC1De/TF4rRlbVvVIUmyQJE6Q9si4p5Ue1Wc9VdqYUFLAUGq4i1FEzRdbKar42Z6O/5oWFjY0bi4uPo8JW2nqlSpkjZs2LApa9asOcAIjaonQlMECpZBAkgACSABJIAEkAASQAJIAAkgASRQDgSUWvSXQ33wETwRAJHHx8en1Y4dO8KfP3/eEE4W5HgyISQWp83NzR+NGDFi1qJFi06wp+ehgKVUp0FescJaBB16yH2u1bW//+7PJG3n+i7SWlpauQMGD/YO9Pf/09TUNB/zXinVL1gYCSABJIAEkAASQAJIAAkgASSABCoxAa6L5krctO+7auCFBWF+3t7eTmFhYesyMjJ0lPVS+pQgCCLgHVWvXr1z48ePnzh16tTnBEHIUMBS3NbAE64wM4O6GbYu+/7Zs/o0QYi4eMfBk1mhauTIkSHe3t5zzc3Ni9gQT8VrhiWRABJAAkgACSABJIAEkAASQAJIAAlUXgIoYFXevuFcMxCxEhMTNV1dXT1Onz49VyqVavIgYkG9qA4dOmwGT6xRo0blBt683QVDCMvuLhCqSIGQuL1nJ/F3+CaalslIruIV81TZb7/9dnbo0KEjJkyYAEnbMWyw7O7AEkgACSABJIAEkAASQAJIAAkgASTwFRFAAesr6ixVqgoiVkRERO2QkJDld+7c6UOSpIjryYQQOqipqUkNHTp0YXh4eMDK+PguL3PyNskIwgRzYH2+l0iBgHh44jhxeV0IUZybq0p3fnQNCFUCgYAyNzeP79mz59g1a9ZA0nYUrziTxRsgASSABJAAEkACSAAJIAEkgASQQGUjgAJWZesRNdQHcl/Nnz//p4MHD2569OhRS64Jw6GKIJRUqVLlbe/evb1tZs558SQra6OMpk1RwCq9A0mhkEi5dYuIWexD5L19C/w49TST04zW09NLGzRo0FxPT8+o2rVrQ+ggClicyOLFSAAJIAEkgASQABJAAkgACSABJFAZCXBbRVfGFmGd/kOATd6+ffv2HnPnzt335s0bLYFAwDl8DfIsGRgYpI33XRT93vqnXjKCNCIIQrmT+b6HUwhpgnj7+CFx1t+PyHj5gmAERE6WCuylUqlgzpw5U/r37x/epk0bzHvFiShejASQABJAAkgACSABJIAEkAASQAKVmQAKWJW5d3isG4QSQujfypUrhy5atGhTfn6+DpdTCf+tmkBA65vWIDvPm0+YNGpEEJDnSRnvom9cwKIpiijIziTOBQQQr67/I2fDNe8VeFnRNE05OztHhYWFjSQIQoKeVzy+LHgrJIAEkAASQAJIAAkgASSABJAAEqh0BFDAqnRdor4KgYgVFRWlExkZueTs2bMuxcXFuryIWCRJmzayJjvMnEVUq12HANGGUFTE+sYFLGlRIRG3fRtxe/8+QlZcLBf4uPyYkyCppk2bxvbu3dtxwYIFaShecSGK1yIBJIAEkAASQAJIAAkgASSABJDA10AABayvoZd4rCOIWO7u7ubR0dH+CQkJQwiCEFIUpVzY33/qA2ZEETV/akJ0mDOXqFrLgqBlMsVErG9UwAIvK6GmJnF7z27iny0RhCQvj3MvgvcWhA4aGxsnDBo0aNaaNWvOEAQhQwGLM1q8ARJAAkgACSABJIAEkAASQAJIAAlUcgIoYFXyDlJH9UDE2rp16y++vr5Rz58/ryUSiSCsjZstkCRBSaWEVceOhO1cd0Kkpa2Yt9E3KmBB0vYXly8RZ5YuJory8pQLq/xMpwsEAqlQKMyfMmXK1LFjx+6ysrIqRvFKHW8I3hMJIAEkgASQABJAAkgACSABJIAEKhsBbqJFZWsN1kchAqxYde7cOdtBgwbte//+vSEvuZkEAkJGUcTPAwcTLUePJUSaGmV7YXEVsG7fuyAiSSEcjKhQ45lCFEUR+mJx2rK2reqQJFmgyLVwwmJE3JNqr4qz/kotLGgpIMhSPdeA5ZuEBCJ6oReR++4dL0nbBQIBJZPJKFdX19CVK1fOJQgCxStFOg3LIAEkgASQABJAAkgACSABJIAEkMA3QUCpRf830WJshJwAeGFBOJq7u/uUsLCwRXl5eQZMonduhEiS0NDSImwc/yCaDB1WdlJ3DgJWYk7Or/434i+J4Fg/lQQszbRlbVvzK2DRNJGbnk5cDgkmnl+6yIt4BV5WQqGQ6tat2/aDBw+6QLwmel5xM1O8GgkgASSABJAAEkACSAAJIAEkgAS+LgIoYH1d/cVrbcETKyAgQC86Onre9evXJxUWFupzz4dFEJCmXM/EhOgwfSZh2e43goLk5Z9L6q6CgMUIcGRCerrptsfPz2VKiuoLwRlK8TBIupiiiPpVDQ7Pad4M8oAplEdKEQ8sSNR+OXQt8fBUNEFJJIqFUX65V+VZ3xs2bHh+xowZk5ydnR+A/ogCFq+vAt4MCSABJIAEkAASQAJIAAkgASSABCo5ARSwKnkHqbt6IMrs2LHDPCAgYENCQkJXcGaiKIq7XdA0oWVoSHSa607UatWGoGXS0kUs1QUsuQdZ0M07h+9nZfTREAqVErBoiqa7WP4wZlC9ehGsN1pZrL8kYEHSdpGmmLizL4q4vC6UoKSSsm6n0N8h75WRkdFDJyenSXZ2dld++eUXfm6s0NOxEBJAAkgACSABJIAEkAASQAJIAAkggcpBgLtQUTnagbXgQAAEnDNnzjRzdHTckZ6e/iOIWFyTukMeKEomI/RNqhOd53sRpo2blB7kx1HAinry5I/TL5PDhUqEEVIETWsLhS9FJN12Wbt2KYp6M31WwKJpeZL2p7FnidNLFgG7snN/KdBfEDYoEonejxo1yis4ODgUQwcVgIZFkAASQAJIAAkgASSABJAAEkACSOCbJIAC1jfZrco1ihWrduzY0XnmzJm7MjMzDfnIhyVPDE8QRK2WvxLtp00n9KqbfgipKxlOqKKABS2Eem9KSDBMzM7f+bYwv7MiIhZ4bdE0XWBpoL/iNxMj/zbm5oVcBSxoZ8rteOKM31J5/it5+6CdHH5QJ4FAQA8ZMsQ3MjLSH5O2c4CJlyIBJIAEkAASQAJIAAkgASSABJDAV08ABayvvgv5aQAjYomcnZ0nHDt2zDMrK8uEqxeWvGYkSQhEIsLKtiPRevxEQrtq1Q8eSuyPo4BFEIRw8/37He9kZC0rLJb9LBSSBAW+Xp/mwwJBiCBoiYySVtPWOlHXQHfWaGvrp4qKV4xg9vEphDQhgEdlvnhOXF4XQiTFxxMktI27eAWM6Pbt2x8MCwsbb2Vl9Q7zXvFj53gXJIAEkAASQAJIAAkgASSABJAAEvg6CaCA9XX2m1pqDV5XUVFROiEhIV7//PPPLJlMJuAlHxboWEIh0bB7d6Kd6wy5oPUh1btc4KJlFEVZGuhtaV3LfJqtiUkBSZIyRRvIiGwa+58963AtJW3V28Iia5FAQIoY7y/5IyBLO02DsCX5QVf7wi+m1af0trR8pMxzShOwSAo0MYKIDVxGPDl7hqApirN4xbSbatq06ZUhQ4aMcnd3fwZeY4rywHJIAAkgASSABJAAEkACSAAJIAEkgAS+RQIoYH2LvcqhTSBiRUdHW86YMSP08ePHXUmSFPDhiQVhdjKJhPh95mzipwGDPiQ5h1A7jgIWIyzJ7fg9QVS7+iJp4D/v0nu8yStsKpC7QxEERROkvqZGyu81zUK6WPxwmCCIImU8r1icJXNgpeQXtNTQ1BTEbdtKXNv0JwfiH18qEolkJiYmr3r16jVh3bp1p9Dzije0eCMkgASQABJAAkgACSABJIAEkAAS+IoJoID1FXeeuqoOgtX27dsbL1iwYPfLly8bynNZfRqSp+LDNbV1iHZTphD1OnUhBCIhQZACTh5Yn1aDqadWdna2VpUqVeQCVnZ2NllcpYrEhCDyuQhCJQWstKKilg+OHBJcCg4mKKmUIAQQoMgt7xVobdra2vl9+/Z137ZtG6hiElWENhW7Bi9DAkgACSABJIAEkAASQAJIAAkgASRQaQmggFVpu6biKsaIQAJPT88hW7duXZGammrGi4jFJDc3qFGDaD99JmHesiVByyhaRhAqhxB+RsD6DzwQgqBdXAQhuYD15Em1V++y/rp58ULL86tWCN6nphHMqY2cOgzqJZPJiH79+m0MDAz0rFev3lsMHeSEFC9GAkgACSABJIAEkAASQAJIAAkggW+IAApY31Bn8tkURsQSjhs3bsi+ffsi3r9/L2bSSfHymBo/NSY6z/ci9GrWpKXFxZRlFX2VcmDxUhkFb/LBAyuu2pVrfx85vHr1LxnPngp48LoiQKhixKt9o0ePHt+7d+9sFK8U7BQshgSQABJAAkgACSABJIAEkAASQALfBQEUsL6LblatkZAP6/Dhw7qbN29eeeTIkVEkSQp5CSUkSYKSyYhaLVoQXRb60iJdPcpSV2dLa8taSidxV61lql0FApZPaKhJzKFDh66dOfML43ql2s2Yq8CzDUIHmzRpch/EwvHjxz/g6inGqUJ4MRJAAkgACSABJIAEkAASQAJIAAkggUpIAAWsStgplalKIGJt3LjRLCQkJOjBgwf9KYoS8SViyaRSoumAgfQv4yZQ9YyMtrS2VP4UwvJixbRZ7OzsPP3AgQPz8/PzdfnwSBMIBJSRkdGz7t27TwkPD48BMYtLmGN58cDnIAEkgASQABJAAkgACSABJIAEkAASKE8CKGCVJ+2v8FmsWLVs2bJ24eHh6589e9ZIIIDz/WjutkOShEhTk246bDjVY/jwLUObNp5mbWJSQJKkrDKhYj2ili1bNigoKCg8IyNDH4Q9rnUEoUogEBQMHjx4sYeHR7C1tXUeildcqeL1SAAJIAEkgASQABJAAkgACSABJPAtEuAuQnyLVLBNHxEAAefGjRuiI0eONN+4ceNfqampJkzicu72Q5K0hp4+1dtxxG5nB4eJPVu1AhGnsglYgjVr1nRbsmTJ2qysrDp8iFfgeSWRSMg//vhjca9evVbY2dnloHiFLx4SQAJIAAkgASSABJAAEkACSAAJIIHSCXAXIJDsd0GAEW3o5cuXz16wYMEiqVSqyYsXFkEQcDxgDTOze7+0aNH3wIEDLyqTkEPTtGj//v0Ws2fPDn/16tVvAoFAwLXdzImIdMeOHW+fPHmyPUEQeWBEland34VRYyORABJAAkgACSABJIAEkAASQAJI4KshgALWV9NVFV9RELFCQ0N1jh496n3+/PkJxcXFunx4IxEkSUNS9y5dusTMmjVrVNeuXVMrwyl8IFRFRkaahIaGet65c2e0RCLR5kG8go6kLS0t42bMmOE8ceLEOyheVbxtYw2QABJAAkgACSABJIAEkAASQAJIoHITQAGrcvdPpasdCFarVq2y2Llz56rbt2/3Ag8liqL4sCMK7t2tW7f1YWFh883NzTMr0iOJEapIR0fHJUeOHJlaUFDAWbxihCrK0NAwuW/fvnMmTJiw38bGRlqR7Tyso7kAABQ0SURBVKx0BoYVQgJIAAkgASSABJAAEkACSAAJIAEkUAoBPoQHBPsdEWCEHUFQUJB1SEjI5ufPnzfX0NAg+BCxIDpPU1Mzr3v37qtCQ0OXmZiYVEhSc9bLauXKlU7e3t6hjOcV56TtAoFARpJk4eDBgxfY29uv69OnDySsp78j88GmIgEkgASQABJAAkgACSABJIAEkAASUIkAClgqYfu+L2IFntjY2N79+vWLKiws1CQIgrPAA1SFQqHMyMgouWvXruNHjhwZY2trC6JPuYk8TNuEYWFh/WbNmrVJIpEYQNtomlsVQJyTSqV0jx49jh85csQe8l6VZ7u+b4vF1iMBJIAEkAASQAJIAAkgASSABJDA104ABayvvQcrqP4g9IAAM2fOnMmbNm3yzs3NNeGaH6pEU6h69erddHZ2njh37twb8N/LQ+xhvct8fHwabd26NfTly5ftBAIBybVdTNJ2onnz5rF79uwZYWlpmVpebaog88DHIgEkgASQABJAAkgACSABJIAEkAAS4JUACli84vy+bgbCTlBQkNaJEye8/v777+kFBQViiqI4e2KB4ENRFNGyZctzmzZtcmjUqFEaJD5Xt4gF7Vm/fr3Z1q1bg27dutXn/9q796Aq6zyO48/zcCRlYUjNW42I6bojpa3jbch1gkQBcTRyyEvqghbWiheSTElOQ4xpXtlCKshLk+s6eUNG7aybM6c/HBFvjbqWu7gD3tMUFRfBc87z7PzqnJ3aLfeB5zk8R87bmf77nd/l9fv1B5/5/b6P2+1uazS88p4I9fHHH//bzJkzX8rOzj5MeBVc/5+wWgQQQAABBBBAAAEEEEAAAeMCBFjGDYO6B1F4fd26dd2Li4tXnTx5cpwsyyFmhD7eW0vq0KFDy/fu3ftyRETEDX8GWGId4suHWVlZeevXr1/sdrttZnxhUVEUtUOHDtVjxoyZO3nyZEd8fLw7qA8Mi0cAAQQQQAABBBBAAAEEEECgGQIEWM1A4yc/FRBBz8GDB/ukpqbuuXbtWk+bzSaZEWLZbDaPJEme1NTU97KysuyxsbEN/gixxFyPHj1q+/LLLzMXLFhQZLOJDysav0kmwitFUVyJiYkf7Ny5801JksT8Vc4PAggggAACCCCAAAIIIIAAAgg0TYAAq2letP4ZAV9YVVpa+rzdbl91/fr17mYVdRchUERExMXRo0fn5uXlbe3du/c9M0Ms79zbLFiwYPxHH330QX19fYQiKq4bLNrufQYpx8bGbvzkk08W9uzZ86qZ8+YgIoAAAggggAACCCCAAAIIIBBMAgRYwbTbflyrr6h7VlbWlG3btq29ceNGhBm3sGRZllRV1aKioqrmzp2bPmfOnINiGWaEQd75ydnZ2bHl5eWrL1y4MFB8CNGE8Or7OQ8ZMuTQsmXLnh8+fPi33Lzy4+GjawQQQAABBBBAAAEEEEAAgVYvQIDV6re45RYonhKWl5f/qrS0NM/pdM5xuVyhqqoaPmO+r/jFxMQcdDgcz3Xt2vU7M0IsMd/c3NyOBw4c2FJZWTlcVVVR98rQfEXgJkmS2qdPn2MjR46cvnr16lNmhG0tt4uMhAACCCCAAAIIIIAAAggggEDgCRj6Yz3wlsOMrBYQodChQ4c6zZw58/3Tp08/L8uyeI5n+JyJV30ul0tKSkr664oVKybFxMTUGgmGxJw+//zz0LKysjc3bNiQa+I8Pe3bt69NSEiY9emnn27zBm3UvbL6YDI+AggggAACCCCAAAIIIIDAAy1gOFh4oFfP5P0iIEKsDRs2DF6yZEnxuXPnfiv/cIXK8FkT9bBkWW5MSkpaPm7cuML09PRbzQmxxFwuX77czm63L9y4ceObiqKYMj8xF0VR7gwfPnzNxx9/XBgVFSXmR3jll1NGpwgggAACCCCAAAIIIIAAAsEkYDhUCCYs1qpPwBdW5efnx27atGlTTU1NtHhaZ0aIJUKi8PDwa+PGjbPn5uZu7N27t6spIZF3Drbp06c/X1ZWtvbOnTsdvAGbvsX9QisRrrlcLiU5OfmzpUuXvtKvX7+bzQnXDE2CHyOAAAIIIIAAAggggAACCCDQSgUIsFrpxlq9LHELS5IkLT8/P6O4uLi4trY2VNReNzovX42pHj16nM7IyEhbtGjRGdGnnrDIV7R9/vz58WVlZe9dunTpNx6PJ8SEOWmqqkqxsbEH09PT06ZPn35Z75yMjs3vEUAAAQQQQAABBBBAAAEEEAgGAcOBQjAgscbmCYgQy+l0hhYXF893OByLGhsbw8y6hSUCo8GDB5985513EuPi4r7VExhpmhaSn5/fZd++fX8+fPjw7yRJEiGboX++QC0qKur8rFmznsvOzv7K90VGQx3zYwQQQAABBBBAAAEEEEAAAQQQ+I8AARaHwa8CIsTau3dv54KCgpXHjx9PkySpjRlfJhRP9txut5yQkPDZ3LlzZycnJ1+/31NCESqdOnWqc05OzjKn0zlVzMusMK1t27bfjh8/Pi83N/fTpj5p9Cs+nSOAAAIIIIAAAggggAACCCDQSgQIsFrJRgbyMkRQlJ+f/0R5efkfT5w4Ea8oimn1sBRFaXjmmWfee/vtt1cMGTJEfJnwf4qmi/GrqqpCFy9e/E5ZWdk8b4Bm+Ox7i8rfS0hIeH/atGlL0tLS6ppSjyuQ94y5IYAAAggggAACCCCAAAIIIBBIAob/iA+kxTCXwBUQIdLatWt/XVRU5KyqqupqVoglQqT27dtfHDFixMxNmzb9RdTd+nE9LO8tK2XatGnpu3btWt7Y2PiwqqqGnw56i7bLKSkpO1JTU1/NyMj4Tk8drsDdIWaGAAIIIIAAAggggAACCCCAQOAKEGAF7t60qpn5irqXlpZOeOONNz66c+dOhBlF3QWSuPXUt2/fbyZNmjRx4cKFJ39cg0rUvZo3b96zZWVlJVevXu3udrtNK9oeExNzxuFwDO/Wrdt17zy0VrVpLAYBBBBAAAEEEEAAAQQQQACBABEgwAqQjQiGafiKuhcVFb26f//+t+rr6yO8wZah5YubT6qqak8//fT+rKysjLS0tCu+DgsLC/uUlJQUVlVVJciyLOpeGRrL+2Otc+fO39jt9lmZmZlOwiszSOkDAQQQQAABBBBAAAEEEEAAgV8WIMDidLSogAisioqKum7fvn1JRUXFZE3TbGY86RMhlginYmJids6YMWN9SkrKucrKyoiCggJ7VVXVSHFRy6Si7WpkZGRtfHz8grfeemtTTEyMi6eDLXqEGAwBBBBAAAEEEEAAAQQQQCAIBQiwgnDTrV6yCJLWrFnz6JYtW7YcOXJkWJs2bcQNKsN1qWT5++PsjoiIqG3Xrl3D7du3QxoaGrqIZ4RmrNlms6mapt1LSUl5f8KECaJo+23CKzNk6QMBBBBAAAEEEEAAAQQQQACB+wsQYHFCWlzAdxPqzJkzA5OSknafP3++c0hIiLghZcpcRE0sj8ej2Ww2SVVVU8IrRVE0l8slDxs2bM+OHTsmPfLII3cIr0zZLjpBAAEEEEAAAQQQQAABBBBA4P8KEGD9XyIa+EPAF2K9++67o1evXl1YW1vby6yi7mK+4jaWiYGY6Evr0aPH8c2bN88YPHjwif/+2qE/jOgTAQQQQAABBBBAAAEEEEAAAQR+ECDA4iRYJiBCrK1bt7bZtWvXy/v27Su4fft2pBlPCf2wIDU6OvofU6dOzcjLyztEeOUHYbpEAAEEEEAAAQQQQAABBBBA4D4CBFgcD0sFRFH3rVu3Prxu3Tq70+l8RZKkUFVVA+ZcKooiirbfHDVqVO68efPWDxw40COeKFqKxuAIIIAAAggggAACCCCAAAIIBJlAwAQFQebOcn8kIG5i3bp16+HExMRthw8fftZb1N3ysxkSEiKCqnuJiYlLCwsLl0dHRzdS94qjiwACCCCAAAIIIIAAAggggEDLC1geErT8khkx0AR89bAqKioGTJkyZUNNTU0/RVFE3SnLzqcIqtxut/zUU099UVJSMnPQoEHV3LwKtJPDfBBAAAEEEEAAAQQQQAABBIJFwLKAIFiAWac+AW9YJdvt9tjNmzcXnz9//knxvFDfr81tJcIrVVW1/v37V8yePXtGenr636l7Za4xvSGAAAIIIIAAAggggAACCCDQFAECrKZo0davAiLEKikpsVVWVv5+z549y27evNne4/G0eIglAqzo6OiLGRkZUxctWuQU8+LpoF+3ns4RQAABBBBAAAEEEEAAAQQQuK8AARYHJKAEvLeuQseMGfP6/v37F2ma9lBLfplQFG0PDw+/NmrUqOzMzMytcXFxKk8HA+qIMBkEEEAAAQQQQAABBBBAAIEgFCDACsJND/QlixDrypUrHdPS0jZUVFSMbql6WOKWlSzL94YNG1ZaWFho79ev3y3Cq0A/LcwPAQQQQAABBBBAAAEEEEAgGAQIsIJhlx/ANYoQa/fu3X0KCgqKjh079qy/Qyxx80oUbY+Njd02Y8aMBenp6TU8G3wADw5TRgABBBBAAAEEEEAAAQQQaJUCBFitclsf/EX5irovXLjwCYfDsf3rr7/u5a+i7t6i7dKgQYPOLl26NDk+Pr7qwRdkBQgggAACCCCAAAIIIIAAAgi0HgECrNazl61uJd7ASs7IyEhzOBxrbt682cnj8YT4YaFap06danJyctJee+21IxRt94MwXSKAAAIIIIAAAggggAACCCBgQIAAywAeP/W/gPcm1kPJycnTKisr7XV1dd2+/ySgphk+u74ngpGRkddHjBjxek5Ozp8GDhzooe6V//eVERBAAAEEEEAAAQQQQAABBBBoioDhEKApg9EWgeYIiLCqurr6ofnz56cdOHBg+Y0bNzobDbFkWZZUVVUjIyPvjh07dvmECROKEhMTa6l71Zwd4jcIIIAAAggggAACCCCAAAII+FeAAMu/vvRukoB4Tnj06NGQDz/8cLTD4fjgypUrXUJCQmRVVZt8hhVF0dxut/TYY4/VZGZm5gwdOvSLhISE24RXJm0W3SCAAAIIIIAAAggggAACCCBgskCT//g3eXy6Q0C3gK8m1ooVK5LXr1+/5OzZs30VkUZpmvjvvmdZ3LjyPg3UNE1zDxgw4NScOXNeevHFF78Sv+fZoO5toCECCCCAAAIIIIAAAggggAACLS5AgNXi5AxoRMD3dcLd+/b1eX/Vqj+cOXMmoba2tntDQ0O7XwqyxM0qWZY9YWFhjR07dvxn//7997zwwgvFEydOvCDmws0rIzvCbxFAAAEEEEAAAQQQQAABBBDwvwABlv+NGcFkgR/dtgpbuXLlk06nM7a+vn5IXV1dr+rq6iddLpdb5FLiqlW7sDD50W7dqjt06HA8NDS0IjU19cjYsWNPd+nSpZ7wyuSNoTsEEEAAAQQQQAABBBBAAAEE/CRAgOUnWLptGQFx6+r06dO2ysrKsLt373a4dOlSVF1dnaooyvdnOzw8XAoLC7vYq1eva506dfpXXFycKkmSuJGltcwMGQUBBBBAAAEEEEAAAQQQQAABBIwKEGAZFeT3lgt4b2Qp3mBKBFQ/+ed7dkhwZflWMQEEEEAAAQQQQAABBBBAAAEEmiVAgNUsNn4UqAI/V8yd21aBulvMCwEEEEAAAQQQQAABBBBAAAF9AgRY+pxohQACCCCAAAIIIIAAAggggAACCCBgkQABlkXwDIsAAggggAACCCCAAAIIIIAAAgggoE+AAEufE60QQAABBBBAAAEEEEAAAQQQQAABBCwSIMCyCJ5hEUAAAQQQQAABBBBAAAEEEEAAAQT0CRBg6XOiFQIIIIAAAggggAACCCCAAAIIIICARQIEWBbBMywCCCCAAAIIIIAAAggggAACCCCAgD4BAix9TrRCAAEEEEAAAQQQQAABBBBAAAEEELBIgADLIniGRQABBBBAAAEEEEAAAQQQQAABBBDQJ0CApc+JVggggAACCCCAAAIIIIAAAggggAACFgkQYFkEz7AIIIAAAggggAACCCCAAAIIIIAAAvoECLD0OdEKAQQQQAABBBBAAAEEEEAAAQQQQMAiAQIsi+AZFgEEEEAAAQQQQAABBBBAAAEEEEBAnwABlj4nWiGAAAIIIIAAAggggAACCCCAAAIIWCRAgGURPMMigAACCCCAAAIIIIAAAggggAACCOgTIMDS50QrBBBAAAEEEEAAAQQQQAABBBBAAAGLBAiwLIJnWAQQQAABBBBAAAEEEEAAAQQQQAABfQIEWPqcaIUAAggggAACCCCAAAIIIIAAAgggYJEAAZZF8AyLAAIIIIAAAggggAACCCCAAAIIIKBPgABLnxOtEEAAAQQQQAABBBBAAAEEEEAAAQQsEiDAsgieYRFAAAEEEEAAAQQQQAABBBBAAAEE9AkQYOlzohUCCCCAAAIIIIAAAggggAACCCCAgEUCBFgWwTMsAggggAACCCCAAAIIIIAAAggggIA+AQIsfU60QgABBBBAAAEEEEAAAQQQQAABBBCwSIAAyyJ4hkUAAQQQQAABBBBAAAEEEEAAAQQQ0CdAgKXPiVYIIIAAAggggAACCCCAAAIIIIAAAhYJEGBZBM+wCCCAAAIIIIAAAggggAACCCCAAAL6BAiw9DnRCgEEEEAAAQQQQAABBBBAAAEEEEDAIgECLIvgGRYBBBBAAAEEEEAAAQQQQAABBBBAQJ8AAZY+J1ohgAACCCCAAAIIIIAAAggggAACCFgkQIBlETzDIoAAAggggAACCCCAAAIIIIAAAgjoEyDA0udEKwQQQAABBBBAAAEEEEAAAQQQQAABiwQIsCyCZ1gEEEAAAQQQQAABBBBAAAEEEEAAAX0CBFj6nGiFAAIIIIAAAggggAACCCCAAAIIIGCRAAGWRfAMiwACCCCAAAIIIIAAAggggAACCCCgT+Df/QeqLlCsPPQAAAAASUVORK5CYII=;clipPath=inset(7.45% 74% 5.32% 4%);" vertex="1" parent="1">
          <mxGeometry x="1011.4200000000001" y="341" width="60.36585365853659" height="75" as="geometry" />
        </mxCell>
        <mxCell id="CYtip8i-Iczx8UtMDEUg-58" style="edgeStyle=none;rounded=0;orthogonalLoop=1;jettySize=auto;html=1;entryX=0.96;entryY=0.483;entryDx=0;entryDy=0;entryPerimeter=0;strokeColor=#324bc8;strokeWidth=3;dashed=1;dashPattern=1 2;" edge="1" parent="1" source="CYtip8i-Iczx8UtMDEUg-5" target="CYtip8i-Iczx8UtMDEUg-13">
          <mxGeometry relative="1" as="geometry" />
        </mxCell>
        <mxCell id="CYtip8i-Iczx8UtMDEUg-59" style="edgeStyle=none;rounded=0;orthogonalLoop=1;jettySize=auto;html=1;entryX=0.977;entryY=0.536;entryDx=0;entryDy=0;entryPerimeter=0;strokeColor=#324bc8;strokeWidth=3;dashed=1;dashPattern=1 2;" edge="1" parent="1" source="CYtip8i-Iczx8UtMDEUg-25" target="CYtip8i-Iczx8UtMDEUg-13">
          <mxGeometry relative="1" as="geometry" />
        </mxCell>
        <mxCell id="CYtip8i-Iczx8UtMDEUg-60" style="edgeStyle=none;rounded=0;orthogonalLoop=1;jettySize=auto;html=1;entryX=0.964;entryY=0.579;entryDx=0;entryDy=0;entryPerimeter=0;strokeColor=#324bc8;strokeWidth=3;dashed=1;dashPattern=1 2;" edge="1" parent="1" source="CYtip8i-Iczx8UtMDEUg-57" target="CYtip8i-Iczx8UtMDEUg-13">
          <mxGeometry relative="1" as="geometry" />
        </mxCell>
      </root>
    </mxGraphModel>
  </diagram>
</mxfile>
